G75*
%MOIN*%
%OFA0B0*%
%FSLAX25Y25*%
%IPPOS*%
%LPD*%
%AMOC8*
5,1,8,0,0,1.08239X$1,22.5*
%
%ADD10C,0.00800*%
%ADD11C,0.01000*%
%ADD12R,0.00787X0.00787*%
%ADD13C,0.00500*%
%ADD14C,0.00197*%
%ADD15C,0.00600*%
%ADD16C,0.00000*%
%ADD17C,0.00300*%
D10*
X0035271Y0008893D02*
X0035271Y0012033D01*
X0036841Y0012033D01*
X0037364Y0011509D01*
X0037364Y0010463D01*
X0036841Y0009939D01*
X0035271Y0009939D01*
X0038896Y0009416D02*
X0039419Y0008893D01*
X0040466Y0008893D01*
X0040989Y0009416D01*
X0040989Y0011509D01*
X0040466Y0012033D01*
X0039419Y0012033D01*
X0038896Y0011509D01*
X0038896Y0009416D01*
X0042521Y0008893D02*
X0043568Y0009939D01*
X0044614Y0008893D01*
X0044614Y0012033D01*
X0046146Y0012033D02*
X0046146Y0008893D01*
X0048239Y0008893D01*
X0049771Y0008893D02*
X0049771Y0012033D01*
X0051341Y0012033D01*
X0051865Y0011509D01*
X0051865Y0010463D01*
X0051341Y0009939D01*
X0049771Y0009939D01*
X0050818Y0009939D02*
X0051865Y0008893D01*
X0047193Y0010463D02*
X0046146Y0010463D01*
X0046146Y0012033D02*
X0048239Y0012033D01*
X0042521Y0012033D02*
X0042521Y0008893D01*
X0053904Y0034483D02*
X0054951Y0034483D01*
X0055474Y0035007D01*
X0055474Y0036053D01*
X0054428Y0036053D01*
X0055474Y0037100D02*
X0054951Y0037623D01*
X0053904Y0037623D01*
X0053381Y0037100D01*
X0053381Y0035007D01*
X0053904Y0034483D01*
X0057006Y0034483D02*
X0057006Y0037623D01*
X0059099Y0034483D01*
X0059099Y0037623D01*
X0060631Y0037623D02*
X0062201Y0037623D01*
X0062724Y0037100D01*
X0062724Y0035007D01*
X0062201Y0034483D01*
X0060631Y0034483D01*
X0060631Y0037623D01*
X0059680Y0041964D02*
X0059680Y0045103D01*
X0061250Y0045103D01*
X0061773Y0044580D01*
X0061773Y0043534D01*
X0061250Y0043010D01*
X0059680Y0043010D01*
X0060727Y0043010D02*
X0061773Y0041964D01*
X0063305Y0042487D02*
X0063829Y0041964D01*
X0064875Y0041964D01*
X0065399Y0042487D01*
X0065399Y0043010D01*
X0064875Y0043534D01*
X0064352Y0043534D01*
X0064875Y0043534D02*
X0065399Y0044057D01*
X0065399Y0044580D01*
X0064875Y0045103D01*
X0063829Y0045103D01*
X0063305Y0044580D01*
X0075035Y0044057D02*
X0076081Y0045103D01*
X0076081Y0041964D01*
X0075035Y0041964D02*
X0077128Y0041964D01*
X0078660Y0042487D02*
X0080753Y0044580D01*
X0080753Y0042487D01*
X0080230Y0041964D01*
X0079183Y0041964D01*
X0078660Y0042487D01*
X0078660Y0044580D01*
X0079183Y0045103D01*
X0080230Y0045103D01*
X0080753Y0044580D01*
X0082285Y0045103D02*
X0082285Y0041964D01*
X0082285Y0043010D02*
X0083855Y0044057D01*
X0082285Y0043010D02*
X0083855Y0041964D01*
X0088814Y0042093D02*
X0089337Y0041570D01*
X0090384Y0041570D01*
X0090907Y0042093D01*
X0092439Y0041570D02*
X0094532Y0041570D01*
X0093486Y0041570D02*
X0093486Y0044710D01*
X0092439Y0043663D01*
X0090907Y0044186D02*
X0090384Y0044710D01*
X0089337Y0044710D01*
X0088814Y0044186D01*
X0088814Y0042093D01*
X0090254Y0038804D02*
X0090254Y0035665D01*
X0089208Y0035665D02*
X0091301Y0035665D01*
X0092833Y0036188D02*
X0094926Y0038281D01*
X0094926Y0036188D01*
X0094403Y0035665D01*
X0093356Y0035665D01*
X0092833Y0036188D01*
X0092833Y0038281D01*
X0093356Y0038804D01*
X0094403Y0038804D01*
X0094926Y0038281D01*
X0096458Y0037758D02*
X0096458Y0036188D01*
X0096981Y0035665D01*
X0098551Y0035665D01*
X0098551Y0037758D01*
X0100083Y0037234D02*
X0101130Y0037234D01*
X0100083Y0035665D02*
X0100083Y0038804D01*
X0102176Y0038804D01*
X0108106Y0036183D02*
X0109152Y0037229D01*
X0109152Y0034090D01*
X0108106Y0034090D02*
X0110199Y0034090D01*
X0111649Y0041964D02*
X0111649Y0045103D01*
X0113219Y0045103D01*
X0113742Y0044580D01*
X0113742Y0043534D01*
X0113219Y0043010D01*
X0111649Y0043010D01*
X0112695Y0043010D02*
X0113742Y0041964D01*
X0115274Y0041964D02*
X0117367Y0041964D01*
X0116321Y0041964D02*
X0116321Y0045103D01*
X0115274Y0044057D01*
X0120704Y0044057D02*
X0121750Y0045103D01*
X0121750Y0041964D01*
X0120704Y0041964D02*
X0122797Y0041964D01*
X0124329Y0042487D02*
X0126422Y0044580D01*
X0126422Y0042487D01*
X0125899Y0041964D01*
X0124852Y0041964D01*
X0124329Y0042487D01*
X0124329Y0044580D01*
X0124852Y0045103D01*
X0125899Y0045103D01*
X0126422Y0044580D01*
X0127954Y0045103D02*
X0127954Y0041964D01*
X0127954Y0043010D02*
X0129524Y0044057D01*
X0127954Y0043010D02*
X0129524Y0041964D01*
X0127786Y0037229D02*
X0128309Y0036706D01*
X0126216Y0034613D01*
X0126739Y0034090D01*
X0127786Y0034090D01*
X0128309Y0034613D01*
X0128309Y0036706D01*
X0127786Y0037229D02*
X0126739Y0037229D01*
X0126216Y0036706D01*
X0126216Y0034613D01*
X0138027Y0039602D02*
X0138027Y0042741D01*
X0139073Y0041695D01*
X0140120Y0042741D01*
X0140120Y0039602D01*
X0141652Y0040125D02*
X0142175Y0039602D01*
X0143222Y0039602D01*
X0143745Y0040125D01*
X0143745Y0042218D01*
X0143222Y0042741D01*
X0142175Y0042741D01*
X0141652Y0042218D01*
X0141652Y0040125D01*
X0145277Y0040125D02*
X0145800Y0039602D01*
X0146847Y0039602D01*
X0147370Y0040125D01*
X0147370Y0040648D01*
X0146847Y0041171D01*
X0145800Y0041171D01*
X0145277Y0041695D01*
X0145277Y0042218D01*
X0145800Y0042741D01*
X0146847Y0042741D01*
X0147370Y0042218D01*
X0148902Y0042741D02*
X0150995Y0042741D01*
X0152527Y0042741D02*
X0152527Y0039602D01*
X0154620Y0039602D01*
X0153574Y0041171D02*
X0152527Y0041171D01*
X0149949Y0041171D02*
X0148902Y0041171D01*
X0148902Y0039602D02*
X0148902Y0042741D01*
X0152527Y0042741D02*
X0154620Y0042741D01*
X0156152Y0042741D02*
X0158246Y0042741D01*
X0157199Y0042741D02*
X0157199Y0039602D01*
X0159778Y0039078D02*
X0161871Y0039078D01*
X0163403Y0040125D02*
X0165496Y0042218D01*
X0165496Y0040125D01*
X0164973Y0039602D01*
X0163926Y0039602D01*
X0163403Y0040125D01*
X0163403Y0042218D01*
X0163926Y0042741D01*
X0164973Y0042741D01*
X0165496Y0042218D01*
X0151931Y0056919D02*
X0149838Y0056919D01*
X0141164Y0067161D02*
X0138024Y0067161D01*
X0138024Y0068730D01*
X0138547Y0069254D01*
X0140641Y0069254D01*
X0141164Y0068730D01*
X0141164Y0067161D01*
X0141687Y0070786D02*
X0141687Y0072879D01*
X0140641Y0074411D02*
X0138547Y0074411D01*
X0138024Y0074934D01*
X0138024Y0075981D01*
X0138547Y0076504D01*
X0140641Y0074411D01*
X0141164Y0074934D01*
X0141164Y0075981D01*
X0140641Y0076504D01*
X0138547Y0076504D01*
X0149838Y0080541D02*
X0151931Y0080541D01*
X0150884Y0079495D02*
X0150884Y0081588D01*
X0155743Y0086058D02*
X0155743Y0089198D01*
X0156790Y0088151D01*
X0157836Y0089198D01*
X0157836Y0086058D01*
X0159368Y0086582D02*
X0159892Y0086058D01*
X0160938Y0086058D01*
X0161462Y0086582D01*
X0161462Y0088675D01*
X0160938Y0089198D01*
X0159892Y0089198D01*
X0159368Y0088675D01*
X0159368Y0086582D01*
X0164040Y0086058D02*
X0164040Y0089198D01*
X0162994Y0089198D02*
X0165087Y0089198D01*
X0166619Y0088675D02*
X0166619Y0086582D01*
X0167142Y0086058D01*
X0168189Y0086058D01*
X0168712Y0086582D01*
X0168712Y0088675D01*
X0168189Y0089198D01*
X0167142Y0089198D01*
X0166619Y0088675D01*
X0170244Y0089198D02*
X0170244Y0086058D01*
X0170244Y0087105D02*
X0171814Y0087105D01*
X0172337Y0087628D01*
X0172337Y0088675D01*
X0171814Y0089198D01*
X0170244Y0089198D01*
X0171290Y0087105D02*
X0172337Y0086058D01*
X0173869Y0085535D02*
X0175962Y0085535D01*
X0177494Y0086582D02*
X0179587Y0088675D01*
X0179587Y0086582D01*
X0179064Y0086058D01*
X0178017Y0086058D01*
X0177494Y0086582D01*
X0177494Y0088675D01*
X0178017Y0089198D01*
X0179064Y0089198D01*
X0179587Y0088675D01*
X0130998Y0061903D02*
X0128905Y0059810D01*
X0129429Y0059287D01*
X0130475Y0059287D01*
X0130998Y0059810D01*
X0130998Y0061903D01*
X0130475Y0062426D01*
X0129429Y0062426D01*
X0128905Y0061903D01*
X0128905Y0059810D01*
X0127373Y0058763D02*
X0125280Y0058763D01*
X0123748Y0059810D02*
X0123748Y0061903D01*
X0123225Y0062426D01*
X0121655Y0062426D01*
X0121655Y0059287D01*
X0123225Y0059287D01*
X0123748Y0059810D01*
X0120123Y0059287D02*
X0118030Y0059287D01*
X0118030Y0062426D01*
X0120123Y0062426D01*
X0119076Y0060856D02*
X0118030Y0060856D01*
X0116498Y0059287D02*
X0114405Y0059287D01*
X0114405Y0062426D01*
X0114162Y0076609D02*
X0112592Y0076609D01*
X0112068Y0077133D01*
X0112068Y0078703D01*
X0110536Y0079226D02*
X0110013Y0079749D01*
X0108967Y0079749D01*
X0108443Y0079226D01*
X0108443Y0077133D01*
X0110536Y0079226D01*
X0110536Y0077133D01*
X0110013Y0076609D01*
X0108967Y0076609D01*
X0108443Y0077133D01*
X0106911Y0076609D02*
X0104818Y0076609D01*
X0105865Y0076609D02*
X0105865Y0079749D01*
X0104818Y0078703D01*
X0105341Y0081334D02*
X0106388Y0081334D01*
X0106911Y0081857D01*
X0108443Y0081334D02*
X0110536Y0083427D01*
X0110536Y0083950D01*
X0110013Y0084474D01*
X0108967Y0084474D01*
X0108443Y0083950D01*
X0106911Y0083950D02*
X0106388Y0084474D01*
X0105341Y0084474D01*
X0104818Y0083950D01*
X0104818Y0081857D01*
X0105341Y0081334D01*
X0108443Y0081334D02*
X0110536Y0081334D01*
X0114162Y0078703D02*
X0114162Y0076609D01*
X0115694Y0076609D02*
X0115694Y0079749D01*
X0117787Y0079749D01*
X0116740Y0078179D02*
X0115694Y0078179D01*
X0100995Y0077920D02*
X0100995Y0078967D01*
X0099949Y0078967D01*
X0100995Y0080013D02*
X0100472Y0080537D01*
X0099425Y0080537D01*
X0098902Y0080013D01*
X0098902Y0077920D01*
X0099425Y0077397D01*
X0100472Y0077397D01*
X0100995Y0077920D01*
X0097370Y0077397D02*
X0095277Y0077397D01*
X0095277Y0080537D01*
X0097370Y0080537D01*
X0096324Y0078967D02*
X0095277Y0078967D01*
X0093745Y0078967D02*
X0093745Y0080013D01*
X0093222Y0080537D01*
X0091652Y0080537D01*
X0091652Y0077397D01*
X0091652Y0078443D02*
X0093222Y0078443D01*
X0093745Y0078967D01*
X0092698Y0078443D02*
X0093745Y0077397D01*
X0090120Y0078443D02*
X0089073Y0077397D01*
X0088027Y0078443D01*
X0088027Y0080537D01*
X0090120Y0080537D02*
X0090120Y0078443D01*
X0084686Y0087082D02*
X0083116Y0088128D01*
X0084686Y0089175D01*
X0083116Y0090222D02*
X0083116Y0087082D01*
X0081584Y0087605D02*
X0081061Y0087082D01*
X0080014Y0087082D01*
X0079491Y0087605D01*
X0081584Y0089698D01*
X0081584Y0087605D01*
X0079491Y0087605D02*
X0079491Y0089698D01*
X0080014Y0090222D01*
X0081061Y0090222D01*
X0081584Y0089698D01*
X0077959Y0087082D02*
X0075866Y0087082D01*
X0076912Y0087082D02*
X0076912Y0090222D01*
X0075866Y0089175D01*
X0077627Y0093145D02*
X0077627Y0096285D01*
X0079197Y0096285D01*
X0079720Y0095761D01*
X0079720Y0094715D01*
X0079197Y0094191D01*
X0077627Y0094191D01*
X0078673Y0094191D02*
X0079720Y0093145D01*
X0081252Y0093668D02*
X0081775Y0093145D01*
X0082822Y0093145D01*
X0083345Y0093668D01*
X0083345Y0094715D01*
X0082822Y0095238D01*
X0082299Y0095238D01*
X0081252Y0094715D01*
X0081252Y0096285D01*
X0083345Y0096285D01*
X0108690Y0089695D02*
X0108690Y0088648D01*
X0109213Y0088125D01*
X0110260Y0088125D01*
X0110783Y0088648D01*
X0110783Y0089172D01*
X0110260Y0089695D01*
X0108690Y0089695D01*
X0109736Y0090742D01*
X0110783Y0091265D01*
X0112315Y0090742D02*
X0112838Y0091265D01*
X0113885Y0091265D01*
X0114408Y0090742D01*
X0112315Y0088648D01*
X0112838Y0088125D01*
X0113885Y0088125D01*
X0114408Y0088648D01*
X0114408Y0090742D01*
X0112315Y0090742D02*
X0112315Y0088648D01*
X0111610Y0093145D02*
X0110563Y0094191D01*
X0111086Y0094191D02*
X0109517Y0094191D01*
X0109517Y0093145D02*
X0109517Y0096285D01*
X0111086Y0096285D01*
X0111610Y0095761D01*
X0111610Y0094715D01*
X0111086Y0094191D01*
X0113142Y0093145D02*
X0115235Y0095238D01*
X0115235Y0095761D01*
X0114712Y0096285D01*
X0113665Y0096285D01*
X0113142Y0095761D01*
X0113142Y0093145D02*
X0115235Y0093145D01*
X0074235Y0079817D02*
X0074235Y0077724D01*
X0074235Y0078771D02*
X0071095Y0078771D01*
X0072142Y0077724D01*
X0074758Y0076192D02*
X0074758Y0074099D01*
X0073711Y0072567D02*
X0071618Y0072567D01*
X0071095Y0072044D01*
X0071095Y0070474D01*
X0074235Y0070474D01*
X0074235Y0072044D01*
X0073711Y0072567D01*
X0074235Y0068942D02*
X0074235Y0066849D01*
X0071095Y0066849D01*
X0071095Y0068942D01*
X0072665Y0067895D02*
X0072665Y0066849D01*
X0074235Y0065317D02*
X0074235Y0063224D01*
X0071095Y0063224D01*
X0049176Y0066787D02*
X0049176Y0068356D01*
X0048652Y0068880D01*
X0046559Y0068880D01*
X0046036Y0068356D01*
X0046036Y0066787D01*
X0049176Y0066787D01*
X0049699Y0070412D02*
X0049699Y0072505D01*
X0049176Y0074037D02*
X0049176Y0076130D01*
X0049176Y0075083D02*
X0046036Y0075083D01*
X0047082Y0074037D01*
X0036711Y0079495D02*
X0036711Y0081588D01*
X0035665Y0080541D02*
X0037758Y0080541D01*
X0031949Y0086452D02*
X0029856Y0086452D01*
X0030903Y0086452D02*
X0030903Y0089592D01*
X0029856Y0088545D01*
X0028324Y0085929D02*
X0026231Y0085929D01*
X0024699Y0086452D02*
X0023653Y0087499D01*
X0024176Y0087499D02*
X0022606Y0087499D01*
X0022606Y0086452D02*
X0022606Y0089592D01*
X0024176Y0089592D01*
X0024699Y0089068D01*
X0024699Y0088022D01*
X0024176Y0087499D01*
X0021074Y0086975D02*
X0021074Y0089068D01*
X0020551Y0089592D01*
X0019504Y0089592D01*
X0018981Y0089068D01*
X0018981Y0086975D01*
X0019504Y0086452D01*
X0020551Y0086452D01*
X0021074Y0086975D01*
X0017449Y0089592D02*
X0015356Y0089592D01*
X0016402Y0089592D02*
X0016402Y0086452D01*
X0013824Y0086975D02*
X0013824Y0089068D01*
X0013300Y0089592D01*
X0012254Y0089592D01*
X0011731Y0089068D01*
X0011731Y0086975D01*
X0012254Y0086452D01*
X0013300Y0086452D01*
X0013824Y0086975D01*
X0010199Y0086452D02*
X0010199Y0089592D01*
X0009152Y0088545D01*
X0008106Y0089592D01*
X0008106Y0086452D01*
X0052194Y0090645D02*
X0052194Y0093785D01*
X0053764Y0093785D01*
X0054287Y0093261D01*
X0054287Y0092215D01*
X0053764Y0091691D01*
X0052194Y0091691D01*
X0053240Y0091691D02*
X0054287Y0090645D01*
X0055819Y0092215D02*
X0057912Y0092215D01*
X0057389Y0093785D02*
X0055819Y0092215D01*
X0057389Y0090645D02*
X0057389Y0093785D01*
X0057625Y0088017D02*
X0056578Y0088017D01*
X0056055Y0087494D01*
X0056055Y0085400D01*
X0058148Y0087494D01*
X0058148Y0085400D01*
X0057625Y0084877D01*
X0056578Y0084877D01*
X0056055Y0085400D01*
X0054523Y0085400D02*
X0054523Y0085924D01*
X0054000Y0086447D01*
X0052430Y0086447D01*
X0052430Y0085400D01*
X0052953Y0084877D01*
X0054000Y0084877D01*
X0054523Y0085400D01*
X0053477Y0087494D02*
X0052430Y0086447D01*
X0053477Y0087494D02*
X0054523Y0088017D01*
X0057625Y0088017D02*
X0058148Y0087494D01*
X0037758Y0056919D02*
X0035665Y0056919D01*
X0034729Y0042741D02*
X0036822Y0042741D01*
X0038354Y0042741D02*
X0038354Y0039602D01*
X0040447Y0039602D01*
X0039401Y0041171D02*
X0038354Y0041171D01*
X0038354Y0042741D02*
X0040447Y0042741D01*
X0041979Y0042741D02*
X0044072Y0042741D01*
X0043026Y0042741D02*
X0043026Y0039602D01*
X0045604Y0039078D02*
X0047697Y0039078D01*
X0049229Y0039602D02*
X0051323Y0039602D01*
X0050276Y0039602D02*
X0050276Y0042741D01*
X0049229Y0041695D01*
X0035776Y0041171D02*
X0034729Y0041171D01*
X0034729Y0039602D02*
X0034729Y0042741D01*
X0033197Y0042218D02*
X0032674Y0042741D01*
X0031627Y0042741D01*
X0031104Y0042218D01*
X0031104Y0041695D01*
X0031627Y0041171D01*
X0032674Y0041171D01*
X0033197Y0040648D01*
X0033197Y0040125D01*
X0032674Y0039602D01*
X0031627Y0039602D01*
X0031104Y0040125D01*
X0029572Y0040125D02*
X0029572Y0042218D01*
X0029049Y0042741D01*
X0028002Y0042741D01*
X0027479Y0042218D01*
X0027479Y0040125D01*
X0028002Y0039602D01*
X0029049Y0039602D01*
X0029572Y0040125D01*
X0025947Y0039602D02*
X0025947Y0042741D01*
X0024900Y0041695D01*
X0023854Y0042741D01*
X0023854Y0039602D01*
X0080153Y0035266D02*
X0082246Y0035266D01*
X0081199Y0036312D02*
X0081199Y0034219D01*
X0089208Y0037758D02*
X0090254Y0038804D01*
X0138420Y0012033D02*
X0139990Y0012033D01*
X0140514Y0011509D01*
X0140514Y0010463D01*
X0139990Y0009939D01*
X0138420Y0009939D01*
X0138420Y0008893D02*
X0138420Y0012033D01*
X0142046Y0012033D02*
X0142046Y0008893D01*
X0143092Y0009939D01*
X0144139Y0008893D01*
X0144139Y0012033D01*
X0145671Y0012033D02*
X0146717Y0010986D01*
X0147764Y0012033D01*
X0147764Y0008893D01*
X0145671Y0008893D02*
X0145671Y0012033D01*
X0145718Y0017554D02*
X0145195Y0018078D01*
X0145195Y0019124D01*
X0145718Y0019647D01*
X0146765Y0019647D01*
X0147288Y0019124D01*
X0147288Y0018078D01*
X0146765Y0017554D01*
X0145718Y0017554D01*
X0143663Y0017554D02*
X0143663Y0020694D01*
X0142617Y0019647D01*
X0141570Y0020694D01*
X0141570Y0017554D01*
X0148820Y0019647D02*
X0149867Y0019647D01*
X0149344Y0020171D02*
X0149344Y0018078D01*
X0149867Y0017554D01*
X0151237Y0018078D02*
X0151760Y0017554D01*
X0152807Y0017554D01*
X0153330Y0018078D01*
X0153330Y0019124D01*
X0152807Y0019647D01*
X0151760Y0019647D01*
X0151237Y0019124D01*
X0151237Y0018078D01*
X0154862Y0018601D02*
X0155909Y0019647D01*
X0156432Y0019647D01*
X0154862Y0019647D02*
X0154862Y0017554D01*
X0161508Y0017554D02*
X0161508Y0020694D01*
X0163078Y0020694D01*
X0163601Y0020171D01*
X0163601Y0018078D01*
X0163078Y0017554D01*
X0161508Y0017554D01*
X0165133Y0017554D02*
X0165133Y0019647D01*
X0165133Y0018601D02*
X0166180Y0019647D01*
X0166703Y0019647D01*
X0168154Y0019647D02*
X0168678Y0019647D01*
X0168678Y0017554D01*
X0169201Y0017554D02*
X0168154Y0017554D01*
X0170571Y0019647D02*
X0171618Y0017554D01*
X0172664Y0019647D01*
X0174196Y0019124D02*
X0174196Y0018078D01*
X0174720Y0017554D01*
X0175766Y0017554D01*
X0176289Y0018601D02*
X0174196Y0018601D01*
X0174196Y0019124D02*
X0174720Y0019647D01*
X0175766Y0019647D01*
X0176289Y0019124D01*
X0176289Y0018601D01*
X0177821Y0018601D02*
X0178868Y0019647D01*
X0179391Y0019647D01*
X0177821Y0019647D02*
X0177821Y0017554D01*
X0168678Y0020694D02*
X0168678Y0021217D01*
D11*
X0008993Y0021776D02*
X0008993Y0017654D01*
X0011741Y0017654D02*
X0011741Y0021776D01*
X0010367Y0020402D01*
X0008993Y0021776D01*
X0010367Y0025331D02*
X0010367Y0029453D01*
X0008993Y0029453D02*
X0011741Y0029453D01*
X0013706Y0028079D02*
X0015079Y0029453D01*
X0016453Y0028079D01*
X0016453Y0025331D01*
X0018418Y0026018D02*
X0019105Y0025331D01*
X0020479Y0025331D01*
X0021166Y0026018D01*
X0024505Y0025331D02*
X0024505Y0029453D01*
X0023131Y0029453D02*
X0025879Y0029453D01*
X0027844Y0029453D02*
X0029218Y0029453D01*
X0028531Y0029453D02*
X0028531Y0025331D01*
X0027844Y0025331D02*
X0029218Y0025331D01*
X0030985Y0025331D02*
X0033733Y0025331D01*
X0035698Y0025331D02*
X0038446Y0025331D01*
X0037072Y0027392D02*
X0035698Y0027392D01*
X0035698Y0029453D02*
X0035698Y0025331D01*
X0030985Y0025331D02*
X0030985Y0029453D01*
X0035698Y0029453D02*
X0038446Y0029453D01*
X0038643Y0021776D02*
X0037269Y0021776D01*
X0037956Y0021776D02*
X0037956Y0017654D01*
X0037269Y0017654D02*
X0038643Y0017654D01*
X0045123Y0018341D02*
X0045123Y0021089D01*
X0045810Y0021776D01*
X0047184Y0021776D01*
X0047871Y0021089D01*
X0047871Y0018341D02*
X0047184Y0017654D01*
X0045810Y0017654D01*
X0045123Y0018341D01*
X0030591Y0018341D02*
X0029904Y0017654D01*
X0028531Y0017654D01*
X0027844Y0018341D01*
X0028531Y0019715D02*
X0029904Y0019715D01*
X0030591Y0019028D01*
X0030591Y0018341D01*
X0028531Y0019715D02*
X0027844Y0020402D01*
X0027844Y0021089D01*
X0028531Y0021776D01*
X0029904Y0021776D01*
X0030591Y0021089D01*
X0021166Y0021776D02*
X0021166Y0018341D01*
X0020479Y0017654D01*
X0019105Y0017654D01*
X0018418Y0018341D01*
X0018418Y0021776D01*
X0013706Y0025331D02*
X0013706Y0028079D01*
X0013706Y0027392D02*
X0016453Y0027392D01*
X0018418Y0028766D02*
X0018418Y0026018D01*
X0018418Y0028766D02*
X0019105Y0029453D01*
X0020479Y0029453D01*
X0021166Y0028766D01*
D12*
X0066761Y0070304D03*
X0121879Y0070304D03*
D13*
X0130343Y0071682D02*
X0130934Y0071682D01*
X0131918Y0072272D02*
X0131918Y0069123D01*
X0132706Y0071682D02*
X0134674Y0071682D01*
X0135461Y0072272D02*
X0135461Y0069123D01*
X0155737Y0067745D02*
X0155737Y0065776D01*
X0155737Y0058887D02*
X0155737Y0049831D01*
X0186839Y0049831D01*
X0186839Y0064398D02*
X0186839Y0069123D01*
X0186839Y0083690D02*
X0155737Y0083690D01*
X0155737Y0074635D01*
X0134871Y0032902D02*
X0125816Y0032902D01*
X0118926Y0032902D02*
X0116957Y0032902D01*
X0110068Y0032902D02*
X0101013Y0032902D01*
X0101013Y0001800D01*
X0087627Y0001800D02*
X0087627Y0032902D01*
X0078572Y0032902D01*
X0071682Y0032902D02*
X0069713Y0032902D01*
X0062824Y0032902D02*
X0053769Y0032902D01*
X0053769Y0001800D01*
X0068335Y0001800D02*
X0073060Y0001800D01*
X0115580Y0001800D02*
X0120304Y0001800D01*
X0134871Y0001800D02*
X0134871Y0032902D01*
X0056721Y0069123D02*
X0056721Y0072272D01*
X0055934Y0071682D02*
X0053965Y0071682D01*
X0053178Y0072272D02*
X0053178Y0069123D01*
X0052194Y0071682D02*
X0051603Y0071682D01*
X0032902Y0074635D02*
X0032902Y0083690D01*
X0001800Y0083690D01*
X0001800Y0069123D02*
X0001800Y0064398D01*
X0001800Y0049831D02*
X0032902Y0049831D01*
X0032902Y0058887D01*
X0032902Y0065776D02*
X0032902Y0067745D01*
D14*
X0047863Y0055934D02*
X0047863Y0052981D01*
X0045501Y0052981D01*
X0045501Y0049044D01*
X0048060Y0049044D01*
X0048060Y0046091D01*
X0057115Y0046091D01*
X0057115Y0055934D01*
X0047863Y0055934D01*
X0131524Y0055934D02*
X0131524Y0046091D01*
X0140776Y0046091D01*
X0140776Y0049044D01*
X0143139Y0049044D01*
X0143139Y0052981D01*
X0140580Y0052981D01*
X0140580Y0055934D01*
X0131524Y0055934D01*
D15*
X0100420Y0064361D02*
X0100420Y0069161D01*
X0095620Y0070261D02*
X0093020Y0070261D01*
X0088220Y0069161D02*
X0088220Y0067961D01*
X0088220Y0065561D01*
X0088220Y0064361D01*
D16*
X0088220Y0065561D02*
X0088289Y0065563D01*
X0088357Y0065569D01*
X0088425Y0065579D01*
X0088492Y0065592D01*
X0088558Y0065610D01*
X0088623Y0065631D01*
X0088687Y0065656D01*
X0088749Y0065684D01*
X0088810Y0065716D01*
X0088869Y0065751D01*
X0088925Y0065790D01*
X0088980Y0065832D01*
X0089031Y0065877D01*
X0089081Y0065925D01*
X0089127Y0065975D01*
X0089170Y0066028D01*
X0089211Y0066084D01*
X0089248Y0066141D01*
X0089281Y0066201D01*
X0089312Y0066263D01*
X0089338Y0066326D01*
X0089361Y0066390D01*
X0089381Y0066456D01*
X0089396Y0066523D01*
X0089408Y0066590D01*
X0089416Y0066658D01*
X0089420Y0066727D01*
X0089420Y0066795D01*
X0089416Y0066864D01*
X0089408Y0066932D01*
X0089396Y0066999D01*
X0089381Y0067066D01*
X0089361Y0067132D01*
X0089338Y0067196D01*
X0089312Y0067259D01*
X0089281Y0067321D01*
X0089248Y0067381D01*
X0089211Y0067438D01*
X0089170Y0067494D01*
X0089127Y0067547D01*
X0089081Y0067597D01*
X0089031Y0067645D01*
X0088980Y0067690D01*
X0088925Y0067732D01*
X0088869Y0067771D01*
X0088810Y0067806D01*
X0088749Y0067838D01*
X0088687Y0067866D01*
X0088623Y0067891D01*
X0088558Y0067912D01*
X0088492Y0067930D01*
X0088425Y0067943D01*
X0088357Y0067953D01*
X0088289Y0067959D01*
X0088220Y0067961D01*
D17*
X0087986Y0061347D02*
X0084850Y0058211D01*
X0086418Y0058211D02*
X0086418Y0061347D01*
X0084850Y0061347D02*
X0087986Y0058211D01*
X0087986Y0059779D02*
X0084850Y0059779D01*
M02*
