G75*
%MOIN*%
%OFA0B0*%
%FSLAX25Y25*%
%IPPOS*%
%LPD*%
%AMOC8*
5,1,8,0,0,1.08239X$1,22.5*
%
%ADD10R,0.05118X0.05906*%
%ADD11R,0.05906X0.05118*%
%ADD12R,0.04724X0.04724*%
%ADD13R,0.03150X0.02756*%
%ADD14R,0.02559X0.02362*%
%ADD15R,0.07874X0.05906*%
%ADD16R,0.15748X0.03937*%
%ADD17R,0.02200X0.05200*%
%ADD18R,0.05906X0.07874*%
%ADD19R,0.03937X0.15748*%
D10*
X0066957Y0051013D03*
X0074438Y0051013D03*
X0090580Y0051013D03*
X0098060Y0051013D03*
X0114202Y0051013D03*
X0121682Y0051013D03*
X0098060Y0090383D03*
X0090580Y0090383D03*
D11*
X0066761Y0094123D03*
X0066761Y0086643D03*
X0107568Y0070501D03*
X0107568Y0063020D03*
X0121879Y0086643D03*
X0121879Y0094123D03*
D12*
X0121879Y0074831D03*
X0121879Y0066564D03*
X0066761Y0066564D03*
X0066761Y0074831D03*
D13*
X0054950Y0074241D03*
X0054950Y0067154D03*
X0133690Y0067154D03*
X0133690Y0074241D03*
D14*
X0133493Y0053572D03*
X0141170Y0051013D03*
X0133493Y0048454D03*
X0055146Y0048454D03*
X0047469Y0051013D03*
X0055146Y0053572D03*
D15*
X0011249Y0053572D03*
X0011249Y0079950D03*
X0177391Y0079950D03*
X0177391Y0053572D03*
D16*
X0157312Y0062824D03*
X0157312Y0070698D03*
X0031328Y0070698D03*
X0031328Y0062824D03*
D17*
X0090620Y0061361D03*
X0094320Y0061361D03*
X0098020Y0061361D03*
X0098020Y0072161D03*
X0090620Y0072161D03*
D18*
X0057509Y0011249D03*
X0083887Y0011249D03*
X0104753Y0011249D03*
X0131131Y0011249D03*
D19*
X0121879Y0031328D03*
X0114005Y0031328D03*
X0074635Y0031328D03*
X0066761Y0031328D03*
M02*
