G75*
%MOIN*%
%OFA0B0*%
%FSLAX25Y25*%
%IPPOS*%
%LPD*%
%AMOC8*
5,1,8,0,0,1.08239X$1,22.5*
%
%ADD10C,0.01600*%
%ADD11C,0.03962*%
D10*
X0005400Y0005500D02*
X0005400Y0093220D01*
X0169891Y0093220D01*
X0169891Y0005500D01*
X0005400Y0005500D01*
X0005400Y0006297D02*
X0169891Y0006297D01*
X0169891Y0007896D02*
X0165543Y0007896D01*
X0165866Y0008219D02*
X0167960Y0010313D01*
X0168386Y0011342D01*
X0168386Y0012456D01*
X0168386Y0016642D01*
X0167960Y0017671D01*
X0167172Y0018459D01*
X0166143Y0018885D01*
X0165029Y0018885D01*
X0164000Y0018459D01*
X0163493Y0017952D01*
X0162986Y0018459D01*
X0161957Y0018885D01*
X0160843Y0018885D01*
X0159814Y0018459D01*
X0159026Y0017671D01*
X0158906Y0017381D01*
X0158616Y0017671D01*
X0157828Y0018459D01*
X0157214Y0018713D01*
X0156799Y0018885D01*
X0155685Y0018885D01*
X0154656Y0018459D01*
X0153869Y0017671D01*
X0153614Y0017056D01*
X0153442Y0016642D01*
X0153442Y0012543D01*
X0153380Y0012517D01*
X0152671Y0013226D01*
X0151642Y0013652D01*
X0150260Y0013652D01*
X0150260Y0015595D01*
X0149834Y0016624D01*
X0149232Y0017226D01*
X0148787Y0017671D01*
X0148602Y0017857D01*
X0148000Y0018459D01*
X0147677Y0018592D01*
X0146971Y0018885D01*
X0143763Y0018885D01*
X0143015Y0018575D01*
X0142734Y0018459D01*
X0142114Y0017838D01*
X0141947Y0017671D01*
X0141559Y0017283D01*
X0140900Y0016624D01*
X0140508Y0015678D01*
X0140474Y0015595D01*
X0140474Y0010295D01*
X0140900Y0009266D01*
X0141947Y0008219D01*
X0142734Y0007432D01*
X0143763Y0007006D01*
X0146971Y0007006D01*
X0148000Y0007432D01*
X0148226Y0007658D01*
X0148453Y0007432D01*
X0149482Y0007006D01*
X0151642Y0007006D01*
X0152617Y0007409D01*
X0153592Y0007006D01*
X0158892Y0007006D01*
X0159922Y0007432D01*
X0160709Y0008219D01*
X0160829Y0008509D01*
X0161907Y0007432D01*
X0162936Y0007006D01*
X0164050Y0007006D01*
X0165079Y0007432D01*
X0165866Y0008219D01*
X0167141Y0009494D02*
X0169891Y0009494D01*
X0169891Y0011093D02*
X0168283Y0011093D01*
X0168386Y0012691D02*
X0169891Y0012691D01*
X0169891Y0014290D02*
X0168386Y0014290D01*
X0168386Y0015888D02*
X0169891Y0015888D01*
X0169891Y0017487D02*
X0168036Y0017487D01*
X0165586Y0016085D02*
X0165586Y0011899D01*
X0163493Y0009806D01*
X0161400Y0011899D01*
X0161400Y0016085D01*
X0158949Y0017487D02*
X0158800Y0017487D01*
X0158616Y0017671D02*
X0158616Y0017671D01*
X0156242Y0016085D02*
X0156242Y0009806D01*
X0154149Y0009806D02*
X0158336Y0009806D01*
X0160385Y0007896D02*
X0161443Y0007896D01*
X0153442Y0012691D02*
X0153206Y0012691D01*
X0153442Y0014290D02*
X0150260Y0014290D01*
X0147460Y0015038D02*
X0146414Y0016085D01*
X0144320Y0016085D01*
X0143274Y0015038D01*
X0147460Y0010852D01*
X0146414Y0009806D01*
X0144320Y0009806D01*
X0143274Y0010852D01*
X0143274Y0015038D01*
X0140595Y0015888D02*
X0005400Y0015888D01*
X0005400Y0017487D02*
X0141762Y0017487D01*
X0141947Y0017671D02*
X0141947Y0017671D01*
X0142734Y0018459D02*
X0142734Y0018459D01*
X0142734Y0018459D01*
X0140900Y0016624D02*
X0140900Y0016624D01*
X0140474Y0014290D02*
X0005400Y0014290D01*
X0005400Y0012691D02*
X0140474Y0012691D01*
X0140474Y0011093D02*
X0005400Y0011093D01*
X0005400Y0009494D02*
X0140806Y0009494D01*
X0142271Y0007896D02*
X0005400Y0007896D01*
X0005400Y0019085D02*
X0169891Y0019085D01*
X0169891Y0020684D02*
X0005400Y0020684D01*
X0005400Y0022282D02*
X0169891Y0022282D01*
X0169891Y0023881D02*
X0005400Y0023881D01*
X0005400Y0025479D02*
X0169891Y0025479D01*
X0169891Y0027078D02*
X0005400Y0027078D01*
X0005400Y0028676D02*
X0169891Y0028676D01*
X0169891Y0030275D02*
X0005400Y0030275D01*
X0005400Y0031873D02*
X0169891Y0031873D01*
X0169891Y0033472D02*
X0094193Y0033472D01*
X0093949Y0033371D02*
X0095413Y0033977D01*
X0096532Y0035097D01*
X0097139Y0036560D01*
X0097139Y0038144D01*
X0096532Y0039607D01*
X0095413Y0040727D01*
X0093949Y0041333D01*
X0092366Y0041333D01*
X0090902Y0040727D01*
X0090327Y0040152D01*
X0068429Y0040152D01*
X0067854Y0040727D01*
X0066390Y0041333D01*
X0064807Y0041333D01*
X0063343Y0040727D01*
X0062223Y0039607D01*
X0061617Y0038144D01*
X0061617Y0036560D01*
X0062223Y0035097D01*
X0063343Y0033977D01*
X0064807Y0033371D01*
X0066390Y0033371D01*
X0067854Y0033977D01*
X0068429Y0034552D01*
X0090327Y0034552D01*
X0090902Y0033977D01*
X0092366Y0033371D01*
X0093949Y0033371D01*
X0092122Y0033472D02*
X0066634Y0033472D01*
X0064563Y0033472D02*
X0005400Y0033472D01*
X0005400Y0035070D02*
X0062250Y0035070D01*
X0061617Y0036669D02*
X0005400Y0036669D01*
X0005400Y0038267D02*
X0061668Y0038267D01*
X0062482Y0039866D02*
X0005400Y0039866D01*
X0005400Y0041464D02*
X0169891Y0041464D01*
X0169891Y0039866D02*
X0096274Y0039866D01*
X0097087Y0038267D02*
X0169891Y0038267D01*
X0169891Y0036669D02*
X0097139Y0036669D01*
X0096506Y0035070D02*
X0169891Y0035070D01*
X0169891Y0043063D02*
X0005400Y0043063D01*
X0005400Y0044661D02*
X0169891Y0044661D01*
X0169891Y0046260D02*
X0005400Y0046260D01*
X0005400Y0047858D02*
X0169891Y0047858D01*
X0169891Y0049457D02*
X0005400Y0049457D01*
X0005400Y0051055D02*
X0169891Y0051055D01*
X0169891Y0052654D02*
X0005400Y0052654D01*
X0005400Y0054252D02*
X0169891Y0054252D01*
X0169891Y0055851D02*
X0005400Y0055851D01*
X0005400Y0057449D02*
X0169891Y0057449D01*
X0169891Y0059048D02*
X0005400Y0059048D01*
X0005400Y0060646D02*
X0169891Y0060646D01*
X0169891Y0062245D02*
X0005400Y0062245D01*
X0005400Y0063843D02*
X0169891Y0063843D01*
X0169891Y0065442D02*
X0005400Y0065442D01*
X0005400Y0067040D02*
X0169891Y0067040D01*
X0169891Y0068639D02*
X0005400Y0068639D01*
X0005400Y0070237D02*
X0169891Y0070237D01*
X0169891Y0071836D02*
X0005400Y0071836D01*
X0005400Y0073434D02*
X0169891Y0073434D01*
X0169891Y0075033D02*
X0005400Y0075033D01*
X0005400Y0076632D02*
X0169891Y0076632D01*
X0169891Y0078230D02*
X0005400Y0078230D01*
X0005400Y0079829D02*
X0169891Y0079829D01*
X0169891Y0081427D02*
X0005400Y0081427D01*
X0005400Y0083026D02*
X0169891Y0083026D01*
X0169891Y0084624D02*
X0005400Y0084624D01*
X0005400Y0086223D02*
X0169891Y0086223D01*
X0169891Y0087821D02*
X0005400Y0087821D01*
X0005400Y0089420D02*
X0169891Y0089420D01*
X0169891Y0091018D02*
X0005400Y0091018D01*
X0005400Y0092617D02*
X0169891Y0092617D01*
X0093157Y0037352D02*
X0065598Y0037352D01*
X0148000Y0018459D02*
X0148000Y0018459D01*
X0148000Y0018459D01*
X0148787Y0017671D02*
X0148787Y0017671D01*
X0148972Y0017487D02*
X0153792Y0017487D01*
X0153442Y0015888D02*
X0150139Y0015888D01*
X0147460Y0015038D02*
X0147460Y0010852D01*
X0150039Y0010852D02*
X0150039Y0009806D01*
X0151085Y0009806D01*
X0151085Y0010852D01*
X0150039Y0010852D01*
X0156242Y0016085D02*
X0158336Y0013992D01*
D11*
X0127868Y0034243D03*
X0101031Y0045226D03*
X0093157Y0037352D03*
X0065598Y0037352D03*
X0073472Y0060974D03*
M02*
