G75*
%MOIN*%
%OFA0B0*%
%FSLAX25Y25*%
%IPPOS*%
%LPD*%
%AMOC8*
5,1,8,0,0,1.08239X$1,22.5*
%
%ADD10C,0.00800*%
%ADD11C,0.01600*%
%ADD12R,0.05118X0.05906*%
%ADD13R,0.05906X0.05118*%
%ADD14R,0.04724X0.04724*%
%ADD15R,0.03150X0.02756*%
%ADD16R,0.02559X0.02362*%
%ADD17R,0.11811X0.08268*%
%ADD18R,0.06299X0.03150*%
%ADD19R,0.02200X0.05200*%
%ADD20R,0.08268X0.11811*%
%ADD21R,0.03150X0.06299*%
%ADD22C,0.03962*%
D10*
X0003000Y0003100D02*
X0172291Y0003100D01*
X0172291Y0095620D01*
X0003000Y0095620D01*
X0003000Y0003100D01*
D11*
X0005400Y0005500D02*
X0005400Y0041760D01*
X0018019Y0041760D01*
X0019190Y0042932D01*
X0019190Y0052856D01*
X0018019Y0054028D01*
X0005400Y0054028D01*
X0005400Y0066760D01*
X0018019Y0066760D01*
X0019190Y0067932D01*
X0019190Y0077856D01*
X0018019Y0079028D01*
X0005400Y0079028D01*
X0005400Y0093220D01*
X0169891Y0093220D01*
X0169891Y0079608D01*
X0156502Y0079608D01*
X0155331Y0078436D01*
X0155331Y0068512D01*
X0156502Y0067340D01*
X0169891Y0067340D01*
X0169891Y0054608D01*
X0156502Y0054608D01*
X0155331Y0053436D01*
X0155331Y0043512D01*
X0156502Y0042340D01*
X0169891Y0042340D01*
X0169891Y0005500D01*
X0131536Y0005500D01*
X0131536Y0018611D01*
X0130365Y0019783D01*
X0120440Y0019783D01*
X0119269Y0018611D01*
X0119269Y0005500D01*
X0106536Y0005500D01*
X0106536Y0018611D01*
X0105365Y0019783D01*
X0095440Y0019783D01*
X0094269Y0018611D01*
X0094269Y0005500D01*
X0084092Y0005500D01*
X0084092Y0018411D01*
X0082921Y0019583D01*
X0072996Y0019583D01*
X0071825Y0018411D01*
X0071825Y0005500D01*
X0059092Y0005500D01*
X0059092Y0018411D01*
X0057921Y0019583D01*
X0047996Y0019583D01*
X0046825Y0018411D01*
X0046825Y0005500D01*
X0005400Y0005500D01*
X0005400Y0006297D02*
X0046825Y0006297D01*
X0046825Y0007896D02*
X0005400Y0007896D01*
X0005400Y0009494D02*
X0046825Y0009494D01*
X0046825Y0011093D02*
X0005400Y0011093D01*
X0005400Y0012691D02*
X0046825Y0012691D01*
X0046825Y0014290D02*
X0005400Y0014290D01*
X0005400Y0015888D02*
X0046825Y0015888D01*
X0046825Y0017487D02*
X0005400Y0017487D01*
X0005400Y0019085D02*
X0047498Y0019085D01*
X0058418Y0019085D02*
X0059623Y0019085D01*
X0059623Y0018527D02*
X0059746Y0018069D01*
X0059983Y0017659D01*
X0060318Y0017324D01*
X0060728Y0017087D01*
X0061186Y0016964D01*
X0062998Y0016964D01*
X0064810Y0016964D01*
X0065209Y0017071D01*
X0065516Y0016764D01*
X0070322Y0016764D01*
X0071494Y0017936D01*
X0071494Y0025142D01*
X0072095Y0027881D01*
X0084487Y0040273D01*
X0088868Y0040273D01*
X0089379Y0040785D01*
X0089707Y0040596D01*
X0090165Y0040473D01*
X0090649Y0040473D01*
X0089782Y0039607D01*
X0089176Y0038144D01*
X0089176Y0036560D01*
X0089782Y0035097D01*
X0090902Y0033977D01*
X0092366Y0033371D01*
X0093949Y0033371D01*
X0095413Y0033977D01*
X0095988Y0034552D01*
X0103809Y0034552D01*
X0106258Y0032102D01*
X0107050Y0026275D01*
X0106867Y0026092D01*
X0106867Y0018136D01*
X0108039Y0016964D01*
X0112845Y0016964D01*
X0112903Y0017021D01*
X0112960Y0016964D01*
X0117766Y0016964D01*
X0118938Y0018136D01*
X0118938Y0026092D01*
X0118445Y0026585D01*
X0119291Y0040273D01*
X0119970Y0040273D01*
X0121142Y0041445D01*
X0121142Y0042426D01*
X0125314Y0042426D01*
X0125314Y0041249D01*
X0125437Y0040791D01*
X0125674Y0040381D01*
X0126009Y0040045D01*
X0126419Y0039808D01*
X0126877Y0039686D01*
X0128394Y0039686D01*
X0129910Y0039686D01*
X0130368Y0039808D01*
X0130778Y0040045D01*
X0131114Y0040381D01*
X0131351Y0040791D01*
X0131473Y0041249D01*
X0131473Y0042667D01*
X0131473Y0044085D01*
X0131351Y0044543D01*
X0131114Y0044953D01*
X0130982Y0045085D01*
X0131617Y0045720D01*
X0132791Y0044546D01*
X0132791Y0043216D01*
X0133963Y0042045D01*
X0138179Y0042045D01*
X0139350Y0043216D01*
X0139350Y0047236D01*
X0139265Y0047321D01*
X0139265Y0051940D01*
X0141694Y0054369D01*
X0148763Y0055198D01*
X0149022Y0054939D01*
X0156978Y0054939D01*
X0158150Y0056110D01*
X0158150Y0060917D01*
X0158092Y0060974D01*
X0158150Y0061031D01*
X0158150Y0065838D01*
X0156978Y0067009D01*
X0149022Y0067009D01*
X0148763Y0066750D01*
X0141694Y0067579D01*
X0138444Y0070828D01*
X0137415Y0071254D01*
X0131572Y0071254D01*
X0131391Y0071435D01*
X0131391Y0085153D01*
X0130964Y0086182D01*
X0130177Y0086970D01*
X0126436Y0090710D01*
X0125407Y0091136D01*
X0121732Y0091136D01*
X0121732Y0091724D01*
X0120561Y0092895D01*
X0112998Y0092895D01*
X0111827Y0091724D01*
X0111827Y0091333D01*
X0108349Y0091333D01*
X0107319Y0090907D01*
X0106532Y0090119D01*
X0100095Y0083682D01*
X0099669Y0082653D01*
X0099669Y0069273D01*
X0098687Y0069273D01*
X0097516Y0068102D01*
X0097516Y0064318D01*
X0096020Y0063112D01*
X0096020Y0069802D01*
X0095761Y0070062D01*
X0095761Y0079643D01*
X0096348Y0079643D01*
X0097520Y0080815D01*
X0097520Y0088377D01*
X0096348Y0089549D01*
X0089573Y0089549D01*
X0089220Y0089196D01*
X0088868Y0089549D01*
X0082093Y0089549D01*
X0080921Y0088377D01*
X0080921Y0087396D01*
X0078569Y0087396D01*
X0075846Y0090119D01*
X0075059Y0090907D01*
X0074029Y0091333D01*
X0066614Y0091333D01*
X0066614Y0091724D01*
X0065443Y0092895D01*
X0057880Y0092895D01*
X0056709Y0091724D01*
X0056709Y0091136D01*
X0053034Y0091136D01*
X0052004Y0090710D01*
X0048264Y0086970D01*
X0047477Y0086182D01*
X0047050Y0085153D01*
X0047050Y0071435D01*
X0046869Y0071254D01*
X0041026Y0071254D01*
X0039997Y0070828D01*
X0036739Y0067571D01*
X0025728Y0066200D01*
X0025499Y0066429D01*
X0017543Y0066429D01*
X0016371Y0065258D01*
X0016371Y0060451D01*
X0016429Y0060394D01*
X0016371Y0060337D01*
X0016371Y0055530D01*
X0017543Y0054359D01*
X0025499Y0054359D01*
X0026025Y0054885D01*
X0036817Y0054299D01*
X0039570Y0051546D01*
X0039570Y0047715D01*
X0039091Y0047236D01*
X0039091Y0043216D01*
X0040262Y0042045D01*
X0044478Y0042045D01*
X0045650Y0043216D01*
X0045650Y0044546D01*
X0047074Y0045970D01*
X0047090Y0045909D01*
X0047327Y0045499D01*
X0047459Y0045367D01*
X0046768Y0044676D01*
X0046768Y0040657D01*
X0047939Y0039486D01*
X0052155Y0039486D01*
X0053327Y0040657D01*
X0053327Y0040806D01*
X0054947Y0042426D01*
X0057299Y0042426D01*
X0057299Y0041445D01*
X0058471Y0040273D01*
X0059167Y0040273D01*
X0059485Y0039506D01*
X0061617Y0037373D01*
X0061617Y0036560D01*
X0062223Y0035097D01*
X0063343Y0033977D01*
X0064807Y0033371D01*
X0066390Y0033371D01*
X0067854Y0033977D01*
X0068973Y0035097D01*
X0069580Y0036560D01*
X0069580Y0038144D01*
X0068973Y0039607D01*
X0068107Y0040473D01*
X0068859Y0040473D01*
X0068859Y0044746D01*
X0069818Y0044746D01*
X0069818Y0040473D01*
X0072135Y0040473D01*
X0072592Y0040596D01*
X0073003Y0040833D01*
X0073338Y0041168D01*
X0073575Y0041578D01*
X0073698Y0042036D01*
X0073698Y0044746D01*
X0069818Y0044746D01*
X0069818Y0045706D01*
X0068859Y0045706D01*
X0068859Y0049979D01*
X0066543Y0049979D01*
X0066085Y0049856D01*
X0065757Y0049667D01*
X0065246Y0050179D01*
X0058471Y0050179D01*
X0057299Y0049007D01*
X0057299Y0048026D01*
X0053230Y0048026D01*
X0053127Y0047983D01*
X0053127Y0049203D01*
X0053004Y0049661D01*
X0052767Y0050071D01*
X0052432Y0050406D01*
X0052022Y0050643D01*
X0051805Y0050701D01*
X0052224Y0051120D01*
X0052650Y0052149D01*
X0052650Y0058387D01*
X0052832Y0058568D01*
X0057299Y0058568D01*
X0057299Y0057587D01*
X0058471Y0056415D01*
X0064852Y0056415D01*
X0066024Y0057587D01*
X0066024Y0063968D01*
X0065080Y0064911D01*
X0066024Y0065854D01*
X0066024Y0072236D01*
X0064852Y0073407D01*
X0064461Y0073407D01*
X0064461Y0076297D01*
X0065443Y0076297D01*
X0066614Y0077468D01*
X0066614Y0084243D01*
X0066261Y0084596D01*
X0066614Y0084949D01*
X0066614Y0085733D01*
X0072313Y0085733D01*
X0075823Y0082222D01*
X0076852Y0081796D01*
X0080921Y0081796D01*
X0080921Y0080815D01*
X0082093Y0079643D01*
X0082680Y0079643D01*
X0082680Y0070062D01*
X0082420Y0069802D01*
X0082420Y0062946D01*
X0083592Y0061774D01*
X0086161Y0061774D01*
X0087961Y0059974D01*
X0087883Y0059974D01*
X0087698Y0059924D01*
X0087449Y0060174D01*
X0083592Y0060174D01*
X0082420Y0059002D01*
X0082420Y0052146D01*
X0082680Y0051886D01*
X0082680Y0050179D01*
X0082093Y0050179D01*
X0080921Y0049007D01*
X0080921Y0044627D01*
X0067770Y0031476D01*
X0067557Y0031339D01*
X0067380Y0031086D01*
X0067162Y0030867D01*
X0067065Y0030633D01*
X0066920Y0030425D01*
X0066854Y0030123D01*
X0066735Y0029838D01*
X0066735Y0029585D01*
X0066182Y0027063D01*
X0065516Y0027063D01*
X0065209Y0026756D01*
X0064810Y0026863D01*
X0062998Y0026863D01*
X0062998Y0021914D01*
X0062998Y0021914D01*
X0062998Y0026863D01*
X0061186Y0026863D01*
X0060728Y0026740D01*
X0060318Y0026504D01*
X0059983Y0026168D01*
X0059746Y0025758D01*
X0059623Y0025300D01*
X0059623Y0021914D01*
X0062998Y0021914D01*
X0062998Y0021913D01*
X0062998Y0016964D01*
X0062998Y0021913D01*
X0062998Y0021913D01*
X0059623Y0021913D01*
X0059623Y0018527D01*
X0059092Y0017487D02*
X0060155Y0017487D01*
X0059092Y0015888D02*
X0071825Y0015888D01*
X0071825Y0017487D02*
X0071045Y0017487D01*
X0071494Y0019085D02*
X0072498Y0019085D01*
X0071494Y0020684D02*
X0106867Y0020684D01*
X0106867Y0019085D02*
X0106063Y0019085D01*
X0106536Y0017487D02*
X0107516Y0017487D01*
X0106536Y0015888D02*
X0119269Y0015888D01*
X0119269Y0017487D02*
X0118289Y0017487D01*
X0118938Y0019085D02*
X0119743Y0019085D01*
X0118938Y0020684D02*
X0169891Y0020684D01*
X0169891Y0019085D02*
X0131063Y0019085D01*
X0131536Y0017487D02*
X0141793Y0017487D01*
X0141584Y0017277D02*
X0141157Y0016248D01*
X0141157Y0010948D01*
X0141584Y0009919D01*
X0143677Y0007826D01*
X0144465Y0007038D01*
X0145494Y0006612D01*
X0146608Y0006612D01*
X0147637Y0007038D01*
X0148714Y0008115D01*
X0148834Y0007826D01*
X0149622Y0007038D01*
X0150651Y0006612D01*
X0155951Y0006612D01*
X0156926Y0007016D01*
X0157901Y0006612D01*
X0160062Y0006612D01*
X0161091Y0007038D01*
X0161317Y0007265D01*
X0161544Y0007038D01*
X0162573Y0006612D01*
X0165780Y0006612D01*
X0166809Y0007038D01*
X0167597Y0007826D01*
X0168643Y0008872D01*
X0169069Y0009901D01*
X0169069Y0015202D01*
X0169035Y0015284D01*
X0168643Y0016231D01*
X0167985Y0016889D01*
X0167597Y0017277D01*
X0167430Y0017444D01*
X0166809Y0018065D01*
X0166809Y0018065D01*
X0166528Y0018181D01*
X0165780Y0018491D01*
X0162573Y0018491D01*
X0161866Y0018198D01*
X0161544Y0018065D01*
X0161544Y0018065D01*
X0161544Y0018065D01*
X0160942Y0017463D01*
X0160756Y0017277D01*
X0160311Y0016833D01*
X0159709Y0016231D01*
X0159283Y0015202D01*
X0159283Y0013258D01*
X0157901Y0013258D01*
X0156872Y0012832D01*
X0156164Y0012124D01*
X0156101Y0012150D01*
X0156101Y0016248D01*
X0155929Y0016662D01*
X0155675Y0017277D01*
X0154887Y0018065D01*
X0153858Y0018491D01*
X0152744Y0018491D01*
X0152330Y0018320D01*
X0151715Y0018065D01*
X0150927Y0017277D01*
X0150637Y0016988D01*
X0150517Y0017277D01*
X0149730Y0018065D01*
X0148701Y0018491D01*
X0147587Y0018491D01*
X0146558Y0018065D01*
X0146051Y0017558D01*
X0145544Y0018065D01*
X0144514Y0018491D01*
X0143401Y0018491D01*
X0142371Y0018065D01*
X0141584Y0017277D01*
X0141157Y0015888D02*
X0131536Y0015888D01*
X0131536Y0014290D02*
X0141157Y0014290D01*
X0141157Y0012691D02*
X0131536Y0012691D01*
X0131536Y0011093D02*
X0141157Y0011093D01*
X0142009Y0009494D02*
X0131536Y0009494D01*
X0131536Y0007896D02*
X0143607Y0007896D01*
X0146051Y0009412D02*
X0148144Y0011505D01*
X0148144Y0015691D01*
X0150308Y0017487D02*
X0151137Y0017487D01*
X0150927Y0017277D02*
X0150927Y0017277D01*
X0153301Y0015691D02*
X0153301Y0009412D01*
X0151208Y0009412D02*
X0155394Y0009412D01*
X0158458Y0009412D02*
X0159505Y0009412D01*
X0159505Y0010458D01*
X0158458Y0010458D01*
X0158458Y0009412D01*
X0162083Y0010458D02*
X0163130Y0009412D01*
X0165223Y0009412D01*
X0166269Y0010458D01*
X0166269Y0014645D01*
X0162083Y0010458D01*
X0162083Y0014645D01*
X0163130Y0015691D01*
X0165223Y0015691D01*
X0166269Y0014645D01*
X0168785Y0015888D02*
X0169891Y0015888D01*
X0168643Y0016231D02*
X0168643Y0016231D01*
X0167597Y0017277D02*
X0167597Y0017277D01*
X0167387Y0017487D02*
X0169891Y0017487D01*
X0166809Y0018065D02*
X0166809Y0018065D01*
X0160965Y0017487D02*
X0155465Y0017487D01*
X0156101Y0015888D02*
X0159568Y0015888D01*
X0160756Y0017277D02*
X0160756Y0017277D01*
X0159283Y0014290D02*
X0156101Y0014290D01*
X0153301Y0015691D02*
X0151208Y0013598D01*
X0156101Y0012691D02*
X0156731Y0012691D01*
X0148805Y0007896D02*
X0148494Y0007896D01*
X0146051Y0009412D02*
X0143957Y0011505D01*
X0143957Y0015691D01*
X0131536Y0006297D02*
X0169891Y0006297D01*
X0169891Y0007896D02*
X0167666Y0007896D01*
X0168901Y0009494D02*
X0169891Y0009494D01*
X0169891Y0011093D02*
X0169069Y0011093D01*
X0169069Y0012691D02*
X0169891Y0012691D01*
X0169891Y0014290D02*
X0169069Y0014290D01*
X0169891Y0022282D02*
X0118938Y0022282D01*
X0118938Y0023881D02*
X0169891Y0023881D01*
X0169891Y0025479D02*
X0118938Y0025479D01*
X0118475Y0027078D02*
X0169891Y0027078D01*
X0169891Y0028676D02*
X0118574Y0028676D01*
X0118673Y0030275D02*
X0169891Y0030275D01*
X0169891Y0031873D02*
X0118772Y0031873D01*
X0118870Y0033472D02*
X0169891Y0033472D01*
X0169891Y0035070D02*
X0118969Y0035070D01*
X0119068Y0036669D02*
X0169891Y0036669D01*
X0169891Y0038267D02*
X0119167Y0038267D01*
X0119266Y0039866D02*
X0126320Y0039866D01*
X0125314Y0041464D02*
X0121142Y0041464D01*
X0116780Y0045029D02*
X0116583Y0045226D01*
X0125835Y0045226D01*
X0128394Y0047785D01*
X0125114Y0048465D02*
X0125114Y0049795D01*
X0126286Y0050966D01*
X0126371Y0050966D01*
X0125626Y0051711D01*
X0125200Y0052740D01*
X0125200Y0057977D01*
X0121142Y0057977D01*
X0121142Y0057587D01*
X0119970Y0056415D01*
X0113589Y0056415D01*
X0112417Y0057587D01*
X0112417Y0063968D01*
X0113361Y0064911D01*
X0112417Y0065854D01*
X0112417Y0072236D01*
X0113589Y0073407D01*
X0113980Y0073407D01*
X0113980Y0076297D01*
X0112998Y0076297D01*
X0111827Y0077468D01*
X0111827Y0084243D01*
X0112179Y0084596D01*
X0111827Y0084949D01*
X0111827Y0085733D01*
X0110065Y0085733D01*
X0105268Y0080936D01*
X0105268Y0069273D01*
X0106250Y0069273D01*
X0107421Y0068102D01*
X0107421Y0061327D01*
X0106910Y0060815D01*
X0107099Y0060488D01*
X0107221Y0060030D01*
X0107221Y0057713D01*
X0102948Y0057713D01*
X0102948Y0056754D01*
X0102948Y0052875D01*
X0105658Y0052875D01*
X0106116Y0052997D01*
X0106526Y0053234D01*
X0106862Y0053570D01*
X0107099Y0053980D01*
X0107221Y0054438D01*
X0107221Y0056754D01*
X0102948Y0056754D01*
X0101989Y0056754D01*
X0101989Y0052875D01*
X0099279Y0052875D01*
X0098821Y0052997D01*
X0098411Y0053234D01*
X0098075Y0053570D01*
X0097838Y0053980D01*
X0097716Y0054438D01*
X0097716Y0056754D01*
X0101989Y0056754D01*
X0101989Y0057713D01*
X0098246Y0057713D01*
X0096928Y0056651D01*
X0096640Y0056363D01*
X0096498Y0056304D01*
X0096378Y0056208D01*
X0096020Y0056103D01*
X0096020Y0052146D01*
X0094849Y0050974D01*
X0090992Y0050974D01*
X0090742Y0051224D01*
X0090557Y0051174D01*
X0089221Y0051174D01*
X0089221Y0055574D01*
X0089220Y0055574D01*
X0089220Y0051174D01*
X0088280Y0051174D01*
X0088280Y0050179D01*
X0088868Y0050179D01*
X0089379Y0049667D01*
X0089707Y0049856D01*
X0090165Y0049979D01*
X0092481Y0049979D01*
X0092481Y0045706D01*
X0093440Y0045706D01*
X0093440Y0049979D01*
X0095757Y0049979D01*
X0096214Y0049856D01*
X0096625Y0049619D01*
X0096960Y0049284D01*
X0097197Y0048874D01*
X0097320Y0048416D01*
X0097320Y0045706D01*
X0093440Y0045706D01*
X0093440Y0044746D01*
X0097320Y0044746D01*
X0097320Y0042036D01*
X0097197Y0041578D01*
X0096960Y0041168D01*
X0096625Y0040833D01*
X0096214Y0040596D01*
X0095757Y0040473D01*
X0095666Y0040473D01*
X0095988Y0040152D01*
X0105525Y0040152D01*
X0106555Y0039726D01*
X0110751Y0035529D01*
X0111044Y0035306D01*
X0111142Y0035138D01*
X0111279Y0035001D01*
X0111420Y0034661D01*
X0111605Y0034344D01*
X0111631Y0034151D01*
X0111705Y0033972D01*
X0111705Y0033604D01*
X0112568Y0027263D01*
X0112845Y0027263D01*
X0112874Y0027234D01*
X0113680Y0040273D01*
X0113195Y0040273D01*
X0112684Y0040785D01*
X0112356Y0040596D01*
X0111898Y0040473D01*
X0109582Y0040473D01*
X0109582Y0044746D01*
X0108623Y0044746D01*
X0108623Y0040473D01*
X0106306Y0040473D01*
X0105849Y0040596D01*
X0105438Y0040833D01*
X0105103Y0041168D01*
X0104866Y0041578D01*
X0104743Y0042036D01*
X0104743Y0044746D01*
X0108623Y0044746D01*
X0108623Y0045706D01*
X0108623Y0049979D01*
X0106306Y0049979D01*
X0105849Y0049856D01*
X0105438Y0049619D01*
X0105103Y0049284D01*
X0104866Y0048874D01*
X0104743Y0048416D01*
X0104743Y0045706D01*
X0108623Y0045706D01*
X0109582Y0045706D01*
X0109582Y0049979D01*
X0111898Y0049979D01*
X0112356Y0049856D01*
X0112684Y0049667D01*
X0113195Y0050179D01*
X0119970Y0050179D01*
X0121142Y0049007D01*
X0121142Y0048026D01*
X0124675Y0048026D01*
X0125114Y0048465D01*
X0125114Y0049457D02*
X0120692Y0049457D01*
X0126282Y0051055D02*
X0094930Y0051055D01*
X0096020Y0052654D02*
X0125236Y0052654D01*
X0125200Y0054252D02*
X0107172Y0054252D01*
X0107221Y0055851D02*
X0125200Y0055851D01*
X0125200Y0057449D02*
X0121005Y0057449D01*
X0116780Y0060777D02*
X0128000Y0060777D01*
X0128000Y0053297D01*
X0136071Y0045226D01*
X0136465Y0045620D01*
X0136465Y0053100D01*
X0140402Y0057037D01*
X0153000Y0058513D01*
X0158150Y0059048D02*
X0169891Y0059048D01*
X0169891Y0057449D02*
X0158150Y0057449D01*
X0157890Y0055851D02*
X0169891Y0055851D01*
X0169891Y0060646D02*
X0158150Y0060646D01*
X0158150Y0062245D02*
X0169891Y0062245D01*
X0169891Y0063843D02*
X0158150Y0063843D01*
X0158150Y0065442D02*
X0169891Y0065442D01*
X0169891Y0067040D02*
X0146287Y0067040D01*
X0140633Y0068639D02*
X0155331Y0068639D01*
X0155331Y0070237D02*
X0139035Y0070237D01*
X0136858Y0068454D02*
X0140402Y0064911D01*
X0153000Y0063435D01*
X0155331Y0071836D02*
X0131391Y0071836D01*
X0131391Y0073434D02*
X0155331Y0073434D01*
X0155331Y0075033D02*
X0131391Y0075033D01*
X0131391Y0076632D02*
X0155331Y0076632D01*
X0155331Y0078230D02*
X0131391Y0078230D01*
X0131391Y0079829D02*
X0169891Y0079829D01*
X0169891Y0081427D02*
X0131391Y0081427D01*
X0131391Y0083026D02*
X0169891Y0083026D01*
X0169891Y0084624D02*
X0131391Y0084624D01*
X0130924Y0086223D02*
X0169891Y0086223D01*
X0169891Y0087821D02*
X0129325Y0087821D01*
X0127727Y0089420D02*
X0169891Y0089420D01*
X0169891Y0091018D02*
X0125692Y0091018D01*
X0124850Y0088336D02*
X0128591Y0084596D01*
X0128591Y0068454D01*
X0136858Y0068454D01*
X0128591Y0061368D02*
X0128000Y0060777D01*
X0141577Y0054252D02*
X0156147Y0054252D01*
X0155331Y0052654D02*
X0139978Y0052654D01*
X0139265Y0051055D02*
X0155331Y0051055D01*
X0155331Y0049457D02*
X0139265Y0049457D01*
X0139265Y0047858D02*
X0155331Y0047858D01*
X0155331Y0046260D02*
X0139350Y0046260D01*
X0139350Y0044661D02*
X0155331Y0044661D01*
X0155780Y0043063D02*
X0139197Y0043063D01*
X0132945Y0043063D02*
X0131473Y0043063D01*
X0131473Y0042667D02*
X0128394Y0042667D01*
X0128394Y0042667D01*
X0131473Y0042667D01*
X0131473Y0041464D02*
X0169891Y0041464D01*
X0169891Y0039866D02*
X0130467Y0039866D01*
X0128394Y0039866D02*
X0128394Y0039866D01*
X0128394Y0039686D02*
X0128394Y0042667D01*
X0128394Y0042667D01*
X0128394Y0039686D01*
X0128394Y0041464D02*
X0128394Y0041464D01*
X0131282Y0044661D02*
X0132676Y0044661D01*
X0116780Y0045029D02*
X0115363Y0022114D01*
X0110442Y0022114D02*
X0108906Y0033415D01*
X0104969Y0037352D01*
X0093157Y0037352D01*
X0089227Y0038267D02*
X0082481Y0038267D01*
X0080883Y0036669D02*
X0089176Y0036669D01*
X0089809Y0035070D02*
X0079284Y0035070D01*
X0077686Y0033472D02*
X0092122Y0033472D01*
X0094193Y0033472D02*
X0104889Y0033472D01*
X0106289Y0031873D02*
X0076087Y0031873D01*
X0074489Y0030275D02*
X0106507Y0030275D01*
X0106724Y0028676D02*
X0072890Y0028676D01*
X0071919Y0027078D02*
X0106941Y0027078D01*
X0106867Y0025479D02*
X0071568Y0025479D01*
X0071494Y0023881D02*
X0106867Y0023881D01*
X0106867Y0022282D02*
X0071494Y0022282D01*
X0067919Y0021914D02*
X0069535Y0029281D01*
X0085480Y0045226D01*
X0085480Y0055574D01*
X0085520Y0055574D01*
X0082420Y0055851D02*
X0052650Y0055851D01*
X0052650Y0057449D02*
X0057436Y0057449D01*
X0061071Y0061368D02*
X0061661Y0060777D01*
X0061071Y0061368D02*
X0049850Y0061368D01*
X0049850Y0052706D01*
X0042370Y0045226D01*
X0042370Y0052706D01*
X0038039Y0057037D01*
X0021521Y0057933D01*
X0016371Y0057449D02*
X0005400Y0057449D01*
X0005400Y0059048D02*
X0016371Y0059048D01*
X0016371Y0060646D02*
X0005400Y0060646D01*
X0005400Y0062245D02*
X0016371Y0062245D01*
X0016371Y0063843D02*
X0005400Y0063843D01*
X0005400Y0065442D02*
X0016555Y0065442D01*
X0018299Y0067040D02*
X0032479Y0067040D01*
X0037808Y0068639D02*
X0019190Y0068639D01*
X0019190Y0070237D02*
X0039406Y0070237D01*
X0041583Y0068454D02*
X0038039Y0064911D01*
X0021521Y0062855D01*
X0016371Y0055851D02*
X0005400Y0055851D01*
X0005400Y0054252D02*
X0036864Y0054252D01*
X0038463Y0052654D02*
X0019190Y0052654D01*
X0019190Y0051055D02*
X0039570Y0051055D01*
X0039570Y0049457D02*
X0019190Y0049457D01*
X0019190Y0047858D02*
X0039570Y0047858D01*
X0039091Y0046260D02*
X0019190Y0046260D01*
X0019190Y0044661D02*
X0039091Y0044661D01*
X0039244Y0043063D02*
X0019190Y0043063D01*
X0005400Y0041464D02*
X0046768Y0041464D01*
X0047559Y0039866D02*
X0005400Y0039866D01*
X0005400Y0038267D02*
X0060723Y0038267D01*
X0061617Y0036669D02*
X0005400Y0036669D01*
X0005400Y0035070D02*
X0062250Y0035070D01*
X0064563Y0033472D02*
X0005400Y0033472D01*
X0005400Y0031873D02*
X0068168Y0031873D01*
X0066634Y0033472D02*
X0069766Y0033472D01*
X0068947Y0035070D02*
X0071365Y0035070D01*
X0072963Y0036669D02*
X0069580Y0036669D01*
X0069528Y0038267D02*
X0074562Y0038267D01*
X0076160Y0039866D02*
X0068715Y0039866D01*
X0068859Y0041464D02*
X0069818Y0041464D01*
X0069818Y0043063D02*
X0068859Y0043063D01*
X0068859Y0044661D02*
X0069818Y0044661D01*
X0069339Y0045226D02*
X0069535Y0045423D01*
X0069535Y0049163D01*
X0065598Y0053100D01*
X0057724Y0053100D01*
X0052409Y0047785D01*
X0050047Y0047785D01*
X0052649Y0047785D01*
X0052649Y0047785D01*
X0050047Y0047785D01*
X0050047Y0047785D01*
X0053059Y0049457D02*
X0057749Y0049457D01*
X0052159Y0051055D02*
X0082680Y0051055D01*
X0082420Y0052654D02*
X0052650Y0052654D01*
X0052650Y0054252D02*
X0082420Y0054252D01*
X0082420Y0057449D02*
X0065886Y0057449D01*
X0066024Y0059048D02*
X0082466Y0059048D01*
X0083121Y0062245D02*
X0066024Y0062245D01*
X0066024Y0060646D02*
X0087288Y0060646D01*
X0082420Y0063843D02*
X0066024Y0063843D01*
X0065611Y0065442D02*
X0082420Y0065442D01*
X0082420Y0067040D02*
X0066024Y0067040D01*
X0066024Y0068639D02*
X0082420Y0068639D01*
X0082680Y0070237D02*
X0066024Y0070237D01*
X0066024Y0071836D02*
X0082680Y0071836D01*
X0082680Y0073434D02*
X0064461Y0073434D01*
X0064461Y0075033D02*
X0082680Y0075033D01*
X0082680Y0076632D02*
X0065777Y0076632D01*
X0066614Y0078230D02*
X0082680Y0078230D01*
X0081908Y0079829D02*
X0066614Y0079829D01*
X0066614Y0081427D02*
X0080921Y0081427D01*
X0077409Y0084596D02*
X0073472Y0088533D01*
X0061858Y0088533D01*
X0061661Y0088336D01*
X0053591Y0088336D01*
X0049850Y0084596D01*
X0049850Y0068454D01*
X0041583Y0068454D01*
X0047050Y0071836D02*
X0019190Y0071836D01*
X0019190Y0073434D02*
X0047050Y0073434D01*
X0047050Y0075033D02*
X0019190Y0075033D01*
X0019190Y0076632D02*
X0047050Y0076632D01*
X0047050Y0078230D02*
X0018816Y0078230D01*
X0005400Y0079829D02*
X0047050Y0079829D01*
X0047050Y0081427D02*
X0005400Y0081427D01*
X0005400Y0083026D02*
X0047050Y0083026D01*
X0047050Y0084624D02*
X0005400Y0084624D01*
X0005400Y0086223D02*
X0047517Y0086223D01*
X0049116Y0087821D02*
X0005400Y0087821D01*
X0005400Y0089420D02*
X0050714Y0089420D01*
X0052749Y0091018D02*
X0005400Y0091018D01*
X0005400Y0092617D02*
X0057602Y0092617D01*
X0065721Y0092617D02*
X0112720Y0092617D01*
X0107588Y0091018D02*
X0074790Y0091018D01*
X0076546Y0089420D02*
X0081964Y0089420D01*
X0080921Y0087821D02*
X0078144Y0087821D01*
X0077409Y0084596D02*
X0085480Y0084596D01*
X0085480Y0066374D01*
X0085520Y0066374D01*
X0093157Y0058737D01*
X0095054Y0058737D01*
X0102469Y0064714D01*
X0102469Y0082096D01*
X0108906Y0088533D01*
X0116583Y0088533D01*
X0116780Y0088336D01*
X0124850Y0088336D01*
X0120839Y0092617D02*
X0169891Y0092617D01*
X0116780Y0080856D02*
X0116780Y0069045D01*
X0112417Y0068639D02*
X0106884Y0068639D01*
X0105268Y0070237D02*
X0112417Y0070237D01*
X0112417Y0071836D02*
X0105268Y0071836D01*
X0105268Y0073434D02*
X0113980Y0073434D01*
X0113980Y0075033D02*
X0105268Y0075033D01*
X0105268Y0076632D02*
X0112664Y0076632D01*
X0111827Y0078230D02*
X0105268Y0078230D01*
X0105268Y0079829D02*
X0111827Y0079829D01*
X0111827Y0081427D02*
X0105759Y0081427D01*
X0107358Y0083026D02*
X0111827Y0083026D01*
X0112151Y0084624D02*
X0108956Y0084624D01*
X0104234Y0087821D02*
X0097520Y0087821D01*
X0097520Y0086223D02*
X0102635Y0086223D01*
X0101037Y0084624D02*
X0097520Y0084624D01*
X0097520Y0083026D02*
X0099823Y0083026D01*
X0099669Y0081427D02*
X0097520Y0081427D01*
X0096533Y0079829D02*
X0099669Y0079829D01*
X0099669Y0078230D02*
X0095761Y0078230D01*
X0095761Y0076632D02*
X0099669Y0076632D01*
X0099669Y0075033D02*
X0095761Y0075033D01*
X0095761Y0073434D02*
X0099669Y0073434D01*
X0099669Y0071836D02*
X0095761Y0071836D01*
X0095761Y0070237D02*
X0099669Y0070237D01*
X0098053Y0068639D02*
X0096020Y0068639D01*
X0096020Y0067040D02*
X0097516Y0067040D01*
X0097516Y0065442D02*
X0096020Y0065442D01*
X0096020Y0063843D02*
X0096927Y0063843D01*
X0092961Y0066374D02*
X0092961Y0084596D01*
X0096477Y0089420D02*
X0105832Y0089420D01*
X0089444Y0089420D02*
X0088997Y0089420D01*
X0075020Y0083026D02*
X0066614Y0083026D01*
X0066290Y0084624D02*
X0073422Y0084624D01*
X0061661Y0080856D02*
X0061661Y0069045D01*
X0085520Y0066374D02*
X0085520Y0064674D01*
X0092920Y0066374D02*
X0092961Y0066374D01*
X0093157Y0058737D02*
X0093157Y0055811D01*
X0092920Y0055574D01*
X0096020Y0055851D02*
X0097716Y0055851D01*
X0097765Y0054252D02*
X0096020Y0054252D01*
X0101989Y0054252D02*
X0102948Y0054252D01*
X0102948Y0055851D02*
X0101989Y0055851D01*
X0101989Y0057449D02*
X0097918Y0057449D01*
X0102948Y0057449D02*
X0112554Y0057449D01*
X0112417Y0059048D02*
X0107221Y0059048D01*
X0107007Y0060646D02*
X0112417Y0060646D01*
X0112417Y0062245D02*
X0107421Y0062245D01*
X0107421Y0063843D02*
X0112417Y0063843D01*
X0112830Y0065442D02*
X0107421Y0065442D01*
X0107421Y0067040D02*
X0112417Y0067040D01*
X0089221Y0054252D02*
X0089220Y0054252D01*
X0089220Y0052654D02*
X0089221Y0052654D01*
X0088280Y0051055D02*
X0090911Y0051055D01*
X0092481Y0049457D02*
X0093440Y0049457D01*
X0093440Y0047858D02*
X0092481Y0047858D01*
X0092481Y0046260D02*
X0093440Y0046260D01*
X0097320Y0046260D02*
X0104743Y0046260D01*
X0104743Y0044661D02*
X0097320Y0044661D01*
X0097320Y0043063D02*
X0104743Y0043063D01*
X0104932Y0041464D02*
X0097131Y0041464D01*
X0090041Y0039866D02*
X0084080Y0039866D01*
X0079357Y0043063D02*
X0073698Y0043063D01*
X0073698Y0044661D02*
X0080921Y0044661D01*
X0080921Y0046260D02*
X0073698Y0046260D01*
X0073698Y0045706D02*
X0073698Y0048416D01*
X0073575Y0048874D01*
X0073338Y0049284D01*
X0073003Y0049619D01*
X0072592Y0049856D01*
X0072135Y0049979D01*
X0069818Y0049979D01*
X0069818Y0045706D01*
X0073698Y0045706D01*
X0073698Y0047858D02*
X0080921Y0047858D01*
X0081371Y0049457D02*
X0073165Y0049457D01*
X0069818Y0049457D02*
X0068859Y0049457D01*
X0068859Y0047858D02*
X0069818Y0047858D01*
X0069818Y0046260D02*
X0068859Y0046260D01*
X0061858Y0045226D02*
X0061858Y0041092D01*
X0065598Y0037352D01*
X0059336Y0039866D02*
X0052535Y0039866D01*
X0053985Y0041464D02*
X0057299Y0041464D01*
X0053787Y0045226D02*
X0051228Y0042667D01*
X0050047Y0042667D01*
X0046768Y0043063D02*
X0045496Y0043063D01*
X0045765Y0044661D02*
X0046768Y0044661D01*
X0053787Y0045226D02*
X0061858Y0045226D01*
X0073509Y0041464D02*
X0077759Y0041464D01*
X0096787Y0049457D02*
X0105276Y0049457D01*
X0104743Y0047858D02*
X0097320Y0047858D01*
X0108623Y0047858D02*
X0109582Y0047858D01*
X0109582Y0049457D02*
X0108623Y0049457D01*
X0108623Y0046260D02*
X0109582Y0046260D01*
X0109582Y0044661D02*
X0108623Y0044661D01*
X0108623Y0043063D02*
X0109582Y0043063D01*
X0109582Y0041464D02*
X0108623Y0041464D01*
X0106216Y0039866D02*
X0113655Y0039866D01*
X0113556Y0038267D02*
X0108013Y0038267D01*
X0109612Y0036669D02*
X0113457Y0036669D01*
X0113359Y0035070D02*
X0111210Y0035070D01*
X0111724Y0033472D02*
X0113260Y0033472D01*
X0113161Y0031873D02*
X0111941Y0031873D01*
X0112158Y0030275D02*
X0113062Y0030275D01*
X0112963Y0028676D02*
X0112375Y0028676D01*
X0094743Y0019085D02*
X0083418Y0019085D01*
X0084092Y0017487D02*
X0094269Y0017487D01*
X0094269Y0015888D02*
X0084092Y0015888D01*
X0084092Y0014290D02*
X0094269Y0014290D01*
X0094269Y0012691D02*
X0084092Y0012691D01*
X0084092Y0011093D02*
X0094269Y0011093D01*
X0094269Y0009494D02*
X0084092Y0009494D01*
X0084092Y0007896D02*
X0094269Y0007896D01*
X0094269Y0006297D02*
X0084092Y0006297D01*
X0071825Y0006297D02*
X0059092Y0006297D01*
X0059092Y0007896D02*
X0071825Y0007896D01*
X0071825Y0009494D02*
X0059092Y0009494D01*
X0059092Y0011093D02*
X0071825Y0011093D01*
X0071825Y0012691D02*
X0059092Y0012691D01*
X0059092Y0014290D02*
X0071825Y0014290D01*
X0062998Y0017487D02*
X0062998Y0017487D01*
X0062998Y0019085D02*
X0062998Y0019085D01*
X0062998Y0020684D02*
X0062998Y0020684D01*
X0062998Y0022282D02*
X0062998Y0022282D01*
X0062998Y0023881D02*
X0062998Y0023881D01*
X0062998Y0025479D02*
X0062998Y0025479D01*
X0059671Y0025479D02*
X0005400Y0025479D01*
X0005400Y0023881D02*
X0059623Y0023881D01*
X0059623Y0022282D02*
X0005400Y0022282D01*
X0005400Y0020684D02*
X0059623Y0020684D01*
X0066185Y0027078D02*
X0005400Y0027078D01*
X0005400Y0028676D02*
X0066536Y0028676D01*
X0066887Y0030275D02*
X0005400Y0030275D01*
X0106536Y0014290D02*
X0119269Y0014290D01*
X0119269Y0012691D02*
X0106536Y0012691D01*
X0106536Y0011093D02*
X0119269Y0011093D01*
X0119269Y0009494D02*
X0106536Y0009494D01*
X0106536Y0007896D02*
X0119269Y0007896D01*
X0119269Y0006297D02*
X0106536Y0006297D01*
D12*
X0109102Y0045226D03*
X0116583Y0045226D03*
X0092961Y0045226D03*
X0085480Y0045226D03*
X0069339Y0045226D03*
X0061858Y0045226D03*
X0085480Y0084596D03*
X0092961Y0084596D03*
D13*
X0116780Y0080856D03*
X0116780Y0088336D03*
X0102469Y0064714D03*
X0102469Y0057234D03*
X0061661Y0080856D03*
X0061661Y0088336D03*
D14*
X0061661Y0069045D03*
X0061661Y0060777D03*
X0116780Y0060777D03*
X0116780Y0069045D03*
D15*
X0128591Y0068454D03*
X0128591Y0061368D03*
X0049850Y0061368D03*
X0049850Y0068454D03*
D16*
X0050047Y0047785D03*
X0042370Y0045226D03*
X0050047Y0042667D03*
X0128394Y0042667D03*
X0136071Y0045226D03*
X0128394Y0047785D03*
D17*
X0163236Y0048474D03*
X0163236Y0073474D03*
X0011285Y0072894D03*
X0011285Y0047894D03*
D18*
X0021521Y0057933D03*
X0021521Y0062855D03*
X0153000Y0063435D03*
X0153000Y0058513D03*
D19*
X0092920Y0055574D03*
X0089220Y0055574D03*
X0085520Y0055574D03*
X0085520Y0066374D03*
X0092920Y0066374D03*
D20*
X0100403Y0011877D03*
X0077958Y0011677D03*
X0052958Y0011677D03*
X0125403Y0011877D03*
D21*
X0115363Y0022114D03*
X0110442Y0022114D03*
X0067919Y0021914D03*
X0062998Y0021914D03*
D22*
X0065598Y0037352D03*
X0093157Y0037352D03*
X0101031Y0045226D03*
X0127868Y0034243D03*
X0073472Y0060974D03*
M02*
