G75*
%MOIN*%
%OFA0B0*%
%FSLAX25Y25*%
%IPPOS*%
%LPD*%
%AMOC8*
5,1,8,0,0,1.08239X$1,22.5*
%
%ADD10R,0.05118X0.05906*%
%ADD11R,0.05906X0.05118*%
%ADD12R,0.04724X0.04724*%
%ADD13R,0.03150X0.02756*%
%ADD14R,0.02559X0.02362*%
%ADD15R,0.11811X0.08268*%
%ADD16R,0.06299X0.03150*%
%ADD17R,0.02200X0.05200*%
%ADD18R,0.08268X0.11811*%
%ADD19R,0.03150X0.06299*%
D10*
X0061858Y0045226D03*
X0069339Y0045226D03*
X0085480Y0045226D03*
X0092961Y0045226D03*
X0109102Y0045226D03*
X0116583Y0045226D03*
X0092961Y0084596D03*
X0085480Y0084596D03*
D11*
X0061661Y0080856D03*
X0061661Y0088336D03*
X0102469Y0064714D03*
X0102469Y0057234D03*
X0116780Y0080856D03*
X0116780Y0088336D03*
D12*
X0116780Y0069045D03*
X0116780Y0060777D03*
X0061661Y0060777D03*
X0061661Y0069045D03*
D13*
X0049850Y0068454D03*
X0049850Y0061368D03*
X0128591Y0061368D03*
X0128591Y0068454D03*
D14*
X0128394Y0047785D03*
X0136071Y0045226D03*
X0128394Y0042667D03*
X0050047Y0042667D03*
X0042370Y0045226D03*
X0050047Y0047785D03*
D15*
X0011285Y0047894D03*
X0011285Y0072894D03*
X0163236Y0073474D03*
X0163236Y0048474D03*
D16*
X0153000Y0058513D03*
X0153000Y0063435D03*
X0021521Y0062855D03*
X0021521Y0057933D03*
D17*
X0085520Y0055574D03*
X0089220Y0055574D03*
X0092920Y0055574D03*
X0092920Y0066374D03*
X0085520Y0066374D03*
D18*
X0052958Y0011677D03*
X0077958Y0011677D03*
X0100403Y0011877D03*
X0125403Y0011877D03*
D19*
X0115363Y0022114D03*
X0110442Y0022114D03*
X0067919Y0021914D03*
X0062998Y0021914D03*
M02*
