G75*
%MOIN*%
%OFA0B0*%
%FSLAX25Y25*%
%IPPOS*%
%LPD*%
%AMOC8*
5,1,8,0,0,1.08239X$1,22.5*
%
%ADD10C,0.00000*%
%ADD11C,0.01600*%
%ADD12R,0.07874X0.03150*%
%ADD13R,0.03150X0.07874*%
%ADD14C,0.03937*%
%ADD15C,0.03937*%
%ADD16C,0.04724*%
%ADD17R,0.04724X0.04724*%
%ADD18R,0.05906X0.05118*%
%ADD19R,0.05118X0.05906*%
%ADD20R,0.02200X0.05200*%
%ADD21R,0.04600X0.01400*%
%ADD22R,0.03150X0.02756*%
%ADD23R,0.02165X0.05906*%
%ADD24R,0.05906X0.02165*%
%ADD25R,0.13780X0.04724*%
%ADD26R,0.08268X0.11811*%
%ADD27R,0.03150X0.06299*%
%ADD28R,0.11811X0.08268*%
%ADD29R,0.06299X0.03150*%
%ADD30R,0.02559X0.02362*%
%ADD31R,0.04724X0.11811*%
%ADD32C,0.05937*%
%ADD33C,0.06000*%
%ADD34C,0.01000*%
%ADD35C,0.03569*%
%ADD36C,0.01200*%
D10*
X0037200Y0037500D02*
X0037200Y0196350D01*
X0273901Y0196350D01*
X0273901Y0037500D01*
X0037200Y0037500D01*
X0084160Y0190445D02*
X0084162Y0190529D01*
X0084168Y0190612D01*
X0084178Y0190695D01*
X0084192Y0190778D01*
X0084209Y0190860D01*
X0084231Y0190941D01*
X0084256Y0191020D01*
X0084285Y0191099D01*
X0084318Y0191176D01*
X0084354Y0191251D01*
X0084394Y0191325D01*
X0084437Y0191397D01*
X0084484Y0191466D01*
X0084534Y0191533D01*
X0084587Y0191598D01*
X0084643Y0191660D01*
X0084701Y0191720D01*
X0084763Y0191777D01*
X0084827Y0191830D01*
X0084894Y0191881D01*
X0084963Y0191928D01*
X0085034Y0191973D01*
X0085107Y0192013D01*
X0085182Y0192050D01*
X0085259Y0192084D01*
X0085337Y0192114D01*
X0085416Y0192140D01*
X0085497Y0192163D01*
X0085579Y0192181D01*
X0085661Y0192196D01*
X0085744Y0192207D01*
X0085827Y0192214D01*
X0085911Y0192217D01*
X0085995Y0192216D01*
X0086078Y0192211D01*
X0086162Y0192202D01*
X0086244Y0192189D01*
X0086326Y0192173D01*
X0086407Y0192152D01*
X0086488Y0192128D01*
X0086566Y0192100D01*
X0086644Y0192068D01*
X0086720Y0192032D01*
X0086794Y0191993D01*
X0086866Y0191951D01*
X0086936Y0191905D01*
X0087004Y0191856D01*
X0087069Y0191804D01*
X0087132Y0191749D01*
X0087192Y0191691D01*
X0087250Y0191630D01*
X0087304Y0191566D01*
X0087356Y0191500D01*
X0087404Y0191432D01*
X0087449Y0191361D01*
X0087490Y0191288D01*
X0087529Y0191214D01*
X0087563Y0191138D01*
X0087594Y0191060D01*
X0087621Y0190981D01*
X0087645Y0190900D01*
X0087664Y0190819D01*
X0087680Y0190737D01*
X0087692Y0190654D01*
X0087700Y0190570D01*
X0087704Y0190487D01*
X0087704Y0190403D01*
X0087700Y0190320D01*
X0087692Y0190236D01*
X0087680Y0190153D01*
X0087664Y0190071D01*
X0087645Y0189990D01*
X0087621Y0189909D01*
X0087594Y0189830D01*
X0087563Y0189752D01*
X0087529Y0189676D01*
X0087490Y0189602D01*
X0087449Y0189529D01*
X0087404Y0189458D01*
X0087356Y0189390D01*
X0087304Y0189324D01*
X0087250Y0189260D01*
X0087192Y0189199D01*
X0087132Y0189141D01*
X0087069Y0189086D01*
X0087004Y0189034D01*
X0086936Y0188985D01*
X0086866Y0188939D01*
X0086794Y0188897D01*
X0086720Y0188858D01*
X0086644Y0188822D01*
X0086566Y0188790D01*
X0086488Y0188762D01*
X0086407Y0188738D01*
X0086326Y0188717D01*
X0086244Y0188701D01*
X0086162Y0188688D01*
X0086078Y0188679D01*
X0085995Y0188674D01*
X0085911Y0188673D01*
X0085827Y0188676D01*
X0085744Y0188683D01*
X0085661Y0188694D01*
X0085579Y0188709D01*
X0085497Y0188727D01*
X0085416Y0188750D01*
X0085337Y0188776D01*
X0085259Y0188806D01*
X0085182Y0188840D01*
X0085107Y0188877D01*
X0085034Y0188917D01*
X0084963Y0188962D01*
X0084894Y0189009D01*
X0084827Y0189060D01*
X0084763Y0189113D01*
X0084701Y0189170D01*
X0084643Y0189230D01*
X0084587Y0189292D01*
X0084534Y0189357D01*
X0084484Y0189424D01*
X0084437Y0189493D01*
X0084394Y0189565D01*
X0084354Y0189639D01*
X0084318Y0189714D01*
X0084285Y0189791D01*
X0084256Y0189870D01*
X0084231Y0189949D01*
X0084209Y0190030D01*
X0084192Y0190112D01*
X0084178Y0190195D01*
X0084168Y0190278D01*
X0084162Y0190361D01*
X0084160Y0190445D01*
X0110932Y0190445D02*
X0110934Y0190529D01*
X0110940Y0190612D01*
X0110950Y0190695D01*
X0110964Y0190778D01*
X0110981Y0190860D01*
X0111003Y0190941D01*
X0111028Y0191020D01*
X0111057Y0191099D01*
X0111090Y0191176D01*
X0111126Y0191251D01*
X0111166Y0191325D01*
X0111209Y0191397D01*
X0111256Y0191466D01*
X0111306Y0191533D01*
X0111359Y0191598D01*
X0111415Y0191660D01*
X0111473Y0191720D01*
X0111535Y0191777D01*
X0111599Y0191830D01*
X0111666Y0191881D01*
X0111735Y0191928D01*
X0111806Y0191973D01*
X0111879Y0192013D01*
X0111954Y0192050D01*
X0112031Y0192084D01*
X0112109Y0192114D01*
X0112188Y0192140D01*
X0112269Y0192163D01*
X0112351Y0192181D01*
X0112433Y0192196D01*
X0112516Y0192207D01*
X0112599Y0192214D01*
X0112683Y0192217D01*
X0112767Y0192216D01*
X0112850Y0192211D01*
X0112934Y0192202D01*
X0113016Y0192189D01*
X0113098Y0192173D01*
X0113179Y0192152D01*
X0113260Y0192128D01*
X0113338Y0192100D01*
X0113416Y0192068D01*
X0113492Y0192032D01*
X0113566Y0191993D01*
X0113638Y0191951D01*
X0113708Y0191905D01*
X0113776Y0191856D01*
X0113841Y0191804D01*
X0113904Y0191749D01*
X0113964Y0191691D01*
X0114022Y0191630D01*
X0114076Y0191566D01*
X0114128Y0191500D01*
X0114176Y0191432D01*
X0114221Y0191361D01*
X0114262Y0191288D01*
X0114301Y0191214D01*
X0114335Y0191138D01*
X0114366Y0191060D01*
X0114393Y0190981D01*
X0114417Y0190900D01*
X0114436Y0190819D01*
X0114452Y0190737D01*
X0114464Y0190654D01*
X0114472Y0190570D01*
X0114476Y0190487D01*
X0114476Y0190403D01*
X0114472Y0190320D01*
X0114464Y0190236D01*
X0114452Y0190153D01*
X0114436Y0190071D01*
X0114417Y0189990D01*
X0114393Y0189909D01*
X0114366Y0189830D01*
X0114335Y0189752D01*
X0114301Y0189676D01*
X0114262Y0189602D01*
X0114221Y0189529D01*
X0114176Y0189458D01*
X0114128Y0189390D01*
X0114076Y0189324D01*
X0114022Y0189260D01*
X0113964Y0189199D01*
X0113904Y0189141D01*
X0113841Y0189086D01*
X0113776Y0189034D01*
X0113708Y0188985D01*
X0113638Y0188939D01*
X0113566Y0188897D01*
X0113492Y0188858D01*
X0113416Y0188822D01*
X0113338Y0188790D01*
X0113260Y0188762D01*
X0113179Y0188738D01*
X0113098Y0188717D01*
X0113016Y0188701D01*
X0112934Y0188688D01*
X0112850Y0188679D01*
X0112767Y0188674D01*
X0112683Y0188673D01*
X0112599Y0188676D01*
X0112516Y0188683D01*
X0112433Y0188694D01*
X0112351Y0188709D01*
X0112269Y0188727D01*
X0112188Y0188750D01*
X0112109Y0188776D01*
X0112031Y0188806D01*
X0111954Y0188840D01*
X0111879Y0188877D01*
X0111806Y0188917D01*
X0111735Y0188962D01*
X0111666Y0189009D01*
X0111599Y0189060D01*
X0111535Y0189113D01*
X0111473Y0189170D01*
X0111415Y0189230D01*
X0111359Y0189292D01*
X0111306Y0189357D01*
X0111256Y0189424D01*
X0111209Y0189493D01*
X0111166Y0189565D01*
X0111126Y0189639D01*
X0111090Y0189714D01*
X0111057Y0189791D01*
X0111028Y0189870D01*
X0111003Y0189949D01*
X0110981Y0190030D01*
X0110964Y0190112D01*
X0110950Y0190195D01*
X0110940Y0190278D01*
X0110934Y0190361D01*
X0110932Y0190445D01*
D11*
X0109161Y0178634D02*
X0109161Y0170481D01*
X0104700Y0166020D01*
X0089560Y0166020D01*
X0087460Y0163920D01*
X0087460Y0160090D01*
X0087468Y0160083D01*
X0075783Y0160083D01*
X0075200Y0159500D02*
X0075200Y0155443D01*
X0071459Y0152443D01*
X0071459Y0141643D02*
X0071459Y0133091D01*
X0071499Y0133051D02*
X0080751Y0133051D01*
X0080751Y0132949D01*
X0080894Y0133091D02*
X0085791Y0133091D01*
X0089200Y0136500D01*
X0089200Y0144500D01*
X0096200Y0151500D01*
X0110200Y0151500D01*
X0124200Y0165500D01*
X0170200Y0165500D01*
X0181200Y0154500D01*
X0181200Y0122500D01*
X0184200Y0119500D01*
X0184200Y0093500D01*
X0197200Y0080500D01*
X0198913Y0074533D02*
X0209443Y0074533D01*
X0211649Y0072327D01*
X0211649Y0054413D01*
X0210665Y0053429D01*
X0203775Y0054020D02*
X0203775Y0058547D01*
X0206924Y0061697D01*
X0206924Y0064453D01*
X0206924Y0071539D02*
X0206531Y0071933D01*
X0191313Y0071933D01*
X0188027Y0071933D01*
X0186452Y0070358D01*
X0186452Y0062681D01*
X0187436Y0061697D01*
X0187436Y0053429D01*
X0194917Y0053429D02*
X0203184Y0053429D01*
X0203184Y0048007D01*
X0199337Y0043854D01*
X0203184Y0053429D02*
X0203775Y0054020D01*
X0245504Y0054065D02*
X0245504Y0049879D01*
X0247597Y0047786D01*
X0249690Y0049879D01*
X0249690Y0054065D01*
X0252754Y0051972D02*
X0254847Y0054065D01*
X0254847Y0047786D01*
X0252754Y0047786D02*
X0256941Y0047786D01*
X0260005Y0047786D02*
X0261051Y0047786D01*
X0261051Y0048833D01*
X0260005Y0048833D01*
X0260005Y0047786D01*
X0263630Y0048833D02*
X0263630Y0053019D01*
X0264676Y0054065D01*
X0266769Y0054065D01*
X0267816Y0053019D01*
X0263630Y0048833D01*
X0264676Y0047786D01*
X0266769Y0047786D01*
X0267816Y0048833D01*
X0267816Y0053019D01*
X0146720Y0104980D02*
X0127822Y0123878D01*
X0120700Y0131000D01*
X0114822Y0136878D01*
X0114322Y0136378D01*
X0111680Y0133736D01*
X0110302Y0133736D01*
X0111680Y0133736D02*
X0111680Y0130587D01*
X0111680Y0127437D01*
X0111680Y0124287D01*
X0111680Y0121138D02*
X0108062Y0121138D01*
X0105500Y0123700D01*
X0105500Y0127500D01*
X0104200Y0128800D01*
X0099821Y0128800D01*
X0099405Y0129217D01*
X0093200Y0119500D02*
X0093200Y0099500D01*
X0093200Y0095500D01*
X0108200Y0080500D01*
X0118633Y0080500D01*
X0119861Y0111689D02*
X0124672Y0116500D01*
X0124672Y0120350D01*
X0127822Y0123500D01*
X0114822Y0136878D02*
X0118373Y0140429D01*
X0114200Y0137500D02*
X0110200Y0141500D01*
X0106413Y0141500D01*
X0084700Y0128000D02*
X0093200Y0119500D01*
X0084700Y0128000D02*
X0079649Y0133051D01*
X0064059Y0133091D02*
X0064059Y0141643D01*
X0064200Y0164500D02*
X0068420Y0164500D01*
X0068570Y0164650D01*
X0064200Y0164500D02*
X0062763Y0165937D01*
X0056098Y0165937D01*
X0056098Y0170858D02*
X0062842Y0170858D01*
X0064200Y0169500D01*
X0068302Y0169500D01*
X0068570Y0169768D02*
X0072468Y0169768D01*
X0076200Y0173500D01*
X0082200Y0173500D01*
X0086200Y0169500D01*
X0097200Y0169500D01*
X0099200Y0171500D01*
X0099200Y0178516D01*
X0109161Y0178634D02*
X0138228Y0178634D01*
X0138228Y0177453D01*
D12*
X0216216Y0123144D03*
X0216216Y0118420D03*
X0216216Y0113695D03*
X0216216Y0108971D03*
X0216216Y0104246D03*
X0216216Y0099522D03*
D13*
X0226058Y0088695D03*
X0230783Y0088695D03*
X0235507Y0088695D03*
X0240231Y0088695D03*
X0244956Y0088695D03*
X0249680Y0088695D03*
X0254405Y0088695D03*
X0259129Y0088695D03*
X0259129Y0133971D03*
X0254405Y0133971D03*
X0249680Y0133971D03*
X0244956Y0133971D03*
X0240231Y0133971D03*
X0235507Y0133971D03*
X0230783Y0133971D03*
X0226058Y0133971D03*
D14*
X0220940Y0129443D03*
X0220940Y0093026D03*
D15*
X0265035Y0091845D02*
X0265035Y0091845D01*
X0267397Y0091845D01*
X0267397Y0091845D01*
X0265035Y0091845D01*
X0265035Y0130821D02*
X0265035Y0130821D01*
X0267397Y0130821D01*
X0267397Y0130821D01*
X0265035Y0130821D01*
D16*
X0216216Y0133971D03*
X0216216Y0088695D03*
D17*
X0200326Y0095209D03*
X0192058Y0095209D03*
X0191680Y0111209D03*
X0199948Y0111209D03*
X0199830Y0134791D03*
X0191562Y0134791D03*
X0169050Y0146673D03*
X0169050Y0154941D03*
X0066491Y0182311D03*
X0066491Y0190579D03*
X0228381Y0045657D03*
X0236649Y0045657D03*
D18*
X0173121Y0111783D03*
X0173121Y0119264D03*
X0161444Y0147280D03*
X0161444Y0154760D03*
X0131128Y0158459D03*
X0131128Y0150979D03*
X0099405Y0129217D03*
X0099405Y0121736D03*
X0080751Y0132949D03*
X0080751Y0140429D03*
X0065184Y0120059D03*
X0065184Y0112579D03*
X0118869Y0080264D03*
X0118869Y0072783D03*
X0225610Y0153159D03*
X0225610Y0160639D03*
X0074685Y0182590D03*
X0074685Y0190070D03*
D19*
X0087468Y0160083D03*
X0094948Y0160083D03*
X0098822Y0141610D03*
X0106302Y0141610D03*
X0081554Y0120862D03*
X0074074Y0120862D03*
X0074074Y0112382D03*
X0081554Y0112382D03*
X0071499Y0133051D03*
X0064019Y0133051D03*
X0130885Y0063122D03*
X0138365Y0063122D03*
X0146972Y0063098D03*
X0154452Y0063098D03*
X0187436Y0061697D03*
X0194917Y0061697D03*
X0194917Y0053429D03*
X0187436Y0053429D03*
X0203184Y0053429D03*
X0210665Y0053429D03*
X0228775Y0054531D03*
X0236255Y0054531D03*
X0253690Y0075472D03*
X0261170Y0075472D03*
X0199869Y0103335D03*
X0192389Y0103335D03*
X0192011Y0118335D03*
X0199491Y0118335D03*
X0199649Y0127776D03*
X0192169Y0127776D03*
D20*
X0071459Y0141643D03*
X0064059Y0141643D03*
X0064059Y0152443D03*
X0067759Y0152443D03*
X0071459Y0152443D03*
D21*
X0191313Y0074533D03*
X0191313Y0071933D03*
X0191313Y0069333D03*
X0198913Y0069333D03*
X0198913Y0074533D03*
D22*
X0206924Y0071539D03*
X0206924Y0064453D03*
D23*
X0149869Y0095547D03*
X0146720Y0095547D03*
X0143570Y0095547D03*
X0140420Y0095547D03*
X0137271Y0095547D03*
X0134121Y0095547D03*
X0130972Y0095547D03*
X0127822Y0095547D03*
X0124672Y0095547D03*
X0121523Y0095547D03*
X0118373Y0095547D03*
X0118373Y0140429D03*
X0121523Y0140429D03*
X0124672Y0140429D03*
X0127822Y0140429D03*
X0130972Y0140429D03*
X0134121Y0140429D03*
X0137271Y0140429D03*
X0140420Y0140429D03*
X0143570Y0140429D03*
X0146720Y0140429D03*
X0149869Y0140429D03*
D24*
X0156562Y0133736D03*
X0156562Y0130587D03*
X0156562Y0127437D03*
X0156562Y0124287D03*
X0156562Y0121138D03*
X0156562Y0117988D03*
X0156562Y0114839D03*
X0156562Y0111689D03*
X0156562Y0108539D03*
X0156562Y0105390D03*
X0156562Y0102240D03*
X0111680Y0102240D03*
X0111680Y0105390D03*
X0111680Y0108539D03*
X0111680Y0111689D03*
X0111680Y0114839D03*
X0111680Y0117988D03*
X0111680Y0121138D03*
X0111680Y0124287D03*
X0111680Y0127437D03*
X0111680Y0130587D03*
X0111680Y0133736D03*
D25*
X0131680Y0076144D03*
X0153334Y0076144D03*
D26*
X0085700Y0045550D03*
X0060700Y0045550D03*
X0128188Y0187689D03*
X0153188Y0187689D03*
X0164558Y0187689D03*
X0189558Y0187689D03*
D27*
X0179519Y0177453D03*
X0174598Y0177453D03*
X0143149Y0177453D03*
X0138228Y0177453D03*
X0075661Y0055787D03*
X0070739Y0055787D03*
D28*
X0045861Y0155898D03*
X0045861Y0180898D03*
D29*
X0056098Y0170858D03*
X0056098Y0165937D03*
D30*
X0068570Y0164650D03*
X0076247Y0167209D03*
X0068570Y0169768D03*
D31*
X0089476Y0178634D03*
X0099318Y0178634D03*
X0109161Y0178634D03*
D32*
X0179652Y0043854D03*
X0199337Y0043854D03*
D33*
X0143500Y0042000D02*
X0143500Y0048000D01*
X0133500Y0048000D02*
X0133500Y0042000D01*
X0123500Y0042000D02*
X0123500Y0048000D01*
X0113500Y0048000D02*
X0113500Y0042000D01*
X0048000Y0067500D02*
X0042000Y0067500D01*
X0042000Y0077500D02*
X0048000Y0077500D01*
X0048000Y0087500D02*
X0042000Y0087500D01*
X0042000Y0097500D02*
X0048000Y0097500D01*
X0048000Y0107500D02*
X0042000Y0107500D01*
X0042000Y0117500D02*
X0048000Y0117500D01*
D34*
X0045000Y0117500D02*
X0058460Y0117500D01*
X0058460Y0117240D01*
X0063200Y0112500D01*
X0065106Y0112500D01*
X0065184Y0112579D01*
X0073877Y0112579D01*
X0074074Y0112382D01*
X0074074Y0120862D01*
X0081554Y0120862D02*
X0085838Y0120862D01*
X0087200Y0119500D01*
X0085613Y0119378D02*
X0090069Y0119378D01*
X0090900Y0118547D02*
X0090900Y0115351D01*
X0089853Y0115784D01*
X0088547Y0115784D01*
X0087340Y0115284D01*
X0086514Y0114459D01*
X0085613Y0114445D01*
X0085613Y0115956D01*
X0084924Y0116645D01*
X0085034Y0116709D01*
X0085314Y0116988D01*
X0085511Y0117330D01*
X0085613Y0117712D01*
X0085613Y0120362D01*
X0082054Y0120362D01*
X0082054Y0121362D01*
X0085613Y0121362D01*
X0085613Y0123834D01*
X0090900Y0118547D01*
X0090900Y0118379D02*
X0085613Y0118379D01*
X0085525Y0117381D02*
X0090900Y0117381D01*
X0090900Y0116382D02*
X0085187Y0116382D01*
X0085613Y0115384D02*
X0087580Y0115384D01*
X0090820Y0115384D02*
X0090900Y0115384D01*
X0089200Y0112500D02*
X0081554Y0112382D01*
X0082054Y0120376D02*
X0089071Y0120376D01*
X0088072Y0121375D02*
X0085613Y0121375D01*
X0085613Y0122373D02*
X0087074Y0122373D01*
X0086075Y0123372D02*
X0085613Y0123372D01*
X0083200Y0126500D02*
X0084700Y0128000D01*
X0083200Y0126500D02*
X0069200Y0126500D01*
X0065184Y0122484D01*
X0065184Y0120059D01*
X0063990Y0124118D02*
X0061610Y0124118D01*
X0060731Y0123239D01*
X0060731Y0117797D01*
X0060460Y0118069D01*
X0060460Y0118328D01*
X0059288Y0119500D01*
X0052042Y0119500D01*
X0051815Y0120049D01*
X0050549Y0121315D01*
X0048895Y0122000D01*
X0041105Y0122000D01*
X0039451Y0121315D01*
X0038700Y0120564D01*
X0038700Y0150898D01*
X0039335Y0150264D01*
X0052388Y0150264D01*
X0053267Y0151142D01*
X0053267Y0160653D01*
X0052388Y0161531D01*
X0039335Y0161531D01*
X0038700Y0160897D01*
X0038700Y0175898D01*
X0039335Y0175264D01*
X0052388Y0175264D01*
X0053267Y0176142D01*
X0053267Y0185653D01*
X0052388Y0186531D01*
X0039335Y0186531D01*
X0038700Y0185897D01*
X0038700Y0194850D01*
X0123189Y0194850D01*
X0122554Y0194216D01*
X0122554Y0181162D01*
X0122783Y0180934D01*
X0113023Y0180934D01*
X0113023Y0185161D01*
X0112144Y0186039D01*
X0106177Y0186039D01*
X0105298Y0185161D01*
X0105298Y0172107D01*
X0106177Y0171228D01*
X0106656Y0171228D01*
X0103747Y0168320D01*
X0099273Y0168320D01*
X0100153Y0169200D01*
X0101500Y0170547D01*
X0101500Y0171228D01*
X0102302Y0171228D01*
X0103180Y0172107D01*
X0103180Y0185161D01*
X0102302Y0186039D01*
X0096335Y0186039D01*
X0095456Y0185161D01*
X0095456Y0172107D01*
X0095763Y0171800D01*
X0093031Y0171800D01*
X0093338Y0172107D01*
X0093338Y0185161D01*
X0092459Y0186039D01*
X0086492Y0186039D01*
X0085613Y0185161D01*
X0085613Y0173339D01*
X0083153Y0175800D01*
X0075247Y0175800D01*
X0071515Y0172068D01*
X0070852Y0172068D01*
X0070471Y0172449D01*
X0067416Y0172449D01*
X0068060Y0172716D01*
X0068984Y0173640D01*
X0069484Y0174847D01*
X0069484Y0176153D01*
X0068984Y0177360D01*
X0068200Y0178145D01*
X0068200Y0178449D01*
X0069475Y0178449D01*
X0070354Y0179327D01*
X0070354Y0179419D01*
X0070532Y0179110D01*
X0070811Y0178830D01*
X0071153Y0178633D01*
X0071535Y0178531D01*
X0074185Y0178531D01*
X0074185Y0182090D01*
X0075185Y0182090D01*
X0075185Y0183090D01*
X0079138Y0183090D01*
X0079138Y0185346D01*
X0079036Y0185728D01*
X0078838Y0186070D01*
X0078578Y0186330D01*
X0079138Y0186890D01*
X0079138Y0193250D01*
X0078259Y0194129D01*
X0071111Y0194129D01*
X0070354Y0193372D01*
X0070354Y0193562D01*
X0069475Y0194441D01*
X0063508Y0194441D01*
X0062629Y0193562D01*
X0062629Y0187595D01*
X0063508Y0186717D01*
X0069475Y0186717D01*
X0070232Y0187474D01*
X0070232Y0186890D01*
X0070792Y0186330D01*
X0070532Y0186070D01*
X0070335Y0185728D01*
X0070247Y0185401D01*
X0069475Y0186173D01*
X0063508Y0186173D01*
X0062629Y0185295D01*
X0062629Y0179327D01*
X0063508Y0178449D01*
X0064200Y0178449D01*
X0064200Y0178145D01*
X0063416Y0177360D01*
X0062916Y0176153D01*
X0062916Y0174847D01*
X0063416Y0173640D01*
X0064340Y0172716D01*
X0065547Y0172216D01*
X0066436Y0172216D01*
X0066020Y0171800D01*
X0065153Y0171800D01*
X0063794Y0173158D01*
X0060643Y0173158D01*
X0059869Y0173933D01*
X0052327Y0173933D01*
X0051448Y0173054D01*
X0051448Y0168662D01*
X0051713Y0168398D01*
X0051448Y0168133D01*
X0051448Y0163741D01*
X0052327Y0162862D01*
X0059869Y0162862D01*
X0060643Y0163637D01*
X0061810Y0163637D01*
X0061900Y0163547D01*
X0063247Y0162200D01*
X0066438Y0162200D01*
X0066669Y0161969D01*
X0070471Y0161969D01*
X0071350Y0162847D01*
X0071350Y0166452D01*
X0070593Y0167209D01*
X0070852Y0167468D01*
X0073420Y0167468D01*
X0073468Y0167515D01*
X0073468Y0167299D01*
X0076157Y0167299D01*
X0076157Y0169890D01*
X0075842Y0169890D01*
X0077153Y0171200D01*
X0081247Y0171200D01*
X0083900Y0168547D01*
X0085247Y0167200D01*
X0087487Y0167200D01*
X0086507Y0166220D01*
X0085160Y0164873D01*
X0085160Y0164535D01*
X0084287Y0164535D01*
X0083409Y0163657D01*
X0083409Y0162383D01*
X0076823Y0162383D01*
X0075853Y0162784D01*
X0074547Y0162784D01*
X0073340Y0162284D01*
X0072416Y0161360D01*
X0071916Y0160153D01*
X0071916Y0158847D01*
X0072416Y0157640D01*
X0072900Y0157155D01*
X0072900Y0156547D01*
X0072895Y0156543D01*
X0069738Y0156543D01*
X0069563Y0156369D01*
X0069438Y0156441D01*
X0069057Y0156543D01*
X0067809Y0156543D01*
X0067809Y0152493D01*
X0067709Y0152493D01*
X0067709Y0156543D01*
X0066462Y0156543D01*
X0066080Y0156441D01*
X0065955Y0156369D01*
X0065780Y0156543D01*
X0062338Y0156543D01*
X0061459Y0155665D01*
X0061459Y0149222D01*
X0062059Y0148622D01*
X0062059Y0148215D01*
X0064531Y0145743D01*
X0062338Y0145743D01*
X0061459Y0144865D01*
X0061459Y0138422D01*
X0061759Y0138122D01*
X0061759Y0137504D01*
X0060839Y0137504D01*
X0059960Y0136625D01*
X0059960Y0129477D01*
X0060839Y0128598D01*
X0067199Y0128598D01*
X0067759Y0129158D01*
X0068319Y0128598D01*
X0074680Y0128598D01*
X0075558Y0129477D01*
X0075558Y0130751D01*
X0076298Y0130751D01*
X0076298Y0129768D01*
X0077177Y0128890D01*
X0080558Y0128890D01*
X0080947Y0128500D01*
X0068372Y0128500D01*
X0067200Y0127328D01*
X0063990Y0124118D01*
X0064242Y0124370D02*
X0038700Y0124370D01*
X0038700Y0123372D02*
X0060864Y0123372D01*
X0060731Y0122373D02*
X0038700Y0122373D01*
X0038700Y0121375D02*
X0039596Y0121375D01*
X0038700Y0125369D02*
X0065241Y0125369D01*
X0066239Y0126368D02*
X0038700Y0126368D01*
X0038700Y0127366D02*
X0067238Y0127366D01*
X0068236Y0128365D02*
X0038700Y0128365D01*
X0038700Y0129363D02*
X0060074Y0129363D01*
X0059960Y0130362D02*
X0038700Y0130362D01*
X0038700Y0131360D02*
X0059960Y0131360D01*
X0059960Y0132359D02*
X0038700Y0132359D01*
X0038700Y0133357D02*
X0059960Y0133357D01*
X0059960Y0134356D02*
X0038700Y0134356D01*
X0038700Y0135354D02*
X0059960Y0135354D01*
X0059960Y0136353D02*
X0038700Y0136353D01*
X0038700Y0137351D02*
X0060686Y0137351D01*
X0061531Y0138350D02*
X0038700Y0138350D01*
X0038700Y0139348D02*
X0061459Y0139348D01*
X0061459Y0140347D02*
X0038700Y0140347D01*
X0038700Y0141345D02*
X0061459Y0141345D01*
X0061459Y0142344D02*
X0038700Y0142344D01*
X0038700Y0143342D02*
X0061459Y0143342D01*
X0061459Y0144341D02*
X0038700Y0144341D01*
X0038700Y0145339D02*
X0061934Y0145339D01*
X0062938Y0147336D02*
X0038700Y0147336D01*
X0038700Y0146338D02*
X0063936Y0146338D01*
X0064059Y0149043D02*
X0071459Y0141643D01*
X0074059Y0141345D02*
X0076298Y0141345D01*
X0076298Y0140929D02*
X0076298Y0143186D01*
X0076401Y0143567D01*
X0076598Y0143909D01*
X0076877Y0144188D01*
X0077219Y0144386D01*
X0077601Y0144488D01*
X0080251Y0144488D01*
X0080251Y0140929D01*
X0080251Y0139929D01*
X0076298Y0139929D01*
X0076298Y0137673D01*
X0076401Y0137291D01*
X0076598Y0136949D01*
X0076858Y0136689D01*
X0076298Y0136129D01*
X0076298Y0135351D01*
X0075558Y0135351D01*
X0075558Y0136625D01*
X0074680Y0137504D01*
X0073759Y0137504D01*
X0073759Y0138122D01*
X0074059Y0138422D01*
X0074059Y0144865D01*
X0073180Y0145743D01*
X0070187Y0145743D01*
X0067587Y0148343D01*
X0067709Y0148343D01*
X0067709Y0152393D01*
X0067809Y0152393D01*
X0067809Y0148343D01*
X0069057Y0148343D01*
X0069438Y0148446D01*
X0069563Y0148518D01*
X0069738Y0148343D01*
X0073180Y0148343D01*
X0074059Y0149222D01*
X0074059Y0151580D01*
X0076008Y0153143D01*
X0076153Y0153143D01*
X0076737Y0153728D01*
X0077382Y0154245D01*
X0077398Y0154389D01*
X0077500Y0154491D01*
X0077500Y0155317D01*
X0077590Y0156139D01*
X0077500Y0156252D01*
X0077500Y0157155D01*
X0077984Y0157640D01*
X0078043Y0157783D01*
X0083409Y0157783D01*
X0083409Y0156509D01*
X0084287Y0155630D01*
X0090648Y0155630D01*
X0091208Y0156190D01*
X0091468Y0155930D01*
X0091810Y0155732D01*
X0092191Y0155630D01*
X0094448Y0155630D01*
X0094448Y0159583D01*
X0095448Y0159583D01*
X0095448Y0160583D01*
X0099007Y0160583D01*
X0099007Y0163233D01*
X0098905Y0163614D01*
X0098844Y0163720D01*
X0105653Y0163720D01*
X0107000Y0165067D01*
X0111461Y0169528D01*
X0111461Y0171228D01*
X0112144Y0171228D01*
X0113023Y0172107D01*
X0113023Y0176334D01*
X0135153Y0176334D01*
X0135153Y0173682D01*
X0136031Y0172803D01*
X0140424Y0172803D01*
X0140698Y0173077D01*
X0140995Y0172905D01*
X0141377Y0172803D01*
X0142861Y0172803D01*
X0142861Y0177165D01*
X0143436Y0177165D01*
X0143436Y0172803D01*
X0144921Y0172803D01*
X0145303Y0172905D01*
X0145645Y0173103D01*
X0145924Y0173382D01*
X0146121Y0173724D01*
X0146224Y0174106D01*
X0146224Y0177165D01*
X0143436Y0177165D01*
X0143436Y0177740D01*
X0142861Y0177740D01*
X0142861Y0182102D01*
X0141377Y0182102D01*
X0140995Y0182000D01*
X0140698Y0181828D01*
X0140424Y0182102D01*
X0136031Y0182102D01*
X0135153Y0181224D01*
X0135153Y0180934D01*
X0133594Y0180934D01*
X0133822Y0181162D01*
X0133822Y0194216D01*
X0133187Y0194850D01*
X0148189Y0194850D01*
X0147554Y0194216D01*
X0147554Y0181162D01*
X0148433Y0180283D01*
X0157943Y0180283D01*
X0158822Y0181162D01*
X0158822Y0194216D01*
X0158187Y0194850D01*
X0159559Y0194850D01*
X0158924Y0194216D01*
X0158924Y0181162D01*
X0159803Y0180283D01*
X0169313Y0180283D01*
X0170192Y0181162D01*
X0170192Y0194216D01*
X0169558Y0194850D01*
X0184559Y0194850D01*
X0183924Y0194216D01*
X0183924Y0181162D01*
X0184803Y0180283D01*
X0194313Y0180283D01*
X0195192Y0181162D01*
X0195192Y0194216D01*
X0194558Y0194850D01*
X0272401Y0194850D01*
X0272401Y0039000D01*
X0146864Y0039000D01*
X0146932Y0039068D01*
X0147349Y0039641D01*
X0147670Y0040273D01*
X0147889Y0040946D01*
X0148000Y0041646D01*
X0148000Y0044500D01*
X0144000Y0044500D01*
X0144000Y0045500D01*
X0143000Y0045500D01*
X0143000Y0052477D01*
X0142484Y0052395D01*
X0142484Y0053153D01*
X0141984Y0054360D01*
X0141060Y0055284D01*
X0139853Y0055784D01*
X0138547Y0055784D01*
X0137340Y0055284D01*
X0136416Y0054360D01*
X0135916Y0053153D01*
X0135916Y0051870D01*
X0134395Y0052500D01*
X0132605Y0052500D01*
X0131484Y0052036D01*
X0131484Y0053153D01*
X0130984Y0054360D01*
X0130060Y0055284D01*
X0128853Y0055784D01*
X0127547Y0055784D01*
X0126340Y0055284D01*
X0125416Y0054360D01*
X0124916Y0053153D01*
X0124916Y0052284D01*
X0124395Y0052500D01*
X0122605Y0052500D01*
X0120951Y0051815D01*
X0119685Y0050549D01*
X0119000Y0048895D01*
X0119000Y0041105D01*
X0119685Y0039451D01*
X0120136Y0039000D01*
X0116864Y0039000D01*
X0117315Y0039451D01*
X0118000Y0041105D01*
X0118000Y0048895D01*
X0117315Y0050549D01*
X0116049Y0051815D01*
X0114395Y0052500D01*
X0112605Y0052500D01*
X0110951Y0051815D01*
X0109685Y0050549D01*
X0109000Y0048895D01*
X0109000Y0041105D01*
X0109685Y0039451D01*
X0110136Y0039000D01*
X0091310Y0039000D01*
X0091334Y0039024D01*
X0091334Y0052077D01*
X0090455Y0052956D01*
X0080945Y0052956D01*
X0080066Y0052077D01*
X0080066Y0039024D01*
X0080090Y0039000D01*
X0066310Y0039000D01*
X0066334Y0039024D01*
X0066334Y0052077D01*
X0065455Y0052956D01*
X0055945Y0052956D01*
X0055066Y0052077D01*
X0055066Y0039024D01*
X0055090Y0039000D01*
X0038700Y0039000D01*
X0038700Y0064436D01*
X0039451Y0063685D01*
X0041105Y0063000D01*
X0048895Y0063000D01*
X0050549Y0063685D01*
X0051815Y0064951D01*
X0052500Y0066605D01*
X0052500Y0068395D01*
X0051815Y0070049D01*
X0050549Y0071315D01*
X0048895Y0072000D01*
X0041105Y0072000D01*
X0039451Y0071315D01*
X0038700Y0070564D01*
X0038700Y0074436D01*
X0039451Y0073685D01*
X0041105Y0073000D01*
X0048895Y0073000D01*
X0050549Y0073685D01*
X0051815Y0074951D01*
X0052069Y0075565D01*
X0068320Y0075716D01*
X0069080Y0074956D01*
X0070287Y0074456D01*
X0071593Y0074456D01*
X0072800Y0074956D01*
X0073724Y0075880D01*
X0074224Y0077087D01*
X0074224Y0078393D01*
X0073724Y0079600D01*
X0072800Y0080524D01*
X0071593Y0081024D01*
X0070287Y0081024D01*
X0069080Y0080524D01*
X0068271Y0079715D01*
X0052015Y0079565D01*
X0051815Y0080049D01*
X0050549Y0081315D01*
X0048895Y0082000D01*
X0041105Y0082000D01*
X0039451Y0081315D01*
X0038700Y0080564D01*
X0038700Y0084436D01*
X0039451Y0083685D01*
X0041105Y0083000D01*
X0048895Y0083000D01*
X0050549Y0083685D01*
X0051815Y0084951D01*
X0052032Y0085476D01*
X0068164Y0085651D01*
X0068920Y0084896D01*
X0070127Y0084396D01*
X0071433Y0084396D01*
X0072640Y0084896D01*
X0073564Y0085820D01*
X0074064Y0087027D01*
X0074064Y0088333D01*
X0073564Y0089540D01*
X0072640Y0090464D01*
X0071433Y0090964D01*
X0070127Y0090964D01*
X0068920Y0090464D01*
X0068106Y0089651D01*
X0052052Y0089477D01*
X0051815Y0090049D01*
X0050549Y0091315D01*
X0048895Y0092000D01*
X0041105Y0092000D01*
X0039451Y0091315D01*
X0038700Y0090564D01*
X0038700Y0094436D01*
X0039068Y0094068D01*
X0039641Y0093651D01*
X0040273Y0093330D01*
X0040946Y0093111D01*
X0041646Y0093000D01*
X0044500Y0093000D01*
X0044500Y0097000D01*
X0045500Y0097000D01*
X0045500Y0098000D01*
X0044500Y0098000D01*
X0044500Y0102000D01*
X0041646Y0102000D01*
X0040946Y0101889D01*
X0040273Y0101670D01*
X0039641Y0101349D01*
X0039068Y0100932D01*
X0038700Y0100564D01*
X0038700Y0104436D01*
X0039451Y0103685D01*
X0041105Y0103000D01*
X0048895Y0103000D01*
X0050549Y0103685D01*
X0051815Y0104951D01*
X0052042Y0105500D01*
X0056372Y0105500D01*
X0056631Y0105240D01*
X0056631Y0105240D01*
X0063200Y0098672D01*
X0064372Y0097500D01*
X0090900Y0097500D01*
X0090900Y0094547D01*
X0105900Y0079547D01*
X0107247Y0078200D01*
X0114417Y0078200D01*
X0114417Y0077083D01*
X0114976Y0076524D01*
X0114716Y0076264D01*
X0114519Y0075921D01*
X0114417Y0075540D01*
X0114417Y0073283D01*
X0118369Y0073283D01*
X0118369Y0072283D01*
X0119369Y0072283D01*
X0119369Y0068724D01*
X0122020Y0068724D01*
X0122401Y0068827D01*
X0122743Y0069024D01*
X0123022Y0069303D01*
X0123220Y0069645D01*
X0123322Y0070027D01*
X0123322Y0072283D01*
X0119369Y0072283D01*
X0119369Y0073283D01*
X0123291Y0073283D01*
X0123291Y0073161D01*
X0124169Y0072282D01*
X0128885Y0072282D01*
X0128885Y0067575D01*
X0127705Y0067575D01*
X0126826Y0066696D01*
X0126826Y0059548D01*
X0127705Y0058669D01*
X0134065Y0058669D01*
X0134625Y0059229D01*
X0134885Y0058969D01*
X0135227Y0058772D01*
X0135609Y0058669D01*
X0137865Y0058669D01*
X0137865Y0062622D01*
X0138865Y0062622D01*
X0138865Y0058669D01*
X0141122Y0058669D01*
X0141503Y0058772D01*
X0141845Y0058969D01*
X0142125Y0059248D01*
X0142322Y0059590D01*
X0142424Y0059972D01*
X0142424Y0062622D01*
X0138865Y0062622D01*
X0138865Y0063622D01*
X0137865Y0063622D01*
X0137865Y0067575D01*
X0135609Y0067575D01*
X0135227Y0067473D01*
X0134885Y0067275D01*
X0134625Y0067015D01*
X0134065Y0067575D01*
X0132885Y0067575D01*
X0132885Y0072282D01*
X0139191Y0072282D01*
X0140070Y0073161D01*
X0140070Y0077542D01*
X0141028Y0078500D01*
X0141806Y0079278D01*
X0142671Y0078413D01*
X0144944Y0076140D01*
X0144944Y0073161D01*
X0145823Y0072282D01*
X0152452Y0072282D01*
X0152452Y0067551D01*
X0151272Y0067551D01*
X0150712Y0066991D01*
X0150452Y0067251D01*
X0150110Y0067449D01*
X0149728Y0067551D01*
X0147472Y0067551D01*
X0147472Y0063598D01*
X0146472Y0063598D01*
X0146472Y0062598D01*
X0147472Y0062598D01*
X0147472Y0058646D01*
X0149728Y0058646D01*
X0150110Y0058748D01*
X0150452Y0058945D01*
X0150712Y0059205D01*
X0151272Y0058646D01*
X0157632Y0058646D01*
X0158511Y0059524D01*
X0158511Y0066673D01*
X0157632Y0067551D01*
X0156452Y0067551D01*
X0156452Y0072282D01*
X0160845Y0072282D01*
X0161724Y0073161D01*
X0161724Y0079128D01*
X0160845Y0080006D01*
X0146735Y0080006D01*
X0145499Y0081242D01*
X0145499Y0091094D01*
X0151573Y0091094D01*
X0152175Y0091696D01*
X0152916Y0090956D01*
X0152916Y0089847D01*
X0153416Y0088640D01*
X0154340Y0087716D01*
X0155547Y0087216D01*
X0156853Y0087216D01*
X0158060Y0087716D01*
X0158984Y0088640D01*
X0159484Y0089847D01*
X0159484Y0091153D01*
X0158984Y0092360D01*
X0158060Y0093284D01*
X0156853Y0093784D01*
X0155744Y0093784D01*
X0152452Y0097076D01*
X0152452Y0099121D01*
X0151573Y0100000D01*
X0148720Y0100000D01*
X0148720Y0103390D01*
X0152109Y0103390D01*
X0152109Y0100536D01*
X0152988Y0099657D01*
X0154125Y0099657D01*
X0153916Y0099153D01*
X0153916Y0097847D01*
X0154416Y0096640D01*
X0155340Y0095716D01*
X0156547Y0095216D01*
X0157853Y0095216D01*
X0159060Y0095716D01*
X0159984Y0096640D01*
X0160350Y0097522D01*
X0161916Y0095956D01*
X0161916Y0094847D01*
X0162416Y0093640D01*
X0163340Y0092716D01*
X0164547Y0092216D01*
X0165853Y0092216D01*
X0167060Y0092716D01*
X0167984Y0093640D01*
X0168484Y0094847D01*
X0168484Y0096153D01*
X0168016Y0097283D01*
X0169060Y0097716D01*
X0169984Y0098640D01*
X0170343Y0099505D01*
X0186216Y0083564D01*
X0186216Y0082447D01*
X0186716Y0081240D01*
X0187640Y0080316D01*
X0188847Y0079816D01*
X0190153Y0079816D01*
X0191360Y0080316D01*
X0192284Y0081240D01*
X0192555Y0081893D01*
X0195200Y0079247D01*
X0195200Y0075941D01*
X0195113Y0075854D01*
X0194235Y0076733D01*
X0188392Y0076733D01*
X0187513Y0075854D01*
X0187513Y0074233D01*
X0187074Y0074233D01*
X0185499Y0072658D01*
X0184152Y0071311D01*
X0184152Y0066046D01*
X0183377Y0065271D01*
X0183377Y0058123D01*
X0183937Y0057563D01*
X0183377Y0057003D01*
X0183377Y0049855D01*
X0184256Y0048976D01*
X0190617Y0048976D01*
X0191176Y0049536D01*
X0191736Y0048976D01*
X0198097Y0048976D01*
X0198976Y0049855D01*
X0198976Y0051129D01*
X0199125Y0051129D01*
X0199125Y0049855D01*
X0200004Y0048976D01*
X0200884Y0048976D01*
X0200884Y0048909D01*
X0200309Y0048288D01*
X0200226Y0048323D01*
X0198448Y0048323D01*
X0196806Y0047643D01*
X0195549Y0046386D01*
X0194869Y0044743D01*
X0194869Y0042965D01*
X0195549Y0041323D01*
X0196806Y0040066D01*
X0198448Y0039386D01*
X0200226Y0039386D01*
X0201868Y0040066D01*
X0203125Y0041323D01*
X0203805Y0042965D01*
X0203805Y0044743D01*
X0203648Y0045123D01*
X0204842Y0046412D01*
X0205484Y0047054D01*
X0205484Y0047105D01*
X0205519Y0047143D01*
X0205484Y0048051D01*
X0205484Y0048976D01*
X0206365Y0048976D01*
X0206924Y0049536D01*
X0207484Y0048976D01*
X0213845Y0048976D01*
X0214724Y0049855D01*
X0214724Y0057003D01*
X0213949Y0057778D01*
X0213949Y0073279D01*
X0212602Y0074627D01*
X0210395Y0076833D01*
X0199442Y0076833D01*
X0199200Y0077075D01*
X0199200Y0078400D01*
X0219330Y0078400D01*
X0224100Y0073630D01*
X0225330Y0072400D01*
X0249631Y0072400D01*
X0249631Y0071898D01*
X0250509Y0071020D01*
X0256870Y0071020D01*
X0257430Y0071579D01*
X0257690Y0071319D01*
X0258032Y0071122D01*
X0258414Y0071020D01*
X0260670Y0071020D01*
X0260670Y0074972D01*
X0261670Y0074972D01*
X0261670Y0071020D01*
X0263927Y0071020D01*
X0264308Y0071122D01*
X0264650Y0071319D01*
X0264929Y0071599D01*
X0265127Y0071941D01*
X0265229Y0072322D01*
X0265229Y0074972D01*
X0261670Y0074972D01*
X0261670Y0075972D01*
X0265229Y0075972D01*
X0265229Y0078623D01*
X0265127Y0079004D01*
X0264929Y0079346D01*
X0264650Y0079625D01*
X0264308Y0079823D01*
X0263927Y0079925D01*
X0261670Y0079925D01*
X0261670Y0075972D01*
X0260670Y0075972D01*
X0260670Y0079925D01*
X0258414Y0079925D01*
X0258032Y0079823D01*
X0257690Y0079625D01*
X0257430Y0079365D01*
X0256870Y0079925D01*
X0255690Y0079925D01*
X0255690Y0083258D01*
X0256601Y0083258D01*
X0256803Y0083460D01*
X0256975Y0083360D01*
X0257357Y0083258D01*
X0258842Y0083258D01*
X0258842Y0088408D01*
X0259417Y0088408D01*
X0259417Y0088983D01*
X0262204Y0088983D01*
X0262204Y0089770D01*
X0263070Y0088904D01*
X0264345Y0088376D01*
X0268087Y0088376D01*
X0269362Y0088904D01*
X0270337Y0089880D01*
X0270865Y0091155D01*
X0270865Y0092535D01*
X0270337Y0093810D01*
X0269362Y0094785D01*
X0268087Y0095313D01*
X0264345Y0095313D01*
X0263070Y0094785D01*
X0262094Y0093810D01*
X0261953Y0093469D01*
X0261904Y0093553D01*
X0261625Y0093833D01*
X0261283Y0094030D01*
X0260901Y0094132D01*
X0259417Y0094132D01*
X0259417Y0088983D01*
X0258842Y0088983D01*
X0258842Y0094132D01*
X0257357Y0094132D01*
X0256975Y0094030D01*
X0256803Y0093930D01*
X0256601Y0094132D01*
X0252209Y0094132D01*
X0252043Y0093966D01*
X0251876Y0094132D01*
X0247484Y0094132D01*
X0247318Y0093966D01*
X0247152Y0094132D01*
X0242760Y0094132D01*
X0242594Y0093966D01*
X0242428Y0094132D01*
X0238035Y0094132D01*
X0237869Y0093966D01*
X0237703Y0094132D01*
X0233311Y0094132D01*
X0233145Y0093966D01*
X0232979Y0094132D01*
X0228587Y0094132D01*
X0228420Y0093966D01*
X0228254Y0094132D01*
X0224236Y0094132D01*
X0223881Y0094991D01*
X0223656Y0095216D01*
X0224853Y0095216D01*
X0226060Y0095716D01*
X0226984Y0096640D01*
X0227484Y0097847D01*
X0227484Y0099153D01*
X0226984Y0100360D01*
X0226060Y0101284D01*
X0224853Y0101784D01*
X0224744Y0101784D01*
X0222200Y0104328D01*
X0221653Y0104876D01*
X0221653Y0106443D01*
X0221487Y0106609D01*
X0221653Y0106775D01*
X0221653Y0111167D01*
X0221487Y0111333D01*
X0221653Y0111499D01*
X0221653Y0115891D01*
X0221487Y0116057D01*
X0221653Y0116224D01*
X0221653Y0120616D01*
X0221487Y0120782D01*
X0221653Y0120948D01*
X0221653Y0125340D01*
X0221018Y0125975D01*
X0221630Y0125975D01*
X0222905Y0126503D01*
X0223881Y0127479D01*
X0224318Y0128534D01*
X0228254Y0128534D01*
X0228420Y0128700D01*
X0228587Y0128534D01*
X0232979Y0128534D01*
X0233145Y0128700D01*
X0233311Y0128534D01*
X0237703Y0128534D01*
X0237869Y0128700D01*
X0238035Y0128534D01*
X0242428Y0128534D01*
X0242594Y0128700D01*
X0242760Y0128534D01*
X0247152Y0128534D01*
X0247318Y0128700D01*
X0247484Y0128534D01*
X0251876Y0128534D01*
X0252043Y0128700D01*
X0252209Y0128534D01*
X0256601Y0128534D01*
X0256803Y0128736D01*
X0256975Y0128636D01*
X0257357Y0128534D01*
X0258842Y0128534D01*
X0258842Y0133683D01*
X0259417Y0133683D01*
X0259417Y0134258D01*
X0262204Y0134258D01*
X0262204Y0138105D01*
X0262102Y0138487D01*
X0261904Y0138829D01*
X0261625Y0139108D01*
X0261283Y0139306D01*
X0260901Y0139408D01*
X0259417Y0139408D01*
X0259417Y0134258D01*
X0258842Y0134258D01*
X0258842Y0139408D01*
X0257357Y0139408D01*
X0256975Y0139306D01*
X0256803Y0139206D01*
X0256601Y0139408D01*
X0252209Y0139408D01*
X0252043Y0139242D01*
X0251876Y0139408D01*
X0247484Y0139408D01*
X0247318Y0139242D01*
X0247152Y0139408D01*
X0242760Y0139408D01*
X0242594Y0139242D01*
X0242428Y0139408D01*
X0242200Y0139408D01*
X0242200Y0147855D01*
X0242984Y0148640D01*
X0243484Y0149847D01*
X0243484Y0151153D01*
X0242984Y0152360D01*
X0242060Y0153284D01*
X0240853Y0153784D01*
X0239547Y0153784D01*
X0238340Y0153284D01*
X0237416Y0152360D01*
X0236983Y0151316D01*
X0235853Y0151784D01*
X0234547Y0151784D01*
X0233340Y0151284D01*
X0232416Y0150360D01*
X0231916Y0149153D01*
X0231916Y0148758D01*
X0231853Y0148784D01*
X0230744Y0148784D01*
X0229806Y0149722D01*
X0230063Y0149979D01*
X0230063Y0156339D01*
X0229503Y0156899D01*
X0229763Y0157159D01*
X0229961Y0157501D01*
X0230063Y0157883D01*
X0230063Y0160139D01*
X0226110Y0160139D01*
X0226110Y0161139D01*
X0230063Y0161139D01*
X0230063Y0163396D01*
X0229961Y0163777D01*
X0229763Y0164119D01*
X0229484Y0164399D01*
X0229142Y0164596D01*
X0228760Y0164698D01*
X0226110Y0164698D01*
X0226110Y0161139D01*
X0225110Y0161139D01*
X0225110Y0160139D01*
X0221157Y0160139D01*
X0221157Y0157883D01*
X0221260Y0157501D01*
X0221457Y0157159D01*
X0221717Y0156899D01*
X0221157Y0156339D01*
X0221157Y0149979D01*
X0222036Y0149100D01*
X0224772Y0149100D01*
X0227253Y0146619D01*
X0226853Y0146784D01*
X0225547Y0146784D01*
X0224340Y0146284D01*
X0223416Y0145360D01*
X0222916Y0144153D01*
X0222916Y0142847D01*
X0223416Y0141640D01*
X0224200Y0140855D01*
X0224200Y0139408D01*
X0223862Y0139408D01*
X0222983Y0138529D01*
X0222983Y0132305D01*
X0222905Y0132384D01*
X0221630Y0132912D01*
X0220250Y0132912D01*
X0219897Y0132765D01*
X0219930Y0132844D01*
X0220054Y0133471D01*
X0216716Y0133471D01*
X0216716Y0134471D01*
X0220054Y0134471D01*
X0219930Y0135097D01*
X0219638Y0135800D01*
X0219216Y0136433D01*
X0218678Y0136971D01*
X0218045Y0137393D01*
X0217342Y0137685D01*
X0216716Y0137809D01*
X0216716Y0134471D01*
X0215716Y0134471D01*
X0215716Y0137809D01*
X0215089Y0137685D01*
X0214386Y0137393D01*
X0213754Y0136971D01*
X0213216Y0136433D01*
X0212793Y0135800D01*
X0212502Y0135097D01*
X0212377Y0134471D01*
X0215716Y0134471D01*
X0215716Y0133471D01*
X0216716Y0133471D01*
X0216716Y0130132D01*
X0217342Y0130257D01*
X0217560Y0130347D01*
X0217472Y0130133D01*
X0217472Y0128753D01*
X0218000Y0127479D01*
X0218975Y0126503D01*
X0219661Y0126219D01*
X0211657Y0126219D01*
X0210939Y0125500D01*
X0210845Y0125500D01*
X0210060Y0126284D01*
X0208853Y0126784D01*
X0207744Y0126784D01*
X0204753Y0129776D01*
X0203708Y0129776D01*
X0203708Y0131350D01*
X0203450Y0131608D01*
X0203590Y0131850D01*
X0203692Y0132232D01*
X0203692Y0134291D01*
X0200330Y0134291D01*
X0200330Y0135291D01*
X0203692Y0135291D01*
X0203692Y0137351D01*
X0203590Y0137733D01*
X0203392Y0138075D01*
X0203113Y0138354D01*
X0202771Y0138551D01*
X0202390Y0138654D01*
X0200330Y0138654D01*
X0200330Y0135291D01*
X0199330Y0135291D01*
X0199330Y0134291D01*
X0195968Y0134291D01*
X0195968Y0132232D01*
X0196070Y0131850D01*
X0196077Y0131837D01*
X0195909Y0131669D01*
X0195424Y0132153D01*
X0195424Y0137775D01*
X0194546Y0138654D01*
X0188579Y0138654D01*
X0187700Y0137775D01*
X0187700Y0131808D01*
X0188134Y0131374D01*
X0188109Y0131350D01*
X0188109Y0124202D01*
X0188988Y0123323D01*
X0195349Y0123323D01*
X0195909Y0123883D01*
X0196468Y0123323D01*
X0202829Y0123323D01*
X0203708Y0124202D01*
X0203708Y0125164D01*
X0204916Y0123956D01*
X0204916Y0122847D01*
X0205416Y0121640D01*
X0205949Y0121106D01*
X0205416Y0120573D01*
X0205317Y0120335D01*
X0203550Y0120335D01*
X0203550Y0121909D01*
X0202672Y0122787D01*
X0196311Y0122787D01*
X0195751Y0122228D01*
X0195191Y0122787D01*
X0188831Y0122787D01*
X0187952Y0121909D01*
X0187952Y0114761D01*
X0188169Y0114543D01*
X0187818Y0114192D01*
X0187818Y0108225D01*
X0188697Y0107346D01*
X0188768Y0107346D01*
X0188330Y0106909D01*
X0188330Y0099761D01*
X0189047Y0099043D01*
X0188196Y0098192D01*
X0188196Y0092757D01*
X0186500Y0094453D01*
X0186500Y0120453D01*
X0183500Y0123453D01*
X0183500Y0155453D01*
X0182153Y0156800D01*
X0171153Y0167800D01*
X0123247Y0167800D01*
X0121900Y0166453D01*
X0109247Y0153800D01*
X0095247Y0153800D01*
X0093900Y0152453D01*
X0086900Y0145453D01*
X0086900Y0137453D01*
X0085204Y0135757D01*
X0085204Y0136129D01*
X0084644Y0136689D01*
X0084904Y0136949D01*
X0085102Y0137291D01*
X0085204Y0137673D01*
X0085204Y0139929D01*
X0081251Y0139929D01*
X0081251Y0140929D01*
X0080251Y0140929D01*
X0076298Y0140929D01*
X0076298Y0142344D02*
X0074059Y0142344D01*
X0074059Y0143342D02*
X0076340Y0143342D01*
X0077141Y0144341D02*
X0074059Y0144341D01*
X0073584Y0145339D02*
X0086900Y0145339D01*
X0086900Y0144341D02*
X0084361Y0144341D01*
X0084283Y0144386D02*
X0083901Y0144488D01*
X0081251Y0144488D01*
X0081251Y0140929D01*
X0085204Y0140929D01*
X0085204Y0143186D01*
X0085102Y0143567D01*
X0084904Y0143909D01*
X0084625Y0144188D01*
X0084283Y0144386D01*
X0085162Y0143342D02*
X0086900Y0143342D01*
X0086900Y0142344D02*
X0085204Y0142344D01*
X0085204Y0141345D02*
X0086900Y0141345D01*
X0086900Y0140347D02*
X0081251Y0140347D01*
X0081251Y0141345D02*
X0080251Y0141345D01*
X0080251Y0140347D02*
X0074059Y0140347D01*
X0074059Y0139348D02*
X0076298Y0139348D01*
X0076298Y0138350D02*
X0073987Y0138350D01*
X0074832Y0137351D02*
X0076385Y0137351D01*
X0076522Y0136353D02*
X0075558Y0136353D01*
X0075558Y0135354D02*
X0076298Y0135354D01*
X0079649Y0133051D02*
X0071499Y0133051D01*
X0071459Y0133091D01*
X0075558Y0130362D02*
X0076298Y0130362D01*
X0076704Y0129363D02*
X0075444Y0129363D01*
X0080751Y0132949D02*
X0080894Y0133091D01*
X0080751Y0132949D02*
X0082751Y0132949D01*
X0084980Y0136353D02*
X0085800Y0136353D01*
X0085118Y0137351D02*
X0086798Y0137351D01*
X0086900Y0138350D02*
X0085204Y0138350D01*
X0085204Y0139348D02*
X0086900Y0139348D01*
X0091500Y0139348D02*
X0094763Y0139348D01*
X0094763Y0138460D02*
X0094763Y0141110D01*
X0098322Y0141110D01*
X0099322Y0141110D01*
X0099322Y0137157D01*
X0101579Y0137157D01*
X0101960Y0137260D01*
X0102302Y0137457D01*
X0102562Y0137717D01*
X0103122Y0137157D01*
X0109483Y0137157D01*
X0110361Y0138036D01*
X0110361Y0138086D01*
X0111569Y0136878D01*
X0111010Y0136319D01*
X0108106Y0136319D01*
X0107228Y0135440D01*
X0107228Y0122583D01*
X0107263Y0122548D01*
X0107228Y0122418D01*
X0107228Y0121442D01*
X0104834Y0123836D01*
X0103857Y0123836D01*
X0103857Y0124917D01*
X0103298Y0125476D01*
X0103558Y0125736D01*
X0103755Y0126078D01*
X0103857Y0126460D01*
X0103857Y0128717D01*
X0099905Y0128717D01*
X0099905Y0129716D01*
X0103857Y0129716D01*
X0103857Y0131973D01*
X0103755Y0132355D01*
X0103558Y0132697D01*
X0103278Y0132976D01*
X0102936Y0133173D01*
X0102555Y0133276D01*
X0099905Y0133276D01*
X0099905Y0129717D01*
X0098905Y0129717D01*
X0098905Y0133276D01*
X0096254Y0133276D01*
X0095873Y0133173D01*
X0095531Y0132976D01*
X0095252Y0132697D01*
X0095054Y0132355D01*
X0094952Y0131973D01*
X0094952Y0129716D01*
X0098905Y0129716D01*
X0098905Y0128717D01*
X0094952Y0128717D01*
X0094952Y0126460D01*
X0095054Y0126078D01*
X0095252Y0125736D01*
X0095512Y0125476D01*
X0094952Y0124917D01*
X0094952Y0123718D01*
X0087311Y0131359D01*
X0090153Y0134200D01*
X0091500Y0135547D01*
X0091500Y0143547D01*
X0097153Y0149200D01*
X0111153Y0149200D01*
X0125153Y0163200D01*
X0169247Y0163200D01*
X0178900Y0153547D01*
X0178900Y0123606D01*
X0177098Y0122920D01*
X0176695Y0123323D01*
X0169547Y0123323D01*
X0168669Y0122444D01*
X0168669Y0119894D01*
X0164962Y0119894D01*
X0164839Y0120003D01*
X0165853Y0120003D01*
X0167060Y0120503D01*
X0167984Y0121427D01*
X0168484Y0122634D01*
X0168484Y0123941D01*
X0167984Y0125148D01*
X0167060Y0126072D01*
X0166295Y0126389D01*
X0166484Y0126847D01*
X0166484Y0128153D01*
X0165984Y0129360D01*
X0165541Y0129803D01*
X0165984Y0130246D01*
X0166484Y0131453D01*
X0166484Y0132760D01*
X0165984Y0133967D01*
X0165648Y0134303D01*
X0165984Y0134640D01*
X0166484Y0135847D01*
X0166484Y0137153D01*
X0165984Y0138360D01*
X0165060Y0139284D01*
X0163853Y0139784D01*
X0162547Y0139784D01*
X0161340Y0139284D01*
X0160416Y0138360D01*
X0159916Y0137153D01*
X0159916Y0136907D01*
X0158902Y0136319D01*
X0152988Y0136319D01*
X0152109Y0135440D01*
X0152109Y0119434D01*
X0152144Y0119399D01*
X0152109Y0119268D01*
X0152109Y0118030D01*
X0156521Y0118030D01*
X0156521Y0117947D01*
X0152109Y0117947D01*
X0152109Y0116708D01*
X0152144Y0116578D01*
X0152109Y0116543D01*
X0152109Y0107390D01*
X0147563Y0107390D01*
X0128775Y0126178D01*
X0123741Y0131212D01*
X0126672Y0134144D01*
X0126672Y0135976D01*
X0132676Y0135976D01*
X0132711Y0136011D01*
X0132841Y0135976D01*
X0134080Y0135976D01*
X0134080Y0140388D01*
X0134163Y0140388D01*
X0134163Y0135976D01*
X0135401Y0135976D01*
X0135532Y0136011D01*
X0135567Y0135976D01*
X0151573Y0135976D01*
X0152452Y0136855D01*
X0152452Y0138705D01*
X0155698Y0138705D01*
X0160213Y0143220D01*
X0165018Y0143220D01*
X0165378Y0143580D01*
X0165488Y0143390D01*
X0165767Y0143111D01*
X0166109Y0142913D01*
X0166491Y0142811D01*
X0168550Y0142811D01*
X0168550Y0146173D01*
X0169550Y0146173D01*
X0169550Y0142811D01*
X0171610Y0142811D01*
X0171992Y0142913D01*
X0172334Y0143111D01*
X0172613Y0143390D01*
X0172810Y0143732D01*
X0172913Y0144114D01*
X0172913Y0146173D01*
X0169550Y0146173D01*
X0169550Y0147173D01*
X0168550Y0147173D01*
X0168550Y0150535D01*
X0166491Y0150535D01*
X0166109Y0150433D01*
X0165897Y0150311D01*
X0165897Y0150460D01*
X0165337Y0151020D01*
X0165731Y0151414D01*
X0166067Y0151079D01*
X0172034Y0151079D01*
X0172913Y0151957D01*
X0172913Y0157924D01*
X0172034Y0158803D01*
X0166067Y0158803D01*
X0165550Y0158287D01*
X0165018Y0158819D01*
X0157870Y0158819D01*
X0156991Y0157940D01*
X0156991Y0151579D01*
X0157551Y0151020D01*
X0156991Y0150460D01*
X0156991Y0145655D01*
X0154041Y0142705D01*
X0152452Y0142705D01*
X0152452Y0144003D01*
X0151573Y0144882D01*
X0150085Y0144882D01*
X0150484Y0145847D01*
X0150484Y0147153D01*
X0149984Y0148360D01*
X0149060Y0149284D01*
X0147853Y0149784D01*
X0147458Y0149784D01*
X0147484Y0149847D01*
X0147484Y0151153D01*
X0146984Y0152360D01*
X0146060Y0153284D01*
X0144853Y0153784D01*
X0143665Y0153784D01*
X0143665Y0154941D01*
X0143165Y0156148D01*
X0142241Y0157072D01*
X0141321Y0157453D01*
X0141484Y0157847D01*
X0141484Y0159153D01*
X0140984Y0160360D01*
X0140060Y0161284D01*
X0138853Y0161784D01*
X0137547Y0161784D01*
X0136340Y0161284D01*
X0135580Y0160525D01*
X0135580Y0161216D01*
X0135478Y0161597D01*
X0135281Y0161939D01*
X0135001Y0162218D01*
X0134659Y0162416D01*
X0134278Y0162518D01*
X0131628Y0162518D01*
X0131628Y0158959D01*
X0130628Y0158959D01*
X0130628Y0162518D01*
X0127977Y0162518D01*
X0127596Y0162416D01*
X0127254Y0162218D01*
X0126975Y0161939D01*
X0126777Y0161597D01*
X0126675Y0161216D01*
X0126675Y0158959D01*
X0130628Y0158959D01*
X0130628Y0157959D01*
X0126675Y0157959D01*
X0126675Y0155703D01*
X0126753Y0155412D01*
X0125853Y0155784D01*
X0124547Y0155784D01*
X0123340Y0155284D01*
X0122416Y0154360D01*
X0121916Y0153153D01*
X0121916Y0152344D01*
X0120853Y0152784D01*
X0119547Y0152784D01*
X0118340Y0152284D01*
X0117416Y0151360D01*
X0116916Y0150153D01*
X0116916Y0148847D01*
X0117416Y0147640D01*
X0118200Y0146855D01*
X0118200Y0145672D01*
X0118700Y0145172D01*
X0118700Y0145172D01*
X0118990Y0144882D01*
X0116669Y0144882D01*
X0115791Y0144003D01*
X0115791Y0141099D01*
X0114822Y0140131D01*
X0112500Y0142453D01*
X0111153Y0143800D01*
X0110361Y0143800D01*
X0110361Y0145184D01*
X0109483Y0146063D01*
X0103122Y0146063D01*
X0102562Y0145503D01*
X0102302Y0145763D01*
X0101960Y0145961D01*
X0101579Y0146063D01*
X0099322Y0146063D01*
X0099322Y0142110D01*
X0098322Y0142110D01*
X0098322Y0141110D01*
X0098322Y0137157D01*
X0096066Y0137157D01*
X0095684Y0137260D01*
X0095342Y0137457D01*
X0095063Y0137736D01*
X0094865Y0138078D01*
X0094763Y0138460D01*
X0094793Y0138350D02*
X0091500Y0138350D01*
X0091500Y0137351D02*
X0095526Y0137351D01*
X0098322Y0137351D02*
X0099322Y0137351D01*
X0099322Y0138350D02*
X0098322Y0138350D01*
X0098322Y0139348D02*
X0099322Y0139348D01*
X0099322Y0140347D02*
X0098322Y0140347D01*
X0098822Y0141122D02*
X0098822Y0141610D01*
X0098322Y0141345D02*
X0091500Y0141345D01*
X0091500Y0140347D02*
X0094763Y0140347D01*
X0094763Y0142110D02*
X0098322Y0142110D01*
X0098322Y0146063D01*
X0096066Y0146063D01*
X0095684Y0145961D01*
X0095342Y0145763D01*
X0095063Y0145484D01*
X0094865Y0145142D01*
X0094763Y0144760D01*
X0094763Y0142110D01*
X0094763Y0142344D02*
X0091500Y0142344D01*
X0091500Y0143342D02*
X0094763Y0143342D01*
X0094763Y0144341D02*
X0092293Y0144341D01*
X0093292Y0145339D02*
X0094979Y0145339D01*
X0094290Y0146338D02*
X0118200Y0146338D01*
X0118532Y0145339D02*
X0110206Y0145339D01*
X0110361Y0144341D02*
X0116128Y0144341D01*
X0115791Y0143342D02*
X0111610Y0143342D01*
X0112609Y0142344D02*
X0115791Y0142344D01*
X0115791Y0141345D02*
X0113607Y0141345D01*
X0114606Y0140347D02*
X0115038Y0140347D01*
X0114200Y0137500D02*
X0114200Y0136500D01*
X0114322Y0136378D01*
X0111044Y0136353D02*
X0091500Y0136353D01*
X0091307Y0135354D02*
X0107228Y0135354D01*
X0107228Y0134356D02*
X0090308Y0134356D01*
X0089310Y0133357D02*
X0107228Y0133357D01*
X0107228Y0132359D02*
X0103753Y0132359D01*
X0103857Y0131360D02*
X0107228Y0131360D01*
X0107228Y0130362D02*
X0103857Y0130362D01*
X0103857Y0128365D02*
X0107228Y0128365D01*
X0107228Y0129363D02*
X0099905Y0129363D01*
X0099405Y0129217D02*
X0099405Y0131295D01*
X0098905Y0131360D02*
X0099905Y0131360D01*
X0099905Y0130362D02*
X0098905Y0130362D01*
X0098905Y0129363D02*
X0089307Y0129363D01*
X0090305Y0128365D02*
X0094952Y0128365D01*
X0094952Y0127366D02*
X0091304Y0127366D01*
X0092302Y0126368D02*
X0094977Y0126368D01*
X0095404Y0125369D02*
X0093301Y0125369D01*
X0094299Y0124370D02*
X0094952Y0124370D01*
X0099169Y0121500D02*
X0099405Y0121736D01*
X0103857Y0124370D02*
X0107228Y0124370D01*
X0107228Y0123372D02*
X0105298Y0123372D01*
X0106296Y0122373D02*
X0107228Y0122373D01*
X0107491Y0121179D02*
X0111639Y0121179D01*
X0111639Y0121096D01*
X0107573Y0121096D01*
X0107491Y0121179D01*
X0111722Y0121179D02*
X0116133Y0121179D01*
X0116133Y0122418D01*
X0116098Y0122548D01*
X0116133Y0122583D01*
X0116133Y0132314D01*
X0119747Y0128700D01*
X0124758Y0123689D01*
X0122372Y0121303D01*
X0122372Y0117453D01*
X0118609Y0113689D01*
X0116133Y0113689D01*
X0116133Y0116543D01*
X0116133Y0119692D01*
X0116098Y0119727D01*
X0116133Y0119858D01*
X0116133Y0121096D01*
X0111722Y0121096D01*
X0111722Y0121179D01*
X0111680Y0117988D02*
X0111192Y0117500D01*
X0111680Y0114839D02*
X0111342Y0114500D01*
X0107200Y0114500D01*
X0105200Y0112500D01*
X0104200Y0112500D01*
X0111680Y0111689D02*
X0119861Y0111689D01*
X0116712Y0108539D01*
X0111680Y0108539D01*
X0111680Y0105390D02*
X0103310Y0105390D01*
X0103200Y0105500D01*
X0105940Y0102240D02*
X0104200Y0100500D01*
X0105940Y0102240D02*
X0111680Y0102240D01*
X0107200Y0095500D02*
X0118326Y0095500D01*
X0118373Y0095547D01*
X0121200Y0095224D02*
X0121523Y0095547D01*
X0121200Y0095224D02*
X0121200Y0090500D01*
X0119200Y0088500D01*
X0107200Y0088500D01*
X0101017Y0084430D02*
X0071516Y0084430D01*
X0070044Y0084430D02*
X0051294Y0084430D01*
X0052013Y0085429D02*
X0068387Y0085429D01*
X0070780Y0087680D02*
X0045000Y0087400D01*
X0045000Y0087500D01*
X0049937Y0083432D02*
X0102016Y0083432D01*
X0103014Y0082433D02*
X0038700Y0082433D01*
X0038700Y0081434D02*
X0039740Y0081434D01*
X0040063Y0083432D02*
X0038700Y0083432D01*
X0038700Y0084430D02*
X0038706Y0084430D01*
X0038700Y0091420D02*
X0039704Y0091420D01*
X0038700Y0092418D02*
X0093029Y0092418D01*
X0092031Y0093417D02*
X0049898Y0093417D01*
X0049727Y0093330D02*
X0050359Y0093651D01*
X0050932Y0094068D01*
X0051432Y0094568D01*
X0051849Y0095141D01*
X0052170Y0095773D01*
X0052389Y0096446D01*
X0052477Y0097000D01*
X0045500Y0097000D01*
X0045500Y0093000D01*
X0048354Y0093000D01*
X0049054Y0093111D01*
X0049727Y0093330D01*
X0051279Y0094415D02*
X0091032Y0094415D01*
X0090900Y0095414D02*
X0051987Y0095414D01*
X0052378Y0096412D02*
X0090900Y0096412D01*
X0090900Y0097411D02*
X0045500Y0097411D01*
X0045500Y0098000D02*
X0052477Y0098000D01*
X0052389Y0098554D01*
X0052170Y0099227D01*
X0051849Y0099859D01*
X0051432Y0100432D01*
X0050932Y0100932D01*
X0050359Y0101349D01*
X0049727Y0101670D01*
X0049054Y0101889D01*
X0048354Y0102000D01*
X0045500Y0102000D01*
X0045500Y0098000D01*
X0045500Y0098409D02*
X0044500Y0098409D01*
X0044500Y0099408D02*
X0045500Y0099408D01*
X0045500Y0100406D02*
X0044500Y0100406D01*
X0044500Y0101405D02*
X0045500Y0101405D01*
X0050249Y0101405D02*
X0060467Y0101405D01*
X0059468Y0102403D02*
X0038700Y0102403D01*
X0038700Y0101405D02*
X0039751Y0101405D01*
X0040135Y0103402D02*
X0038700Y0103402D01*
X0038700Y0104400D02*
X0038736Y0104400D01*
X0045000Y0107500D02*
X0057460Y0107500D01*
X0057460Y0107240D01*
X0065200Y0099500D01*
X0093200Y0099500D01*
X0094028Y0091420D02*
X0050296Y0091420D01*
X0051443Y0090421D02*
X0068876Y0090421D01*
X0072684Y0090421D02*
X0095026Y0090421D01*
X0096025Y0089423D02*
X0073613Y0089423D01*
X0074027Y0088424D02*
X0097023Y0088424D01*
X0098022Y0087426D02*
X0074064Y0087426D01*
X0073816Y0086427D02*
X0099020Y0086427D01*
X0100019Y0085429D02*
X0073173Y0085429D01*
X0072889Y0080436D02*
X0105011Y0080436D01*
X0104013Y0081434D02*
X0050260Y0081434D01*
X0051428Y0080436D02*
X0068991Y0080436D01*
X0070940Y0077740D02*
X0045000Y0077500D01*
X0049973Y0073446D02*
X0114417Y0073446D01*
X0114417Y0074445D02*
X0051309Y0074445D01*
X0052019Y0075443D02*
X0068592Y0075443D01*
X0073288Y0075443D02*
X0114417Y0075443D01*
X0114895Y0076442D02*
X0073957Y0076442D01*
X0074224Y0077440D02*
X0114417Y0077440D01*
X0118633Y0080500D02*
X0118869Y0080264D01*
X0120964Y0080264D01*
X0128200Y0087500D01*
X0132200Y0087500D01*
X0134200Y0089500D01*
X0134200Y0095469D01*
X0134121Y0095547D01*
X0137230Y0095589D02*
X0137230Y0100000D01*
X0135991Y0100000D01*
X0135860Y0099965D01*
X0135825Y0100000D01*
X0132972Y0100000D01*
X0132972Y0102265D01*
X0134060Y0102716D01*
X0134984Y0103640D01*
X0135484Y0104847D01*
X0135484Y0106153D01*
X0134984Y0107360D01*
X0134060Y0108284D01*
X0132853Y0108784D01*
X0131547Y0108784D01*
X0130340Y0108284D01*
X0129822Y0107767D01*
X0129822Y0118625D01*
X0144720Y0103728D01*
X0144720Y0100000D01*
X0138716Y0100000D01*
X0138681Y0099965D01*
X0138551Y0100000D01*
X0137312Y0100000D01*
X0137312Y0095589D01*
X0137230Y0095589D01*
X0137271Y0095547D02*
X0137271Y0089271D01*
X0136500Y0087200D01*
X0135952Y0088424D02*
X0138200Y0088424D01*
X0138200Y0087426D02*
X0134954Y0087426D01*
X0135028Y0087500D02*
X0136200Y0088672D01*
X0136200Y0091094D01*
X0137230Y0091094D01*
X0137230Y0095506D01*
X0137312Y0095506D01*
X0137312Y0091094D01*
X0138200Y0091094D01*
X0138200Y0081328D01*
X0136878Y0080006D01*
X0124169Y0080006D01*
X0123322Y0079159D01*
X0123322Y0079794D01*
X0129028Y0085500D01*
X0133028Y0085500D01*
X0135028Y0087500D01*
X0133955Y0086427D02*
X0138200Y0086427D01*
X0138200Y0085429D02*
X0128957Y0085429D01*
X0127958Y0084430D02*
X0138200Y0084430D01*
X0138200Y0083432D02*
X0126960Y0083432D01*
X0125961Y0082433D02*
X0138200Y0082433D01*
X0138200Y0081434D02*
X0124963Y0081434D01*
X0123964Y0080436D02*
X0137308Y0080436D01*
X0140200Y0080500D02*
X0140200Y0095327D01*
X0140420Y0095547D01*
X0143499Y0095476D02*
X0143570Y0095547D01*
X0143499Y0095476D02*
X0143499Y0080413D01*
X0147769Y0076144D01*
X0153334Y0076144D01*
X0154452Y0075026D01*
X0154452Y0063098D01*
X0158511Y0063461D02*
X0183377Y0063461D01*
X0183377Y0062463D02*
X0158511Y0062463D01*
X0158511Y0061464D02*
X0183377Y0061464D01*
X0183377Y0060466D02*
X0158511Y0060466D01*
X0158454Y0059467D02*
X0183377Y0059467D01*
X0183377Y0058469D02*
X0078735Y0058469D01*
X0078735Y0059467D02*
X0126907Y0059467D01*
X0126826Y0060466D02*
X0078810Y0060466D01*
X0078984Y0060640D02*
X0079484Y0061847D01*
X0079484Y0063153D01*
X0078984Y0064360D01*
X0078060Y0065284D01*
X0076853Y0065784D01*
X0075547Y0065784D01*
X0074340Y0065284D01*
X0074111Y0065055D01*
X0073984Y0065360D01*
X0073060Y0066284D01*
X0071853Y0066784D01*
X0070547Y0066784D01*
X0069340Y0066284D01*
X0068416Y0065360D01*
X0067916Y0064153D01*
X0067916Y0062847D01*
X0068416Y0061640D01*
X0069200Y0060855D01*
X0069200Y0060436D01*
X0068543Y0060436D01*
X0067665Y0059558D01*
X0067665Y0052016D01*
X0068543Y0051137D01*
X0072935Y0051137D01*
X0073200Y0051402D01*
X0073464Y0051137D01*
X0077857Y0051137D01*
X0078735Y0052016D01*
X0078735Y0059558D01*
X0078319Y0059974D01*
X0078984Y0060640D01*
X0079326Y0061464D02*
X0126826Y0061464D01*
X0126826Y0062463D02*
X0079484Y0062463D01*
X0079357Y0063461D02*
X0126826Y0063461D01*
X0126826Y0064460D02*
X0078885Y0064460D01*
X0077640Y0065458D02*
X0126826Y0065458D01*
X0126826Y0066457D02*
X0072644Y0066457D01*
X0073886Y0065458D02*
X0074760Y0065458D01*
X0076200Y0062500D02*
X0076200Y0056326D01*
X0075661Y0055787D01*
X0075661Y0056961D01*
X0078735Y0056472D02*
X0183377Y0056472D01*
X0183377Y0055473D02*
X0140604Y0055473D01*
X0141870Y0054475D02*
X0183377Y0054475D01*
X0183377Y0053476D02*
X0142350Y0053476D01*
X0142484Y0052478D02*
X0183377Y0052478D01*
X0183377Y0051479D02*
X0146367Y0051479D01*
X0146432Y0051432D02*
X0145859Y0051849D01*
X0145227Y0052170D01*
X0144554Y0052389D01*
X0144000Y0052477D01*
X0144000Y0045500D01*
X0148000Y0045500D01*
X0148000Y0048354D01*
X0147889Y0049054D01*
X0147670Y0049727D01*
X0147349Y0050359D01*
X0146932Y0050932D01*
X0146432Y0051432D01*
X0147260Y0050481D02*
X0183377Y0050481D01*
X0183750Y0049482D02*
X0147750Y0049482D01*
X0147979Y0048484D02*
X0200490Y0048484D01*
X0199498Y0049482D02*
X0198603Y0049482D01*
X0198976Y0050481D02*
X0199125Y0050481D01*
X0196648Y0047485D02*
X0182257Y0047485D01*
X0181994Y0047676D02*
X0181367Y0047995D01*
X0180698Y0048213D01*
X0180136Y0048302D01*
X0180136Y0044339D01*
X0179168Y0044339D01*
X0179168Y0048302D01*
X0178606Y0048213D01*
X0177937Y0047995D01*
X0177310Y0047676D01*
X0176741Y0047263D01*
X0176244Y0046765D01*
X0175830Y0046196D01*
X0175511Y0045570D01*
X0175293Y0044901D01*
X0175204Y0044339D01*
X0179168Y0044339D01*
X0179168Y0043370D01*
X0180136Y0043370D01*
X0180136Y0039407D01*
X0180698Y0039496D01*
X0181367Y0039713D01*
X0181994Y0040033D01*
X0182563Y0040446D01*
X0183060Y0040943D01*
X0183474Y0041512D01*
X0183793Y0042139D01*
X0184010Y0042808D01*
X0184099Y0043370D01*
X0180136Y0043370D01*
X0180136Y0044339D01*
X0184099Y0044339D01*
X0184010Y0044901D01*
X0183793Y0045570D01*
X0183474Y0046196D01*
X0183060Y0046765D01*
X0182563Y0047263D01*
X0181994Y0047676D01*
X0183263Y0046487D02*
X0195650Y0046487D01*
X0195177Y0045488D02*
X0183820Y0045488D01*
X0184076Y0044490D02*
X0194869Y0044490D01*
X0194869Y0043491D02*
X0180136Y0043491D01*
X0179168Y0043491D02*
X0148000Y0043491D01*
X0148000Y0042493D02*
X0175396Y0042493D01*
X0175293Y0042808D02*
X0175511Y0042139D01*
X0175830Y0041512D01*
X0176244Y0040943D01*
X0176741Y0040446D01*
X0177310Y0040033D01*
X0177937Y0039713D01*
X0178606Y0039496D01*
X0179168Y0039407D01*
X0179168Y0043370D01*
X0175204Y0043370D01*
X0175293Y0042808D01*
X0175843Y0041494D02*
X0147976Y0041494D01*
X0147743Y0040496D02*
X0176691Y0040496D01*
X0178602Y0039497D02*
X0147244Y0039497D01*
X0148000Y0044490D02*
X0175228Y0044490D01*
X0175484Y0045488D02*
X0144000Y0045488D01*
X0144000Y0046487D02*
X0143000Y0046487D01*
X0143000Y0045500D02*
X0143000Y0044500D01*
X0139000Y0044500D01*
X0139000Y0041646D01*
X0139111Y0040946D01*
X0139330Y0040273D01*
X0139651Y0039641D01*
X0140068Y0039068D01*
X0140136Y0039000D01*
X0136864Y0039000D01*
X0137315Y0039451D01*
X0138000Y0041105D01*
X0138000Y0046672D01*
X0139000Y0047672D01*
X0139000Y0045500D01*
X0143000Y0045500D01*
X0143000Y0045488D02*
X0138000Y0045488D01*
X0138000Y0044490D02*
X0139000Y0044490D01*
X0139000Y0043491D02*
X0138000Y0043491D01*
X0138000Y0042493D02*
X0139000Y0042493D01*
X0139024Y0041494D02*
X0138000Y0041494D01*
X0137748Y0040496D02*
X0139257Y0040496D01*
X0139756Y0039497D02*
X0137334Y0039497D01*
X0133500Y0045000D02*
X0139200Y0050700D01*
X0139200Y0052500D01*
X0137796Y0055473D02*
X0129604Y0055473D01*
X0130870Y0054475D02*
X0136530Y0054475D01*
X0136050Y0053476D02*
X0131350Y0053476D01*
X0131484Y0052478D02*
X0132551Y0052478D01*
X0134449Y0052478D02*
X0135916Y0052478D01*
X0138814Y0047485D02*
X0139000Y0047485D01*
X0139000Y0046487D02*
X0138000Y0046487D01*
X0143000Y0047485D02*
X0144000Y0047485D01*
X0144000Y0048484D02*
X0143000Y0048484D01*
X0143000Y0049482D02*
X0144000Y0049482D01*
X0144000Y0050481D02*
X0143000Y0050481D01*
X0143000Y0051479D02*
X0144000Y0051479D01*
X0148000Y0047485D02*
X0177047Y0047485D01*
X0176041Y0046487D02*
X0148000Y0046487D01*
X0146472Y0058646D02*
X0144215Y0058646D01*
X0143834Y0058748D01*
X0143492Y0058945D01*
X0143212Y0059225D01*
X0143015Y0059567D01*
X0142913Y0059948D01*
X0142913Y0062598D01*
X0146472Y0062598D01*
X0146472Y0058646D01*
X0146472Y0059467D02*
X0147472Y0059467D01*
X0147472Y0060466D02*
X0146472Y0060466D01*
X0146472Y0061464D02*
X0147472Y0061464D01*
X0147472Y0062463D02*
X0146472Y0062463D01*
X0146472Y0063461D02*
X0138865Y0063461D01*
X0138865Y0063622D02*
X0142424Y0063622D01*
X0142424Y0066272D01*
X0142322Y0066654D01*
X0142125Y0066996D01*
X0141845Y0067275D01*
X0141503Y0067473D01*
X0141122Y0067575D01*
X0138865Y0067575D01*
X0138865Y0063622D01*
X0138865Y0064460D02*
X0137865Y0064460D01*
X0137865Y0065458D02*
X0138865Y0065458D01*
X0138865Y0066457D02*
X0137865Y0066457D01*
X0137865Y0067455D02*
X0138865Y0067455D01*
X0141533Y0067455D02*
X0143857Y0067455D01*
X0143834Y0067449D02*
X0143492Y0067251D01*
X0143212Y0066972D01*
X0143015Y0066630D01*
X0142913Y0066249D01*
X0142913Y0063598D01*
X0146472Y0063598D01*
X0146472Y0067551D01*
X0144215Y0067551D01*
X0143834Y0067449D01*
X0142968Y0066457D02*
X0142375Y0066457D01*
X0142424Y0065458D02*
X0142913Y0065458D01*
X0142913Y0064460D02*
X0142424Y0064460D01*
X0142424Y0062463D02*
X0142913Y0062463D01*
X0142913Y0061464D02*
X0142424Y0061464D01*
X0142424Y0060466D02*
X0142913Y0060466D01*
X0143072Y0059467D02*
X0142251Y0059467D01*
X0138865Y0059467D02*
X0137865Y0059467D01*
X0137865Y0060466D02*
X0138865Y0060466D01*
X0138865Y0061464D02*
X0137865Y0061464D01*
X0137865Y0062463D02*
X0138865Y0062463D01*
X0135197Y0067455D02*
X0134185Y0067455D01*
X0132885Y0068454D02*
X0152452Y0068454D01*
X0152452Y0069452D02*
X0132885Y0069452D01*
X0132885Y0070451D02*
X0152452Y0070451D01*
X0152452Y0071449D02*
X0132885Y0071449D01*
X0128885Y0071449D02*
X0123322Y0071449D01*
X0123322Y0070451D02*
X0128885Y0070451D01*
X0128885Y0069452D02*
X0123108Y0069452D01*
X0124003Y0072448D02*
X0119369Y0072448D01*
X0119369Y0071449D02*
X0118369Y0071449D01*
X0118369Y0072283D02*
X0118369Y0068724D01*
X0115719Y0068724D01*
X0115338Y0068827D01*
X0114996Y0069024D01*
X0114716Y0069303D01*
X0114519Y0069645D01*
X0114417Y0070027D01*
X0114417Y0072283D01*
X0118369Y0072283D01*
X0118369Y0072448D02*
X0038700Y0072448D01*
X0038700Y0073446D02*
X0040027Y0073446D01*
X0039776Y0071449D02*
X0038700Y0071449D01*
X0050224Y0071449D02*
X0114417Y0071449D01*
X0114417Y0070451D02*
X0051413Y0070451D01*
X0052062Y0069452D02*
X0114630Y0069452D01*
X0118369Y0069452D02*
X0119369Y0069452D01*
X0119369Y0070451D02*
X0118369Y0070451D01*
X0127585Y0067455D02*
X0052500Y0067455D01*
X0052476Y0068454D02*
X0128885Y0068454D01*
X0130885Y0063122D02*
X0130885Y0075349D01*
X0131680Y0076144D01*
X0135844Y0076144D01*
X0140200Y0080500D01*
X0140967Y0078439D02*
X0142645Y0078439D01*
X0143644Y0077440D02*
X0140070Y0077440D01*
X0140070Y0076442D02*
X0144642Y0076442D01*
X0144944Y0075443D02*
X0140070Y0075443D01*
X0140070Y0074445D02*
X0144944Y0074445D01*
X0144944Y0073446D02*
X0140070Y0073446D01*
X0139357Y0072448D02*
X0145657Y0072448D01*
X0146472Y0067455D02*
X0147472Y0067455D01*
X0147472Y0066457D02*
X0146472Y0066457D01*
X0146472Y0065458D02*
X0147472Y0065458D01*
X0147472Y0064460D02*
X0146472Y0064460D01*
X0150086Y0067455D02*
X0151176Y0067455D01*
X0156452Y0068454D02*
X0184152Y0068454D01*
X0184152Y0069452D02*
X0156452Y0069452D01*
X0156452Y0070451D02*
X0184152Y0070451D01*
X0184290Y0071449D02*
X0156452Y0071449D01*
X0157728Y0067455D02*
X0184152Y0067455D01*
X0184152Y0066457D02*
X0158511Y0066457D01*
X0158511Y0065458D02*
X0183565Y0065458D01*
X0183377Y0064460D02*
X0158511Y0064460D01*
X0161011Y0072448D02*
X0185289Y0072448D01*
X0186287Y0073446D02*
X0161724Y0073446D01*
X0161724Y0074445D02*
X0187513Y0074445D01*
X0187513Y0075443D02*
X0161724Y0075443D01*
X0161724Y0076442D02*
X0188101Y0076442D01*
X0187519Y0080436D02*
X0146305Y0080436D01*
X0145499Y0081434D02*
X0186635Y0081434D01*
X0186221Y0082433D02*
X0145499Y0082433D01*
X0145499Y0083432D02*
X0186216Y0083432D01*
X0185353Y0084430D02*
X0145499Y0084430D01*
X0145499Y0085429D02*
X0184359Y0085429D01*
X0183365Y0086427D02*
X0145499Y0086427D01*
X0145499Y0087426D02*
X0155040Y0087426D01*
X0153631Y0088424D02*
X0145499Y0088424D01*
X0145499Y0089423D02*
X0153091Y0089423D01*
X0152916Y0090421D02*
X0145499Y0090421D01*
X0146720Y0095547D02*
X0146720Y0104980D01*
X0147129Y0105390D01*
X0156562Y0105390D01*
X0156562Y0108539D02*
X0160161Y0108539D01*
X0162200Y0106500D01*
X0162200Y0098500D01*
X0165200Y0095500D01*
X0168484Y0095414D02*
X0174417Y0095414D01*
X0175411Y0094415D02*
X0168305Y0094415D01*
X0167761Y0093417D02*
X0176405Y0093417D01*
X0177399Y0092418D02*
X0166342Y0092418D01*
X0164058Y0092418D02*
X0158926Y0092418D01*
X0159374Y0091420D02*
X0178394Y0091420D01*
X0179388Y0090421D02*
X0159484Y0090421D01*
X0159309Y0089423D02*
X0180382Y0089423D01*
X0181376Y0088424D02*
X0158769Y0088424D01*
X0157360Y0087426D02*
X0182371Y0087426D01*
X0181900Y0093567D02*
X0168200Y0107326D01*
X0168200Y0115328D01*
X0167635Y0115894D01*
X0168858Y0115894D01*
X0169228Y0115524D01*
X0168968Y0115264D01*
X0168771Y0114921D01*
X0168669Y0114540D01*
X0168668Y0112283D01*
X0172621Y0112283D01*
X0172621Y0111283D01*
X0173621Y0111283D01*
X0173621Y0107724D01*
X0176271Y0107724D01*
X0176653Y0107827D01*
X0176995Y0108024D01*
X0177274Y0108303D01*
X0177472Y0108645D01*
X0177574Y0109027D01*
X0177574Y0111283D01*
X0173621Y0111283D01*
X0173621Y0112283D01*
X0177574Y0112283D01*
X0177574Y0114540D01*
X0177472Y0114921D01*
X0177274Y0115264D01*
X0177014Y0115524D01*
X0177574Y0116083D01*
X0177574Y0118820D01*
X0180509Y0119939D01*
X0181900Y0118547D01*
X0181900Y0093567D01*
X0181900Y0094415D02*
X0181056Y0094415D01*
X0181900Y0095414D02*
X0180061Y0095414D01*
X0179067Y0096412D02*
X0181900Y0096412D01*
X0181900Y0097411D02*
X0178073Y0097411D01*
X0177079Y0098409D02*
X0181900Y0098409D01*
X0181900Y0099408D02*
X0176084Y0099408D01*
X0175090Y0100406D02*
X0181900Y0100406D01*
X0181900Y0101405D02*
X0174096Y0101405D01*
X0173102Y0102403D02*
X0181900Y0102403D01*
X0181900Y0103402D02*
X0172107Y0103402D01*
X0171113Y0104400D02*
X0181900Y0104400D01*
X0181900Y0105399D02*
X0170119Y0105399D01*
X0169125Y0106397D02*
X0181900Y0106397D01*
X0181900Y0107396D02*
X0168200Y0107396D01*
X0168200Y0108394D02*
X0168916Y0108394D01*
X0168968Y0108303D02*
X0169247Y0108024D01*
X0169590Y0107827D01*
X0169971Y0107724D01*
X0172621Y0107724D01*
X0172621Y0111283D01*
X0168669Y0111283D01*
X0168669Y0109027D01*
X0168771Y0108645D01*
X0168968Y0108303D01*
X0168669Y0109393D02*
X0168200Y0109393D01*
X0168200Y0110391D02*
X0168669Y0110391D01*
X0168200Y0111390D02*
X0172621Y0111390D01*
X0173121Y0111783D02*
X0176483Y0111783D01*
X0180200Y0113500D01*
X0181900Y0113387D02*
X0177574Y0113387D01*
X0177574Y0114385D02*
X0181900Y0114385D01*
X0181900Y0115384D02*
X0177154Y0115384D01*
X0177574Y0116382D02*
X0181900Y0116382D01*
X0181900Y0117381D02*
X0177574Y0117381D01*
X0177574Y0118379D02*
X0181900Y0118379D01*
X0181069Y0119378D02*
X0179037Y0119378D01*
X0181200Y0122343D02*
X0173121Y0119264D01*
X0169885Y0117894D01*
X0164200Y0117894D01*
X0160562Y0121138D01*
X0156562Y0121138D01*
X0156604Y0118030D02*
X0161015Y0118030D01*
X0161015Y0118054D01*
X0162378Y0116839D01*
X0161015Y0116839D01*
X0161015Y0117947D01*
X0156604Y0117947D01*
X0156604Y0118030D01*
X0152109Y0118379D02*
X0136573Y0118379D01*
X0137572Y0117381D02*
X0152109Y0117381D01*
X0152109Y0116382D02*
X0138570Y0116382D01*
X0139569Y0115384D02*
X0152109Y0115384D01*
X0152109Y0114385D02*
X0140567Y0114385D01*
X0141566Y0113387D02*
X0152109Y0113387D01*
X0152109Y0112388D02*
X0142564Y0112388D01*
X0143563Y0111390D02*
X0152109Y0111390D01*
X0152109Y0110391D02*
X0144561Y0110391D01*
X0145560Y0109393D02*
X0152109Y0109393D01*
X0152109Y0108394D02*
X0146558Y0108394D01*
X0147557Y0107396D02*
X0152109Y0107396D01*
X0156562Y0111689D02*
X0156751Y0111500D01*
X0162200Y0111500D01*
X0164200Y0109500D01*
X0164200Y0103500D01*
X0167200Y0100500D01*
X0168324Y0097411D02*
X0172428Y0097411D01*
X0171434Y0098409D02*
X0169754Y0098409D01*
X0170302Y0099408D02*
X0170440Y0099408D01*
X0168377Y0096412D02*
X0173422Y0096412D01*
X0162639Y0093417D02*
X0157741Y0093417D01*
X0158331Y0095414D02*
X0161916Y0095414D01*
X0162095Y0094415D02*
X0155113Y0094415D01*
X0156069Y0095414D02*
X0154115Y0095414D01*
X0154643Y0096412D02*
X0153116Y0096412D01*
X0152452Y0097411D02*
X0154096Y0097411D01*
X0153916Y0098409D02*
X0152452Y0098409D01*
X0152166Y0099408D02*
X0154021Y0099408D01*
X0152239Y0100406D02*
X0148720Y0100406D01*
X0148720Y0101405D02*
X0152109Y0101405D01*
X0152109Y0102403D02*
X0148720Y0102403D01*
X0144720Y0102403D02*
X0133306Y0102403D01*
X0132972Y0101405D02*
X0144720Y0101405D01*
X0144720Y0100406D02*
X0132972Y0100406D01*
X0134746Y0103402D02*
X0144720Y0103402D01*
X0144047Y0104400D02*
X0135299Y0104400D01*
X0135484Y0105399D02*
X0143049Y0105399D01*
X0142050Y0106397D02*
X0135383Y0106397D01*
X0134949Y0107396D02*
X0141052Y0107396D01*
X0140053Y0108394D02*
X0133795Y0108394D01*
X0130605Y0108394D02*
X0129822Y0108394D01*
X0129822Y0109393D02*
X0139054Y0109393D01*
X0138056Y0110391D02*
X0129822Y0110391D01*
X0129822Y0111390D02*
X0137057Y0111390D01*
X0136059Y0112388D02*
X0129822Y0112388D01*
X0129822Y0113387D02*
X0135060Y0113387D01*
X0134062Y0114385D02*
X0129822Y0114385D01*
X0129822Y0115384D02*
X0133063Y0115384D01*
X0132065Y0116382D02*
X0129822Y0116382D01*
X0129822Y0117381D02*
X0131066Y0117381D01*
X0130068Y0118379D02*
X0129822Y0118379D01*
X0124672Y0116500D02*
X0124672Y0095547D01*
X0127822Y0095547D02*
X0127822Y0123500D01*
X0127822Y0123878D01*
X0129584Y0125369D02*
X0152109Y0125369D01*
X0152109Y0124370D02*
X0130582Y0124370D01*
X0131581Y0123372D02*
X0152109Y0123372D01*
X0152109Y0122373D02*
X0132579Y0122373D01*
X0133578Y0121375D02*
X0152109Y0121375D01*
X0152109Y0120376D02*
X0134576Y0120376D01*
X0135575Y0119378D02*
X0152139Y0119378D01*
X0156562Y0114839D02*
X0165861Y0114839D01*
X0166200Y0114500D01*
X0166200Y0106500D01*
X0189500Y0083100D01*
X0192365Y0081434D02*
X0193013Y0081434D01*
X0194011Y0080436D02*
X0191481Y0080436D01*
X0195010Y0079437D02*
X0161414Y0079437D01*
X0161724Y0078439D02*
X0195200Y0078439D01*
X0195200Y0077440D02*
X0161724Y0077440D01*
X0156200Y0090500D02*
X0151153Y0095547D01*
X0149869Y0095547D01*
X0151898Y0091420D02*
X0152452Y0091420D01*
X0159757Y0096412D02*
X0161459Y0096412D01*
X0160461Y0097411D02*
X0160304Y0097411D01*
X0157200Y0098500D02*
X0157200Y0102240D01*
X0156562Y0102240D01*
X0168200Y0112388D02*
X0168669Y0112388D01*
X0168669Y0113387D02*
X0168200Y0113387D01*
X0168200Y0114385D02*
X0168669Y0114385D01*
X0169089Y0115384D02*
X0168145Y0115384D01*
X0161770Y0117381D02*
X0161015Y0117381D01*
X0166754Y0120376D02*
X0168669Y0120376D01*
X0168669Y0121375D02*
X0167932Y0121375D01*
X0168376Y0122373D02*
X0168669Y0122373D01*
X0168484Y0123372D02*
X0178285Y0123372D01*
X0178900Y0124370D02*
X0168306Y0124370D01*
X0167763Y0125369D02*
X0178900Y0125369D01*
X0178900Y0126368D02*
X0166346Y0126368D01*
X0166484Y0127366D02*
X0178900Y0127366D01*
X0178900Y0128365D02*
X0166397Y0128365D01*
X0165982Y0129363D02*
X0178900Y0129363D01*
X0178900Y0130362D02*
X0166032Y0130362D01*
X0166446Y0131360D02*
X0178900Y0131360D01*
X0178900Y0132359D02*
X0166484Y0132359D01*
X0166237Y0133357D02*
X0178900Y0133357D01*
X0178900Y0134356D02*
X0165700Y0134356D01*
X0166280Y0135354D02*
X0178900Y0135354D01*
X0178900Y0136353D02*
X0166484Y0136353D01*
X0166402Y0137351D02*
X0178900Y0137351D01*
X0178900Y0138350D02*
X0165989Y0138350D01*
X0164906Y0139348D02*
X0178900Y0139348D01*
X0178900Y0140347D02*
X0157340Y0140347D01*
X0158338Y0141345D02*
X0178900Y0141345D01*
X0178900Y0142344D02*
X0159337Y0142344D01*
X0161494Y0139348D02*
X0156341Y0139348D01*
X0154869Y0140705D02*
X0161444Y0147280D01*
X0156991Y0147336D02*
X0150408Y0147336D01*
X0150484Y0146338D02*
X0156991Y0146338D01*
X0156675Y0145339D02*
X0150274Y0145339D01*
X0152114Y0144341D02*
X0155677Y0144341D01*
X0154678Y0143342D02*
X0152452Y0143342D01*
X0154869Y0140705D02*
X0149869Y0140705D01*
X0149869Y0140429D01*
X0146720Y0140429D02*
X0146720Y0146020D01*
X0147200Y0146500D01*
X0148942Y0149333D02*
X0156991Y0149333D01*
X0156991Y0148335D02*
X0149995Y0148335D01*
X0147484Y0150332D02*
X0156991Y0150332D01*
X0157241Y0151330D02*
X0147411Y0151330D01*
X0146997Y0152329D02*
X0156991Y0152329D01*
X0156991Y0153327D02*
X0145956Y0153327D01*
X0143665Y0154326D02*
X0156991Y0154326D01*
X0156991Y0155324D02*
X0143506Y0155324D01*
X0142990Y0156323D02*
X0156991Y0156323D01*
X0156991Y0157321D02*
X0141639Y0157321D01*
X0141484Y0158320D02*
X0157371Y0158320D01*
X0161444Y0154760D02*
X0168869Y0154760D01*
X0169050Y0154941D01*
X0172913Y0155324D02*
X0177123Y0155324D01*
X0178121Y0154326D02*
X0172913Y0154326D01*
X0172913Y0153327D02*
X0178900Y0153327D01*
X0178900Y0152329D02*
X0172913Y0152329D01*
X0172285Y0151330D02*
X0178900Y0151330D01*
X0178900Y0150332D02*
X0172167Y0150332D01*
X0172334Y0150236D02*
X0171992Y0150433D01*
X0171610Y0150535D01*
X0169550Y0150535D01*
X0169550Y0147173D01*
X0172913Y0147173D01*
X0172913Y0149233D01*
X0172810Y0149614D01*
X0172613Y0149956D01*
X0172334Y0150236D01*
X0172886Y0149333D02*
X0178900Y0149333D01*
X0178900Y0148335D02*
X0172913Y0148335D01*
X0172913Y0147336D02*
X0178900Y0147336D01*
X0178900Y0146338D02*
X0169550Y0146338D01*
X0169550Y0147336D02*
X0168550Y0147336D01*
X0168550Y0148335D02*
X0169550Y0148335D01*
X0169550Y0149333D02*
X0168550Y0149333D01*
X0168550Y0150332D02*
X0169550Y0150332D01*
X0165934Y0150332D02*
X0165897Y0150332D01*
X0165815Y0151330D02*
X0165648Y0151330D01*
X0168550Y0145339D02*
X0169550Y0145339D01*
X0169550Y0144341D02*
X0168550Y0144341D01*
X0168550Y0143342D02*
X0169550Y0143342D01*
X0172565Y0143342D02*
X0178900Y0143342D01*
X0178900Y0144341D02*
X0172913Y0144341D01*
X0172913Y0145339D02*
X0178900Y0145339D01*
X0183500Y0145339D02*
X0223407Y0145339D01*
X0222993Y0144341D02*
X0183500Y0144341D01*
X0183500Y0143342D02*
X0222916Y0143342D01*
X0223124Y0142344D02*
X0183500Y0142344D01*
X0183500Y0141345D02*
X0223710Y0141345D01*
X0224200Y0140347D02*
X0183500Y0140347D01*
X0183500Y0139348D02*
X0223802Y0139348D01*
X0222983Y0138350D02*
X0203117Y0138350D01*
X0203692Y0137351D02*
X0214323Y0137351D01*
X0215716Y0137351D02*
X0216716Y0137351D01*
X0216716Y0136353D02*
X0215716Y0136353D01*
X0215716Y0135354D02*
X0216716Y0135354D01*
X0216716Y0134356D02*
X0222983Y0134356D01*
X0222983Y0135354D02*
X0219823Y0135354D01*
X0219269Y0136353D02*
X0222983Y0136353D01*
X0222983Y0137351D02*
X0218109Y0137351D01*
X0213162Y0136353D02*
X0203692Y0136353D01*
X0203692Y0135354D02*
X0212608Y0135354D01*
X0212377Y0133471D02*
X0212502Y0132844D01*
X0212793Y0132141D01*
X0213216Y0131509D01*
X0213754Y0130971D01*
X0214386Y0130548D01*
X0215089Y0130257D01*
X0215716Y0130132D01*
X0215716Y0133471D01*
X0212377Y0133471D01*
X0212400Y0133357D02*
X0203692Y0133357D01*
X0203692Y0132359D02*
X0212703Y0132359D01*
X0213365Y0131360D02*
X0203697Y0131360D01*
X0203708Y0130362D02*
X0214837Y0130362D01*
X0215716Y0130362D02*
X0216716Y0130362D01*
X0216716Y0131360D02*
X0215716Y0131360D01*
X0215716Y0132359D02*
X0216716Y0132359D01*
X0216716Y0133357D02*
X0215716Y0133357D01*
X0215716Y0134356D02*
X0200330Y0134356D01*
X0200330Y0135354D02*
X0199330Y0135354D01*
X0199330Y0135291D02*
X0199330Y0138654D01*
X0197270Y0138654D01*
X0196889Y0138551D01*
X0196547Y0138354D01*
X0196267Y0138075D01*
X0196070Y0137733D01*
X0195968Y0137351D01*
X0195424Y0137351D01*
X0195968Y0137351D02*
X0195968Y0135291D01*
X0199330Y0135291D01*
X0199330Y0134356D02*
X0195424Y0134356D01*
X0195424Y0135354D02*
X0195968Y0135354D01*
X0195968Y0136353D02*
X0195424Y0136353D01*
X0194850Y0138350D02*
X0196543Y0138350D01*
X0199330Y0138350D02*
X0200330Y0138350D01*
X0200330Y0137351D02*
X0199330Y0137351D01*
X0199330Y0136353D02*
X0200330Y0136353D01*
X0195968Y0133357D02*
X0195424Y0133357D01*
X0195424Y0132359D02*
X0195968Y0132359D01*
X0191562Y0134791D02*
X0191562Y0128382D01*
X0192169Y0127776D01*
X0188109Y0127366D02*
X0183500Y0127366D01*
X0183500Y0126368D02*
X0188109Y0126368D01*
X0188109Y0125369D02*
X0183500Y0125369D01*
X0183500Y0124370D02*
X0188109Y0124370D01*
X0188939Y0123372D02*
X0183581Y0123372D01*
X0184579Y0122373D02*
X0188417Y0122373D01*
X0187952Y0121375D02*
X0185578Y0121375D01*
X0186500Y0120376D02*
X0187952Y0120376D01*
X0187952Y0119378D02*
X0186500Y0119378D01*
X0186500Y0118379D02*
X0187952Y0118379D01*
X0187952Y0117381D02*
X0186500Y0117381D01*
X0186500Y0116382D02*
X0187952Y0116382D01*
X0187952Y0115384D02*
X0186500Y0115384D01*
X0186500Y0114385D02*
X0188011Y0114385D01*
X0187818Y0113387D02*
X0186500Y0113387D01*
X0186500Y0112388D02*
X0187818Y0112388D01*
X0187818Y0111390D02*
X0186500Y0111390D01*
X0186500Y0110391D02*
X0187818Y0110391D01*
X0187818Y0109393D02*
X0186500Y0109393D01*
X0186500Y0108394D02*
X0187818Y0108394D01*
X0188647Y0107396D02*
X0186500Y0107396D01*
X0186500Y0106397D02*
X0188330Y0106397D01*
X0188330Y0105399D02*
X0186500Y0105399D01*
X0186500Y0104400D02*
X0188330Y0104400D01*
X0188330Y0103402D02*
X0186500Y0103402D01*
X0186500Y0102403D02*
X0188330Y0102403D01*
X0188330Y0101405D02*
X0186500Y0101405D01*
X0186500Y0100406D02*
X0188330Y0100406D01*
X0188683Y0099408D02*
X0186500Y0099408D01*
X0186500Y0098409D02*
X0188413Y0098409D01*
X0188196Y0097411D02*
X0186500Y0097411D01*
X0186500Y0096412D02*
X0188196Y0096412D01*
X0188196Y0095414D02*
X0186500Y0095414D01*
X0186538Y0094415D02*
X0188196Y0094415D01*
X0188196Y0093417D02*
X0187536Y0093417D01*
X0189606Y0091346D02*
X0195042Y0091346D01*
X0195920Y0092225D01*
X0195920Y0098192D01*
X0195231Y0098882D01*
X0195569Y0098882D01*
X0196129Y0099442D01*
X0196689Y0098882D01*
X0197235Y0098882D01*
X0197043Y0098771D01*
X0196763Y0098492D01*
X0196566Y0098150D01*
X0196464Y0097768D01*
X0196464Y0095709D01*
X0199826Y0095709D01*
X0199826Y0094709D01*
X0196464Y0094709D01*
X0196464Y0092649D01*
X0196566Y0092267D01*
X0196763Y0091925D01*
X0197043Y0091646D01*
X0197385Y0091449D01*
X0197766Y0091346D01*
X0199826Y0091346D01*
X0199826Y0094709D01*
X0200826Y0094709D01*
X0200826Y0095709D01*
X0204188Y0095709D01*
X0204188Y0097768D01*
X0204086Y0098150D01*
X0203888Y0098492D01*
X0203609Y0098771D01*
X0203267Y0098969D01*
X0203164Y0098996D01*
X0203928Y0099761D01*
X0203928Y0101400D01*
X0209028Y0106500D01*
X0210200Y0107672D01*
X0210200Y0110855D01*
X0210811Y0111467D01*
X0210945Y0111333D01*
X0210779Y0111167D01*
X0210779Y0106775D01*
X0210945Y0106609D01*
X0210779Y0106443D01*
X0210779Y0102401D01*
X0209853Y0102784D01*
X0208547Y0102784D01*
X0207340Y0102284D01*
X0206416Y0101360D01*
X0205916Y0100153D01*
X0205916Y0098847D01*
X0206416Y0097640D01*
X0207340Y0096716D01*
X0208547Y0096216D01*
X0209853Y0096216D01*
X0211060Y0096716D01*
X0211225Y0096880D01*
X0211657Y0096447D01*
X0220136Y0096447D01*
X0218975Y0095966D01*
X0218000Y0094991D01*
X0217472Y0093716D01*
X0217472Y0092355D01*
X0217342Y0092409D01*
X0216716Y0092534D01*
X0216716Y0089195D01*
X0220054Y0089195D01*
X0219958Y0089679D01*
X0220250Y0089557D01*
X0221630Y0089557D01*
X0222905Y0090086D01*
X0222983Y0090164D01*
X0222983Y0084137D01*
X0223862Y0083258D01*
X0228254Y0083258D01*
X0228420Y0083424D01*
X0228587Y0083258D01*
X0229200Y0083258D01*
X0229200Y0083145D01*
X0228416Y0082360D01*
X0227916Y0081153D01*
X0227916Y0079847D01*
X0228416Y0078640D01*
X0229340Y0077716D01*
X0230547Y0077216D01*
X0231853Y0077216D01*
X0233060Y0077716D01*
X0233984Y0078640D01*
X0234484Y0079847D01*
X0234484Y0081153D01*
X0233984Y0082360D01*
X0233200Y0083145D01*
X0233200Y0083369D01*
X0233311Y0083258D01*
X0237703Y0083258D01*
X0237869Y0083424D01*
X0238035Y0083258D01*
X0242428Y0083258D01*
X0242594Y0083424D01*
X0242760Y0083258D01*
X0247152Y0083258D01*
X0247318Y0083424D01*
X0247484Y0083258D01*
X0251690Y0083258D01*
X0251690Y0079925D01*
X0250509Y0079925D01*
X0249631Y0079047D01*
X0249631Y0076600D01*
X0227070Y0076600D01*
X0222300Y0081370D01*
X0221070Y0082600D01*
X0198353Y0082600D01*
X0189606Y0091346D01*
X0190532Y0090421D02*
X0212750Y0090421D01*
X0212793Y0090525D02*
X0212502Y0089822D01*
X0212377Y0089195D01*
X0215716Y0089195D01*
X0215716Y0088195D01*
X0216716Y0088195D01*
X0216716Y0089195D01*
X0215716Y0089195D01*
X0215716Y0092534D01*
X0215089Y0092409D01*
X0214386Y0092118D01*
X0213754Y0091695D01*
X0213216Y0091157D01*
X0212793Y0090525D01*
X0213478Y0091420D02*
X0203159Y0091420D01*
X0203267Y0091449D02*
X0203609Y0091646D01*
X0203888Y0091925D01*
X0204086Y0092267D01*
X0204188Y0092649D01*
X0204188Y0094709D01*
X0200826Y0094709D01*
X0200826Y0091346D01*
X0202886Y0091346D01*
X0203267Y0091449D01*
X0204126Y0092418D02*
X0215135Y0092418D01*
X0215716Y0092418D02*
X0216716Y0092418D01*
X0217297Y0092418D02*
X0217472Y0092418D01*
X0217472Y0093417D02*
X0204188Y0093417D01*
X0204188Y0094415D02*
X0217761Y0094415D01*
X0218423Y0095414D02*
X0200826Y0095414D01*
X0200326Y0095209D02*
X0203491Y0095209D01*
X0206200Y0092500D01*
X0208073Y0096412D02*
X0204188Y0096412D01*
X0204188Y0097411D02*
X0206645Y0097411D01*
X0206097Y0098409D02*
X0203936Y0098409D01*
X0203575Y0099408D02*
X0205916Y0099408D01*
X0206021Y0100406D02*
X0203928Y0100406D01*
X0203933Y0101405D02*
X0206460Y0101405D01*
X0207627Y0102403D02*
X0204932Y0102403D01*
X0205930Y0103402D02*
X0210779Y0103402D01*
X0210779Y0104400D02*
X0206929Y0104400D01*
X0207927Y0105399D02*
X0210779Y0105399D01*
X0210779Y0106397D02*
X0208926Y0106397D01*
X0209924Y0107396D02*
X0210779Y0107396D01*
X0210779Y0108394D02*
X0210200Y0108394D01*
X0210200Y0109393D02*
X0210779Y0109393D01*
X0210779Y0110391D02*
X0210200Y0110391D01*
X0210734Y0111390D02*
X0210888Y0111390D01*
X0208200Y0113500D02*
X0208200Y0108500D01*
X0203035Y0103335D01*
X0199869Y0103335D01*
X0203854Y0106983D02*
X0203206Y0107631D01*
X0203231Y0107646D01*
X0203511Y0107925D01*
X0203708Y0108267D01*
X0203810Y0108649D01*
X0203810Y0110709D01*
X0200448Y0110709D01*
X0200448Y0111709D01*
X0203810Y0111709D01*
X0203810Y0113768D01*
X0203708Y0114150D01*
X0203511Y0114492D01*
X0203396Y0114606D01*
X0203550Y0114761D01*
X0203550Y0116335D01*
X0205933Y0116335D01*
X0206162Y0116106D01*
X0205416Y0115360D01*
X0204916Y0114153D01*
X0204916Y0112847D01*
X0205416Y0111640D01*
X0206200Y0110855D01*
X0206200Y0109328D01*
X0203854Y0106983D01*
X0203441Y0107396D02*
X0204267Y0107396D01*
X0203742Y0108394D02*
X0205266Y0108394D01*
X0206200Y0109393D02*
X0203810Y0109393D01*
X0203810Y0110391D02*
X0206200Y0110391D01*
X0205666Y0111390D02*
X0200448Y0111390D01*
X0199948Y0111209D02*
X0202491Y0111209D01*
X0204924Y0110106D01*
X0205106Y0112388D02*
X0203810Y0112388D01*
X0203810Y0113387D02*
X0204916Y0113387D01*
X0205012Y0114385D02*
X0203572Y0114385D01*
X0203550Y0115384D02*
X0205439Y0115384D01*
X0208200Y0113500D02*
X0209200Y0114500D01*
X0215411Y0114500D01*
X0216216Y0113695D01*
X0221653Y0113387D02*
X0272401Y0113387D01*
X0272401Y0114385D02*
X0221653Y0114385D01*
X0221653Y0115384D02*
X0272401Y0115384D01*
X0272401Y0116382D02*
X0221653Y0116382D01*
X0221653Y0117381D02*
X0272401Y0117381D01*
X0272401Y0118379D02*
X0221653Y0118379D01*
X0221653Y0119378D02*
X0272401Y0119378D01*
X0272401Y0120376D02*
X0221653Y0120376D01*
X0221653Y0121375D02*
X0272401Y0121375D01*
X0272401Y0122373D02*
X0221653Y0122373D01*
X0221653Y0123372D02*
X0272401Y0123372D01*
X0272401Y0124370D02*
X0221653Y0124370D01*
X0221624Y0125369D02*
X0272401Y0125369D01*
X0272401Y0126368D02*
X0222578Y0126368D01*
X0223768Y0127366D02*
X0264313Y0127366D01*
X0264345Y0127353D02*
X0268087Y0127353D01*
X0269362Y0127881D01*
X0270337Y0128857D01*
X0270865Y0130131D01*
X0270865Y0131511D01*
X0270337Y0132786D01*
X0269362Y0133762D01*
X0268087Y0134290D01*
X0264345Y0134290D01*
X0263070Y0133762D01*
X0262204Y0132896D01*
X0262204Y0133683D01*
X0259417Y0133683D01*
X0259417Y0128534D01*
X0260901Y0128534D01*
X0261283Y0128636D01*
X0261625Y0128834D01*
X0261904Y0129113D01*
X0261953Y0129197D01*
X0262094Y0128857D01*
X0263070Y0127881D01*
X0264345Y0127353D01*
X0262586Y0128365D02*
X0224248Y0128365D01*
X0219302Y0126368D02*
X0209859Y0126368D01*
X0207162Y0127366D02*
X0218112Y0127366D01*
X0217633Y0128365D02*
X0206164Y0128365D01*
X0205165Y0129363D02*
X0217472Y0129363D01*
X0220032Y0133357D02*
X0222983Y0133357D01*
X0222983Y0132359D02*
X0222930Y0132359D01*
X0226058Y0133971D02*
X0226200Y0134113D01*
X0226200Y0143500D01*
X0224469Y0146338D02*
X0183500Y0146338D01*
X0183500Y0147336D02*
X0226535Y0147336D01*
X0225537Y0148335D02*
X0183500Y0148335D01*
X0183500Y0149333D02*
X0221803Y0149333D01*
X0221157Y0150332D02*
X0183500Y0150332D01*
X0183500Y0151330D02*
X0221157Y0151330D01*
X0221157Y0152329D02*
X0183500Y0152329D01*
X0183500Y0153327D02*
X0221157Y0153327D01*
X0221157Y0154326D02*
X0183500Y0154326D01*
X0183500Y0155324D02*
X0221157Y0155324D01*
X0221157Y0156323D02*
X0182630Y0156323D01*
X0181631Y0157321D02*
X0221364Y0157321D01*
X0221157Y0158320D02*
X0180633Y0158320D01*
X0179634Y0159318D02*
X0221157Y0159318D01*
X0221157Y0161139D02*
X0225110Y0161139D01*
X0225110Y0164698D01*
X0222460Y0164698D01*
X0222078Y0164596D01*
X0221736Y0164399D01*
X0221457Y0164119D01*
X0221260Y0163777D01*
X0221157Y0163396D01*
X0221157Y0161139D01*
X0221157Y0161315D02*
X0177637Y0161315D01*
X0178636Y0160317D02*
X0225110Y0160317D01*
X0225110Y0161315D02*
X0226110Y0161315D01*
X0226110Y0160317D02*
X0272401Y0160317D01*
X0272401Y0161315D02*
X0230063Y0161315D01*
X0230063Y0162314D02*
X0272401Y0162314D01*
X0272401Y0163312D02*
X0230063Y0163312D01*
X0229572Y0164311D02*
X0272401Y0164311D01*
X0272401Y0165309D02*
X0180079Y0165309D01*
X0179853Y0165216D02*
X0181060Y0165716D01*
X0181984Y0166640D01*
X0182484Y0167847D01*
X0182484Y0169153D01*
X0181984Y0170360D01*
X0181200Y0171145D01*
X0181200Y0172803D01*
X0181715Y0172803D01*
X0182594Y0173682D01*
X0182594Y0181224D01*
X0181715Y0182102D01*
X0177323Y0182102D01*
X0177058Y0181838D01*
X0176794Y0182102D01*
X0172402Y0182102D01*
X0171523Y0181224D01*
X0171523Y0173682D01*
X0172130Y0173075D01*
X0171416Y0172360D01*
X0170916Y0171153D01*
X0170916Y0169847D01*
X0171416Y0168640D01*
X0172340Y0167716D01*
X0173547Y0167216D01*
X0174853Y0167216D01*
X0175983Y0167684D01*
X0176416Y0166640D01*
X0177340Y0165716D01*
X0178547Y0165216D01*
X0179853Y0165216D01*
X0178320Y0165309D02*
X0173643Y0165309D01*
X0174642Y0164311D02*
X0221649Y0164311D01*
X0221157Y0163312D02*
X0175640Y0163312D01*
X0176639Y0162314D02*
X0221157Y0162314D01*
X0225110Y0162314D02*
X0226110Y0162314D01*
X0226110Y0163312D02*
X0225110Y0163312D01*
X0225110Y0164311D02*
X0226110Y0164311D01*
X0230063Y0159318D02*
X0272401Y0159318D01*
X0272401Y0158320D02*
X0230063Y0158320D01*
X0229857Y0157321D02*
X0272401Y0157321D01*
X0272401Y0156323D02*
X0230063Y0156323D01*
X0230063Y0155324D02*
X0272401Y0155324D01*
X0272401Y0154326D02*
X0230063Y0154326D01*
X0230063Y0153327D02*
X0238444Y0153327D01*
X0237403Y0152329D02*
X0230063Y0152329D01*
X0230063Y0151330D02*
X0233451Y0151330D01*
X0232404Y0150332D02*
X0230063Y0150332D01*
X0230195Y0149333D02*
X0231990Y0149333D01*
X0235200Y0148500D02*
X0235200Y0134278D01*
X0235507Y0133971D01*
X0231200Y0134388D02*
X0230783Y0133971D01*
X0231200Y0134388D02*
X0231200Y0145500D01*
X0225610Y0151090D01*
X0225610Y0153159D01*
X0236949Y0151330D02*
X0236989Y0151330D01*
X0240200Y0150500D02*
X0240200Y0134002D01*
X0240231Y0133971D01*
X0242487Y0139348D02*
X0242700Y0139348D01*
X0242200Y0140347D02*
X0272401Y0140347D01*
X0272401Y0141345D02*
X0242200Y0141345D01*
X0242200Y0142344D02*
X0272401Y0142344D01*
X0272401Y0143342D02*
X0242200Y0143342D01*
X0242200Y0144341D02*
X0272401Y0144341D01*
X0272401Y0145339D02*
X0242200Y0145339D01*
X0242200Y0146338D02*
X0272401Y0146338D01*
X0272401Y0147336D02*
X0242200Y0147336D01*
X0242679Y0148335D02*
X0272401Y0148335D01*
X0272401Y0149333D02*
X0243272Y0149333D01*
X0243484Y0150332D02*
X0272401Y0150332D01*
X0272401Y0151330D02*
X0243411Y0151330D01*
X0242997Y0152329D02*
X0272401Y0152329D01*
X0272401Y0153327D02*
X0241956Y0153327D01*
X0247212Y0139348D02*
X0247424Y0139348D01*
X0251936Y0139348D02*
X0252149Y0139348D01*
X0256661Y0139348D02*
X0257134Y0139348D01*
X0258842Y0139348D02*
X0259417Y0139348D01*
X0259417Y0138350D02*
X0258842Y0138350D01*
X0258842Y0137351D02*
X0259417Y0137351D01*
X0259417Y0136353D02*
X0258842Y0136353D01*
X0258842Y0135354D02*
X0259417Y0135354D01*
X0259417Y0134356D02*
X0258842Y0134356D01*
X0258842Y0133357D02*
X0259417Y0133357D01*
X0259417Y0132359D02*
X0258842Y0132359D01*
X0258842Y0131360D02*
X0259417Y0131360D01*
X0259417Y0130362D02*
X0258842Y0130362D01*
X0258842Y0129363D02*
X0259417Y0129363D01*
X0262204Y0133357D02*
X0262665Y0133357D01*
X0262204Y0134356D02*
X0272401Y0134356D01*
X0272401Y0135354D02*
X0262204Y0135354D01*
X0262204Y0136353D02*
X0272401Y0136353D01*
X0272401Y0137351D02*
X0262204Y0137351D01*
X0262138Y0138350D02*
X0272401Y0138350D01*
X0272401Y0139348D02*
X0261124Y0139348D01*
X0269766Y0133357D02*
X0272401Y0133357D01*
X0272401Y0132359D02*
X0270514Y0132359D01*
X0270865Y0131360D02*
X0272401Y0131360D01*
X0272401Y0130362D02*
X0270865Y0130362D01*
X0270547Y0129363D02*
X0272401Y0129363D01*
X0272401Y0128365D02*
X0269845Y0128365D01*
X0268119Y0127366D02*
X0272401Y0127366D01*
X0272401Y0112388D02*
X0221653Y0112388D01*
X0221543Y0111390D02*
X0272401Y0111390D01*
X0272401Y0110391D02*
X0221653Y0110391D01*
X0221653Y0109393D02*
X0272401Y0109393D01*
X0272401Y0108394D02*
X0221653Y0108394D01*
X0221653Y0107396D02*
X0272401Y0107396D01*
X0272401Y0106397D02*
X0221653Y0106397D01*
X0221653Y0105399D02*
X0272401Y0105399D01*
X0272401Y0104400D02*
X0222128Y0104400D01*
X0223127Y0103402D02*
X0272401Y0103402D01*
X0272401Y0102403D02*
X0224125Y0102403D01*
X0225770Y0101405D02*
X0272401Y0101405D01*
X0272401Y0100406D02*
X0226938Y0100406D01*
X0227379Y0099408D02*
X0272401Y0099408D01*
X0272401Y0098409D02*
X0227484Y0098409D01*
X0227304Y0097411D02*
X0272401Y0097411D01*
X0272401Y0096412D02*
X0226757Y0096412D01*
X0225331Y0095414D02*
X0272401Y0095414D01*
X0272401Y0094415D02*
X0269732Y0094415D01*
X0270500Y0093417D02*
X0272401Y0093417D01*
X0272401Y0092418D02*
X0270865Y0092418D01*
X0270865Y0091420D02*
X0272401Y0091420D01*
X0272401Y0090421D02*
X0270561Y0090421D01*
X0269880Y0089423D02*
X0272401Y0089423D01*
X0272401Y0088424D02*
X0268202Y0088424D01*
X0264230Y0088424D02*
X0259417Y0088424D01*
X0259417Y0088408D02*
X0262204Y0088408D01*
X0262204Y0084561D01*
X0262102Y0084179D01*
X0261904Y0083837D01*
X0261625Y0083558D01*
X0261283Y0083360D01*
X0260901Y0083258D01*
X0259417Y0083258D01*
X0259417Y0088408D01*
X0259417Y0087426D02*
X0258842Y0087426D01*
X0258842Y0086427D02*
X0259417Y0086427D01*
X0259417Y0085429D02*
X0258842Y0085429D01*
X0258842Y0084430D02*
X0259417Y0084430D01*
X0259417Y0083432D02*
X0258842Y0083432D01*
X0256852Y0083432D02*
X0256774Y0083432D01*
X0255690Y0082433D02*
X0272401Y0082433D01*
X0272401Y0081434D02*
X0255690Y0081434D01*
X0255690Y0080436D02*
X0272401Y0080436D01*
X0272401Y0079437D02*
X0264838Y0079437D01*
X0265229Y0078439D02*
X0272401Y0078439D01*
X0272401Y0077440D02*
X0265229Y0077440D01*
X0265229Y0076442D02*
X0272401Y0076442D01*
X0272401Y0075443D02*
X0261670Y0075443D01*
X0261670Y0074445D02*
X0260670Y0074445D01*
X0260670Y0073446D02*
X0261670Y0073446D01*
X0261670Y0072448D02*
X0260670Y0072448D01*
X0260670Y0071449D02*
X0261670Y0071449D01*
X0264780Y0071449D02*
X0272401Y0071449D01*
X0272401Y0070451D02*
X0213949Y0070451D01*
X0213949Y0071449D02*
X0250080Y0071449D01*
X0252717Y0074500D02*
X0253690Y0075472D01*
X0253690Y0087980D01*
X0254405Y0088695D01*
X0258842Y0089423D02*
X0259417Y0089423D01*
X0259417Y0090421D02*
X0258842Y0090421D01*
X0258842Y0091420D02*
X0259417Y0091420D01*
X0259417Y0092418D02*
X0258842Y0092418D01*
X0258842Y0093417D02*
X0259417Y0093417D01*
X0262700Y0094415D02*
X0224119Y0094415D01*
X0220052Y0096412D02*
X0210327Y0096412D01*
X0209200Y0099500D02*
X0216194Y0099500D01*
X0216216Y0099522D01*
X0216962Y0103500D02*
X0216216Y0104246D01*
X0216962Y0103500D02*
X0220200Y0103500D01*
X0224200Y0099500D01*
X0224200Y0098500D01*
X0216716Y0091420D02*
X0215716Y0091420D01*
X0215716Y0090421D02*
X0216716Y0090421D01*
X0216716Y0089423D02*
X0215716Y0089423D01*
X0215716Y0088424D02*
X0192529Y0088424D01*
X0193527Y0087426D02*
X0212561Y0087426D01*
X0212502Y0087569D02*
X0212793Y0086866D01*
X0213216Y0086233D01*
X0213754Y0085695D01*
X0214386Y0085273D01*
X0215089Y0084981D01*
X0215716Y0084857D01*
X0215716Y0088195D01*
X0212377Y0088195D01*
X0212502Y0087569D01*
X0213086Y0086427D02*
X0194526Y0086427D01*
X0195524Y0085429D02*
X0214153Y0085429D01*
X0215716Y0085429D02*
X0216716Y0085429D01*
X0216716Y0084857D02*
X0217342Y0084981D01*
X0218045Y0085273D01*
X0218678Y0085695D01*
X0219216Y0086233D01*
X0219638Y0086866D01*
X0219930Y0087569D01*
X0220054Y0088195D01*
X0216716Y0088195D01*
X0216716Y0084857D01*
X0216716Y0086427D02*
X0215716Y0086427D01*
X0215716Y0087426D02*
X0216716Y0087426D01*
X0216716Y0088424D02*
X0222983Y0088424D01*
X0222983Y0087426D02*
X0219870Y0087426D01*
X0219345Y0086427D02*
X0222983Y0086427D01*
X0222983Y0085429D02*
X0218279Y0085429D01*
X0221237Y0082433D02*
X0228488Y0082433D01*
X0228032Y0081434D02*
X0222235Y0081434D01*
X0222300Y0081370D02*
X0222300Y0081370D01*
X0223234Y0080436D02*
X0227916Y0080436D01*
X0228085Y0079437D02*
X0224232Y0079437D01*
X0225231Y0078439D02*
X0228616Y0078439D01*
X0230004Y0077440D02*
X0226229Y0077440D01*
X0222287Y0075443D02*
X0211785Y0075443D01*
X0212783Y0074445D02*
X0223285Y0074445D01*
X0224100Y0073630D02*
X0224100Y0073630D01*
X0224284Y0073446D02*
X0213782Y0073446D01*
X0213949Y0072448D02*
X0225282Y0072448D01*
X0221288Y0076442D02*
X0210786Y0076442D01*
X0213949Y0069452D02*
X0272401Y0069452D01*
X0272401Y0068454D02*
X0213949Y0068454D01*
X0213949Y0067455D02*
X0272401Y0067455D01*
X0272401Y0066457D02*
X0213949Y0066457D01*
X0213949Y0065458D02*
X0272401Y0065458D01*
X0272401Y0064460D02*
X0213949Y0064460D01*
X0213949Y0063461D02*
X0272401Y0063461D01*
X0272401Y0062463D02*
X0213949Y0062463D01*
X0213949Y0061464D02*
X0272401Y0061464D01*
X0272401Y0060466D02*
X0213949Y0060466D01*
X0213949Y0059467D02*
X0272401Y0059467D01*
X0272401Y0058469D02*
X0239951Y0058469D01*
X0240314Y0058106D02*
X0239435Y0058984D01*
X0233075Y0058984D01*
X0232515Y0058424D01*
X0231955Y0058984D01*
X0225594Y0058984D01*
X0224716Y0058106D01*
X0224716Y0056629D01*
X0224060Y0057284D01*
X0222853Y0057784D01*
X0221547Y0057784D01*
X0220340Y0057284D01*
X0219416Y0056360D01*
X0218916Y0055153D01*
X0218916Y0053847D01*
X0219416Y0052640D01*
X0220340Y0051716D01*
X0221547Y0051216D01*
X0222853Y0051216D01*
X0224060Y0051716D01*
X0224716Y0052371D01*
X0224716Y0050957D01*
X0225594Y0050079D01*
X0231955Y0050079D01*
X0232515Y0050639D01*
X0233075Y0050079D01*
X0234255Y0050079D01*
X0234255Y0049520D01*
X0233665Y0049520D01*
X0232787Y0048641D01*
X0232787Y0042674D01*
X0233665Y0041795D01*
X0239632Y0041795D01*
X0240511Y0042674D01*
X0240511Y0048641D01*
X0239632Y0049520D01*
X0238255Y0049520D01*
X0238255Y0050079D01*
X0239435Y0050079D01*
X0240314Y0050957D01*
X0240314Y0058106D01*
X0240314Y0057470D02*
X0272401Y0057470D01*
X0272401Y0056472D02*
X0240314Y0056472D01*
X0240314Y0055473D02*
X0243659Y0055473D01*
X0243204Y0055018D02*
X0243204Y0048926D01*
X0245297Y0046833D01*
X0246644Y0045486D01*
X0248550Y0045486D01*
X0250454Y0047390D01*
X0250454Y0046833D01*
X0251802Y0045486D01*
X0257893Y0045486D01*
X0258473Y0046065D01*
X0259052Y0045486D01*
X0262004Y0045486D01*
X0262864Y0046346D01*
X0263724Y0045486D01*
X0267722Y0045486D01*
X0269069Y0046833D01*
X0270116Y0047880D01*
X0270116Y0053971D01*
X0269077Y0055010D01*
X0269069Y0055018D01*
X0268532Y0055556D01*
X0267722Y0056365D01*
X0263724Y0056365D01*
X0262937Y0055579D01*
X0262376Y0055018D01*
X0262116Y0054758D01*
X0261330Y0053971D01*
X0261330Y0051133D01*
X0259052Y0051133D01*
X0257949Y0050030D01*
X0257893Y0050086D01*
X0257147Y0050086D01*
X0257147Y0055018D01*
X0255820Y0056346D01*
X0255800Y0056365D01*
X0253895Y0056365D01*
X0251990Y0054461D01*
X0251990Y0055018D01*
X0250643Y0056365D01*
X0248738Y0056365D01*
X0247597Y0055225D01*
X0246457Y0056365D01*
X0244551Y0056365D01*
X0243204Y0055018D01*
X0243204Y0054475D02*
X0240314Y0054475D01*
X0240314Y0053476D02*
X0243204Y0053476D01*
X0243204Y0052478D02*
X0240314Y0052478D01*
X0240314Y0051479D02*
X0243204Y0051479D01*
X0243204Y0050481D02*
X0239837Y0050481D01*
X0239670Y0049482D02*
X0243204Y0049482D01*
X0243647Y0048484D02*
X0240511Y0048484D01*
X0240511Y0047485D02*
X0244645Y0047485D01*
X0245644Y0046487D02*
X0240511Y0046487D01*
X0240511Y0045488D02*
X0246642Y0045488D01*
X0248552Y0045488D02*
X0251799Y0045488D01*
X0250801Y0046487D02*
X0249550Y0046487D01*
X0257147Y0050481D02*
X0258400Y0050481D01*
X0257147Y0051479D02*
X0261330Y0051479D01*
X0261330Y0052478D02*
X0257147Y0052478D01*
X0257147Y0053476D02*
X0261330Y0053476D01*
X0261833Y0054475D02*
X0257147Y0054475D01*
X0256692Y0055473D02*
X0262831Y0055473D01*
X0262376Y0055018D02*
X0262376Y0055018D01*
X0268614Y0055473D02*
X0272401Y0055473D01*
X0272401Y0054475D02*
X0269613Y0054475D01*
X0269069Y0055018D02*
X0269069Y0055018D01*
X0270116Y0053476D02*
X0272401Y0053476D01*
X0272401Y0052478D02*
X0270116Y0052478D01*
X0270116Y0051479D02*
X0272401Y0051479D01*
X0272401Y0050481D02*
X0270116Y0050481D01*
X0270116Y0049482D02*
X0272401Y0049482D01*
X0272401Y0048484D02*
X0270116Y0048484D01*
X0269721Y0047485D02*
X0272401Y0047485D01*
X0272401Y0046487D02*
X0268723Y0046487D01*
X0267724Y0045488D02*
X0272401Y0045488D01*
X0272401Y0044490D02*
X0240511Y0044490D01*
X0240511Y0043491D02*
X0272401Y0043491D01*
X0272401Y0042493D02*
X0240330Y0042493D01*
X0236649Y0045657D02*
X0236255Y0046051D01*
X0236255Y0054531D01*
X0232559Y0058469D02*
X0232471Y0058469D01*
X0228775Y0054531D02*
X0222231Y0054531D01*
X0222200Y0054500D01*
X0223489Y0051479D02*
X0224716Y0051479D01*
X0225193Y0050481D02*
X0214724Y0050481D01*
X0214724Y0051479D02*
X0220911Y0051479D01*
X0219578Y0052478D02*
X0214724Y0052478D01*
X0214724Y0053476D02*
X0219069Y0053476D01*
X0218916Y0054475D02*
X0214724Y0054475D01*
X0214724Y0055473D02*
X0219048Y0055473D01*
X0219527Y0056472D02*
X0214724Y0056472D01*
X0214257Y0057470D02*
X0220789Y0057470D01*
X0223611Y0057470D02*
X0224716Y0057470D01*
X0225079Y0058469D02*
X0213949Y0058469D01*
X0214351Y0049482D02*
X0225681Y0049482D01*
X0225821Y0049520D02*
X0225440Y0049417D01*
X0225098Y0049220D01*
X0224819Y0048941D01*
X0224621Y0048599D01*
X0224519Y0048217D01*
X0224519Y0046157D01*
X0227881Y0046157D01*
X0227881Y0045157D01*
X0228881Y0045157D01*
X0228881Y0041795D01*
X0230941Y0041795D01*
X0231322Y0041898D01*
X0231664Y0042095D01*
X0231944Y0042374D01*
X0232141Y0042716D01*
X0232243Y0043098D01*
X0232243Y0045157D01*
X0228881Y0045157D01*
X0228881Y0046157D01*
X0232243Y0046157D01*
X0232243Y0048217D01*
X0232141Y0048599D01*
X0231944Y0048941D01*
X0231664Y0049220D01*
X0231322Y0049417D01*
X0230941Y0049520D01*
X0228881Y0049520D01*
X0228881Y0046158D01*
X0227881Y0046158D01*
X0227881Y0049520D01*
X0225821Y0049520D01*
X0224590Y0048484D02*
X0205484Y0048484D01*
X0205506Y0047485D02*
X0224519Y0047485D01*
X0224519Y0046487D02*
X0204916Y0046487D01*
X0203986Y0045488D02*
X0227881Y0045488D01*
X0227881Y0045157D02*
X0224519Y0045157D01*
X0224519Y0043098D01*
X0224621Y0042716D01*
X0224819Y0042374D01*
X0225098Y0042095D01*
X0225440Y0041898D01*
X0225821Y0041795D01*
X0227881Y0041795D01*
X0227881Y0045157D01*
X0227881Y0044490D02*
X0228881Y0044490D01*
X0228881Y0045488D02*
X0232787Y0045488D01*
X0232787Y0044490D02*
X0232243Y0044490D01*
X0232243Y0043491D02*
X0232787Y0043491D01*
X0232968Y0042493D02*
X0232012Y0042493D01*
X0228881Y0042493D02*
X0227881Y0042493D01*
X0227881Y0043491D02*
X0228881Y0043491D01*
X0228881Y0046487D02*
X0227881Y0046487D01*
X0227881Y0047485D02*
X0228881Y0047485D01*
X0228881Y0048484D02*
X0227881Y0048484D01*
X0227881Y0049482D02*
X0228881Y0049482D01*
X0231081Y0049482D02*
X0233628Y0049482D01*
X0232787Y0048484D02*
X0232172Y0048484D01*
X0232243Y0047485D02*
X0232787Y0047485D01*
X0232787Y0046487D02*
X0232243Y0046487D01*
X0232357Y0050481D02*
X0232673Y0050481D01*
X0224519Y0044490D02*
X0203805Y0044490D01*
X0203805Y0043491D02*
X0224519Y0043491D01*
X0224750Y0042493D02*
X0203610Y0042493D01*
X0203196Y0041494D02*
X0272401Y0041494D01*
X0272401Y0040496D02*
X0202298Y0040496D01*
X0200494Y0039497D02*
X0272401Y0039497D01*
X0263721Y0045488D02*
X0262006Y0045488D01*
X0259050Y0045488D02*
X0257895Y0045488D01*
X0252004Y0054475D02*
X0251990Y0054475D01*
X0251535Y0055473D02*
X0253003Y0055473D01*
X0247845Y0055473D02*
X0247349Y0055473D01*
X0257300Y0071449D02*
X0257560Y0071449D01*
X0260670Y0076442D02*
X0261670Y0076442D01*
X0261670Y0077440D02*
X0260670Y0077440D01*
X0260670Y0078439D02*
X0261670Y0078439D01*
X0261670Y0079437D02*
X0260670Y0079437D01*
X0257502Y0079437D02*
X0257358Y0079437D01*
X0251690Y0080436D02*
X0234484Y0080436D01*
X0234368Y0081434D02*
X0251690Y0081434D01*
X0251690Y0082433D02*
X0233912Y0082433D01*
X0234315Y0079437D02*
X0250022Y0079437D01*
X0249631Y0078439D02*
X0233784Y0078439D01*
X0232396Y0077440D02*
X0249631Y0077440D01*
X0261406Y0083432D02*
X0272401Y0083432D01*
X0272401Y0084430D02*
X0262169Y0084430D01*
X0262204Y0085429D02*
X0272401Y0085429D01*
X0272401Y0086427D02*
X0262204Y0086427D01*
X0262204Y0087426D02*
X0272401Y0087426D01*
X0262552Y0089423D02*
X0262204Y0089423D01*
X0265229Y0074445D02*
X0272401Y0074445D01*
X0272401Y0073446D02*
X0265229Y0073446D01*
X0265229Y0072448D02*
X0272401Y0072448D01*
X0231200Y0080500D02*
X0231200Y0088278D01*
X0230783Y0088695D01*
X0222983Y0089423D02*
X0220009Y0089423D01*
X0222983Y0084430D02*
X0196523Y0084430D01*
X0197521Y0083432D02*
X0223689Y0083432D01*
X0220290Y0077440D02*
X0199200Y0077440D01*
X0197200Y0076246D02*
X0198913Y0074533D01*
X0197200Y0076246D02*
X0197200Y0080500D01*
X0195200Y0076442D02*
X0194526Y0076442D01*
X0195113Y0075854D02*
X0195113Y0074233D01*
X0195113Y0074233D01*
X0195113Y0075854D01*
X0195113Y0075443D02*
X0195113Y0075443D01*
X0195113Y0074445D02*
X0195113Y0074445D01*
X0195113Y0069633D02*
X0195113Y0068012D01*
X0195992Y0067133D01*
X0196913Y0067133D01*
X0196913Y0066150D01*
X0195416Y0066150D01*
X0195416Y0062197D01*
X0194417Y0062197D01*
X0194417Y0066150D01*
X0192160Y0066150D01*
X0191778Y0066047D01*
X0191436Y0065850D01*
X0191176Y0065590D01*
X0190617Y0066150D01*
X0188752Y0066150D01*
X0188752Y0067150D01*
X0188816Y0067133D01*
X0191313Y0067133D01*
X0191313Y0069333D01*
X0191313Y0069333D01*
X0191313Y0067133D01*
X0193811Y0067133D01*
X0194192Y0067235D01*
X0194534Y0067433D01*
X0194814Y0067712D01*
X0195011Y0068054D01*
X0195113Y0068436D01*
X0195113Y0069333D01*
X0191314Y0069333D01*
X0191314Y0069333D01*
X0195113Y0069333D01*
X0195113Y0069633D01*
X0195113Y0069633D01*
X0195113Y0069452D02*
X0195113Y0069452D01*
X0195113Y0068454D02*
X0195113Y0068454D01*
X0194557Y0067455D02*
X0195670Y0067455D01*
X0196913Y0066457D02*
X0188752Y0066457D01*
X0191313Y0067455D02*
X0191313Y0067455D01*
X0191313Y0068454D02*
X0191313Y0068454D01*
X0194417Y0065458D02*
X0195416Y0065458D01*
X0195416Y0064460D02*
X0194417Y0064460D01*
X0194417Y0063461D02*
X0195416Y0063461D01*
X0195416Y0062463D02*
X0194417Y0062463D01*
X0194917Y0061697D02*
X0195003Y0061697D01*
X0200200Y0059500D01*
X0200943Y0060466D02*
X0198976Y0060466D01*
X0198976Y0061197D02*
X0195417Y0061197D01*
X0195417Y0062197D01*
X0198976Y0062197D01*
X0198976Y0062702D01*
X0199416Y0061640D01*
X0200340Y0060716D01*
X0201547Y0060216D01*
X0202191Y0060216D01*
X0201475Y0059500D01*
X0201475Y0057882D01*
X0200004Y0057882D01*
X0199125Y0057003D01*
X0199125Y0055729D01*
X0198976Y0055729D01*
X0198976Y0057003D01*
X0198416Y0057563D01*
X0198676Y0057823D01*
X0198873Y0058165D01*
X0198976Y0058547D01*
X0198976Y0061197D01*
X0199591Y0061464D02*
X0195417Y0061464D01*
X0198976Y0062463D02*
X0199075Y0062463D01*
X0202200Y0063500D02*
X0198913Y0066787D01*
X0198913Y0069333D01*
X0198976Y0059467D02*
X0201475Y0059467D01*
X0201475Y0058469D02*
X0198955Y0058469D01*
X0198509Y0057470D02*
X0199592Y0057470D01*
X0199125Y0056472D02*
X0198976Y0056472D01*
X0191230Y0049482D02*
X0191122Y0049482D01*
X0183844Y0057470D02*
X0078735Y0057470D01*
X0078735Y0055473D02*
X0126796Y0055473D01*
X0125530Y0054475D02*
X0078735Y0054475D01*
X0078735Y0053476D02*
X0125050Y0053476D01*
X0124916Y0052478D02*
X0124449Y0052478D01*
X0122551Y0052478D02*
X0114449Y0052478D01*
X0112551Y0052478D02*
X0090933Y0052478D01*
X0091334Y0051479D02*
X0110615Y0051479D01*
X0109657Y0050481D02*
X0091334Y0050481D01*
X0091334Y0049482D02*
X0109243Y0049482D01*
X0109000Y0048484D02*
X0091334Y0048484D01*
X0091334Y0047485D02*
X0109000Y0047485D01*
X0109000Y0046487D02*
X0091334Y0046487D01*
X0091334Y0045488D02*
X0109000Y0045488D01*
X0109000Y0044490D02*
X0091334Y0044490D01*
X0091334Y0043491D02*
X0109000Y0043491D01*
X0109000Y0042493D02*
X0091334Y0042493D01*
X0091334Y0041494D02*
X0109000Y0041494D01*
X0109252Y0040496D02*
X0091334Y0040496D01*
X0091334Y0039497D02*
X0109666Y0039497D01*
X0117334Y0039497D02*
X0119666Y0039497D01*
X0119252Y0040496D02*
X0117748Y0040496D01*
X0118000Y0041494D02*
X0119000Y0041494D01*
X0119000Y0042493D02*
X0118000Y0042493D01*
X0118000Y0043491D02*
X0119000Y0043491D01*
X0119000Y0044490D02*
X0118000Y0044490D01*
X0118000Y0045488D02*
X0119000Y0045488D01*
X0119000Y0046487D02*
X0118000Y0046487D01*
X0118000Y0047485D02*
X0119000Y0047485D01*
X0119000Y0048484D02*
X0118000Y0048484D01*
X0117757Y0049482D02*
X0119243Y0049482D01*
X0119657Y0050481D02*
X0117343Y0050481D01*
X0116385Y0051479D02*
X0120615Y0051479D01*
X0123500Y0045000D02*
X0128200Y0049700D01*
X0128200Y0052500D01*
X0107008Y0078439D02*
X0074205Y0078439D01*
X0073792Y0079437D02*
X0106010Y0079437D01*
X0123322Y0079437D02*
X0123600Y0079437D01*
X0136200Y0089423D02*
X0138200Y0089423D01*
X0138200Y0090421D02*
X0136200Y0090421D01*
X0137230Y0091420D02*
X0137312Y0091420D01*
X0137312Y0092418D02*
X0137230Y0092418D01*
X0137230Y0093417D02*
X0137312Y0093417D01*
X0137312Y0094415D02*
X0137230Y0094415D01*
X0137230Y0095414D02*
X0137312Y0095414D01*
X0137312Y0096412D02*
X0137230Y0096412D01*
X0137230Y0097411D02*
X0137312Y0097411D01*
X0137312Y0098409D02*
X0137230Y0098409D01*
X0137230Y0099408D02*
X0137312Y0099408D01*
X0130972Y0095547D02*
X0130972Y0104272D01*
X0132200Y0105500D01*
X0120304Y0115384D02*
X0116133Y0115384D01*
X0116133Y0116382D02*
X0121302Y0116382D01*
X0122301Y0117381D02*
X0116133Y0117381D01*
X0116133Y0118379D02*
X0122372Y0118379D01*
X0122372Y0119378D02*
X0116133Y0119378D01*
X0116133Y0120376D02*
X0122372Y0120376D01*
X0122444Y0121375D02*
X0116133Y0121375D01*
X0116133Y0122373D02*
X0123443Y0122373D01*
X0124441Y0123372D02*
X0116133Y0123372D01*
X0116133Y0124370D02*
X0124077Y0124370D01*
X0123078Y0125369D02*
X0116133Y0125369D01*
X0116133Y0126368D02*
X0122080Y0126368D01*
X0121081Y0127366D02*
X0116133Y0127366D01*
X0116133Y0128365D02*
X0120083Y0128365D01*
X0119084Y0129363D02*
X0116133Y0129363D01*
X0116133Y0130362D02*
X0118086Y0130362D01*
X0117087Y0131360D02*
X0116133Y0131360D01*
X0120700Y0131000D02*
X0124672Y0134972D01*
X0124672Y0140429D01*
X0125200Y0140429D01*
X0127822Y0140429D02*
X0127822Y0143878D01*
X0125200Y0146500D01*
X0125200Y0152500D01*
X0121988Y0153327D02*
X0115280Y0153327D01*
X0114281Y0152329D02*
X0118447Y0152329D01*
X0117403Y0151330D02*
X0113283Y0151330D01*
X0112284Y0150332D02*
X0116990Y0150332D01*
X0116916Y0149333D02*
X0111286Y0149333D01*
X0117128Y0148335D02*
X0096287Y0148335D01*
X0095289Y0147336D02*
X0117719Y0147336D01*
X0120200Y0146500D02*
X0120200Y0149500D01*
X0120200Y0146500D02*
X0120700Y0146000D01*
X0121523Y0145177D01*
X0121523Y0140429D01*
X0126672Y0135354D02*
X0152109Y0135354D01*
X0152109Y0134356D02*
X0126672Y0134356D01*
X0125886Y0133357D02*
X0152109Y0133357D01*
X0152109Y0132359D02*
X0124887Y0132359D01*
X0123888Y0131360D02*
X0152109Y0131360D01*
X0152109Y0130362D02*
X0124591Y0130362D01*
X0125590Y0129363D02*
X0152109Y0129363D01*
X0152109Y0128365D02*
X0126588Y0128365D01*
X0127587Y0127366D02*
X0152109Y0127366D01*
X0152109Y0126368D02*
X0128585Y0126368D01*
X0134080Y0136353D02*
X0134163Y0136353D01*
X0134163Y0137351D02*
X0134080Y0137351D01*
X0134080Y0138350D02*
X0134163Y0138350D01*
X0134163Y0139348D02*
X0134080Y0139348D01*
X0134080Y0140347D02*
X0134163Y0140347D01*
X0134163Y0140471D02*
X0134080Y0140471D01*
X0134080Y0144882D01*
X0132841Y0144882D01*
X0132721Y0144850D01*
X0132721Y0146920D01*
X0134702Y0146920D01*
X0135271Y0147489D01*
X0135271Y0144882D01*
X0134163Y0144882D01*
X0134163Y0140471D01*
X0134163Y0141345D02*
X0134080Y0141345D01*
X0134080Y0142344D02*
X0134163Y0142344D01*
X0134163Y0143342D02*
X0134080Y0143342D01*
X0134080Y0144341D02*
X0134163Y0144341D01*
X0135271Y0145339D02*
X0132721Y0145339D01*
X0132721Y0146338D02*
X0135271Y0146338D01*
X0135271Y0147336D02*
X0135118Y0147336D01*
X0131128Y0150979D02*
X0130721Y0150572D01*
X0130721Y0140680D01*
X0130972Y0140429D01*
X0137271Y0140429D02*
X0137271Y0157571D01*
X0138200Y0158500D01*
X0141416Y0159318D02*
X0173129Y0159318D01*
X0172517Y0158320D02*
X0174127Y0158320D01*
X0175126Y0157321D02*
X0172913Y0157321D01*
X0172913Y0156323D02*
X0176124Y0156323D01*
X0172130Y0160317D02*
X0141002Y0160317D01*
X0139985Y0161315D02*
X0171132Y0161315D01*
X0170133Y0162314D02*
X0134836Y0162314D01*
X0135554Y0161315D02*
X0136415Y0161315D01*
X0131628Y0161315D02*
X0130628Y0161315D01*
X0130628Y0160317D02*
X0131628Y0160317D01*
X0131628Y0159318D02*
X0130628Y0159318D01*
X0130628Y0158320D02*
X0120273Y0158320D01*
X0121271Y0159318D02*
X0126675Y0159318D01*
X0126675Y0160317D02*
X0122270Y0160317D01*
X0123268Y0161315D02*
X0126702Y0161315D01*
X0127419Y0162314D02*
X0124267Y0162314D01*
X0119758Y0164311D02*
X0106244Y0164311D01*
X0107242Y0165309D02*
X0120757Y0165309D01*
X0121755Y0166308D02*
X0108241Y0166308D01*
X0109239Y0167306D02*
X0122754Y0167306D01*
X0118760Y0163312D02*
X0098986Y0163312D01*
X0099007Y0162314D02*
X0117761Y0162314D01*
X0116763Y0161315D02*
X0099007Y0161315D01*
X0099007Y0159583D02*
X0095448Y0159583D01*
X0095448Y0155630D01*
X0097705Y0155630D01*
X0098086Y0155732D01*
X0098428Y0155930D01*
X0098707Y0156209D01*
X0098905Y0156551D01*
X0099007Y0156932D01*
X0099007Y0159583D01*
X0099007Y0159318D02*
X0114766Y0159318D01*
X0113767Y0158320D02*
X0099007Y0158320D01*
X0099007Y0157321D02*
X0112769Y0157321D01*
X0111770Y0156323D02*
X0098773Y0156323D01*
X0095448Y0156323D02*
X0094448Y0156323D01*
X0094448Y0157321D02*
X0095448Y0157321D01*
X0095448Y0158320D02*
X0094448Y0158320D01*
X0094448Y0159318D02*
X0095448Y0159318D01*
X0095448Y0160317D02*
X0115764Y0160317D01*
X0119274Y0157321D02*
X0126675Y0157321D01*
X0126675Y0156323D02*
X0118276Y0156323D01*
X0117277Y0155324D02*
X0123436Y0155324D01*
X0122401Y0154326D02*
X0116279Y0154326D01*
X0110772Y0155324D02*
X0077501Y0155324D01*
X0077500Y0156323D02*
X0083594Y0156323D01*
X0083409Y0157321D02*
X0077666Y0157321D01*
X0077391Y0154326D02*
X0109773Y0154326D01*
X0099322Y0145339D02*
X0098322Y0145339D01*
X0098322Y0144341D02*
X0099322Y0144341D01*
X0099322Y0143342D02*
X0098322Y0143342D01*
X0098322Y0142344D02*
X0099322Y0142344D01*
X0102118Y0137351D02*
X0102928Y0137351D01*
X0106413Y0141500D02*
X0106302Y0141610D01*
X0109676Y0137351D02*
X0111096Y0137351D01*
X0099905Y0132359D02*
X0098905Y0132359D01*
X0095057Y0132359D02*
X0088311Y0132359D01*
X0087313Y0131360D02*
X0094952Y0131360D01*
X0094952Y0130362D02*
X0088308Y0130362D01*
X0103405Y0125369D02*
X0107228Y0125369D01*
X0107228Y0126368D02*
X0103833Y0126368D01*
X0103857Y0127366D02*
X0107228Y0127366D01*
X0116133Y0114385D02*
X0119305Y0114385D01*
X0151950Y0136353D02*
X0158961Y0136353D01*
X0159998Y0137351D02*
X0152452Y0137351D01*
X0152452Y0138350D02*
X0160411Y0138350D01*
X0163200Y0136500D02*
X0158436Y0133736D01*
X0156562Y0133736D01*
X0156562Y0130587D02*
X0161287Y0130587D01*
X0163200Y0132106D01*
X0163200Y0127500D02*
X0163137Y0127437D01*
X0156562Y0127437D01*
X0156562Y0124287D02*
X0164200Y0124287D01*
X0165200Y0123287D01*
X0173621Y0111390D02*
X0181900Y0111390D01*
X0181900Y0112388D02*
X0177574Y0112388D01*
X0177574Y0110391D02*
X0181900Y0110391D01*
X0181900Y0109393D02*
X0177574Y0109393D01*
X0177327Y0108394D02*
X0181900Y0108394D01*
X0173621Y0108394D02*
X0172621Y0108394D01*
X0172621Y0109393D02*
X0173621Y0109393D01*
X0173621Y0110391D02*
X0172621Y0110391D01*
X0181200Y0122343D02*
X0181200Y0122500D01*
X0183500Y0128365D02*
X0188109Y0128365D01*
X0188109Y0129363D02*
X0183500Y0129363D01*
X0183500Y0130362D02*
X0188109Y0130362D01*
X0188120Y0131360D02*
X0183500Y0131360D01*
X0183500Y0132359D02*
X0187700Y0132359D01*
X0187700Y0133357D02*
X0183500Y0133357D01*
X0183500Y0134356D02*
X0187700Y0134356D01*
X0187700Y0135354D02*
X0183500Y0135354D01*
X0183500Y0136353D02*
X0187700Y0136353D01*
X0187700Y0137351D02*
X0183500Y0137351D01*
X0183500Y0138350D02*
X0188275Y0138350D01*
X0199649Y0127776D02*
X0203924Y0127776D01*
X0208200Y0123500D01*
X0214860Y0123500D01*
X0216216Y0123144D01*
X0216216Y0118420D02*
X0215135Y0118500D01*
X0208413Y0118500D01*
X0208200Y0118713D01*
X0207822Y0118335D01*
X0199491Y0118335D01*
X0203550Y0120376D02*
X0205334Y0120376D01*
X0205680Y0121375D02*
X0203550Y0121375D01*
X0203086Y0122373D02*
X0205112Y0122373D01*
X0204916Y0123372D02*
X0202878Y0123372D01*
X0203708Y0124370D02*
X0204501Y0124370D01*
X0196419Y0123372D02*
X0195398Y0123372D01*
X0195605Y0122373D02*
X0195897Y0122373D01*
X0192011Y0118335D02*
X0191657Y0117980D01*
X0191680Y0111209D01*
X0195105Y0107787D02*
X0195543Y0108225D01*
X0195543Y0114192D01*
X0195522Y0114213D01*
X0195751Y0114442D01*
X0196157Y0114035D01*
X0196086Y0113768D01*
X0196086Y0111709D01*
X0199448Y0111709D01*
X0199448Y0110709D01*
X0196086Y0110709D01*
X0196086Y0108649D01*
X0196188Y0108267D01*
X0196386Y0107925D01*
X0196606Y0107705D01*
X0196129Y0107228D01*
X0195569Y0107787D01*
X0195105Y0107787D01*
X0195543Y0108394D02*
X0196154Y0108394D01*
X0196086Y0109393D02*
X0195543Y0109393D01*
X0195543Y0110391D02*
X0196086Y0110391D01*
X0195543Y0111390D02*
X0199448Y0111390D01*
X0196086Y0112388D02*
X0195543Y0112388D01*
X0195543Y0113387D02*
X0196086Y0113387D01*
X0195807Y0114385D02*
X0195695Y0114385D01*
X0195961Y0107396D02*
X0196297Y0107396D01*
X0192389Y0103335D02*
X0192389Y0095539D01*
X0192058Y0095209D01*
X0195920Y0095414D02*
X0199826Y0095414D01*
X0199826Y0094415D02*
X0200826Y0094415D01*
X0200826Y0093417D02*
X0199826Y0093417D01*
X0199826Y0092418D02*
X0200826Y0092418D01*
X0200826Y0091420D02*
X0199826Y0091420D01*
X0197493Y0091420D02*
X0195115Y0091420D01*
X0195920Y0092418D02*
X0196526Y0092418D01*
X0196464Y0093417D02*
X0195920Y0093417D01*
X0195920Y0094415D02*
X0196464Y0094415D01*
X0196464Y0096412D02*
X0195920Y0096412D01*
X0195920Y0097411D02*
X0196464Y0097411D01*
X0196716Y0098409D02*
X0195703Y0098409D01*
X0196095Y0099408D02*
X0196163Y0099408D01*
X0191530Y0089423D02*
X0212423Y0089423D01*
X0210779Y0102403D02*
X0210773Y0102403D01*
X0165536Y0143342D02*
X0165140Y0143342D01*
X0165517Y0158320D02*
X0165584Y0158320D01*
X0172645Y0166308D02*
X0176747Y0166308D01*
X0176140Y0167306D02*
X0175072Y0167306D01*
X0173328Y0167306D02*
X0171646Y0167306D01*
X0171750Y0168305D02*
X0110238Y0168305D01*
X0111236Y0169303D02*
X0171141Y0169303D01*
X0170916Y0170302D02*
X0111461Y0170302D01*
X0112216Y0171301D02*
X0170977Y0171301D01*
X0171390Y0172299D02*
X0113023Y0172299D01*
X0113023Y0173298D02*
X0135537Y0173298D01*
X0135153Y0174296D02*
X0113023Y0174296D01*
X0113023Y0175295D02*
X0135153Y0175295D01*
X0135153Y0176293D02*
X0113023Y0176293D01*
X0113023Y0181286D02*
X0122554Y0181286D01*
X0122554Y0182284D02*
X0113023Y0182284D01*
X0113023Y0183283D02*
X0122554Y0183283D01*
X0122554Y0184281D02*
X0113023Y0184281D01*
X0112904Y0185280D02*
X0122554Y0185280D01*
X0122554Y0186278D02*
X0078630Y0186278D01*
X0079138Y0185280D02*
X0085732Y0185280D01*
X0085613Y0184281D02*
X0079138Y0184281D01*
X0079138Y0183283D02*
X0085613Y0183283D01*
X0085613Y0182284D02*
X0075185Y0182284D01*
X0075185Y0182090D02*
X0079138Y0182090D01*
X0079138Y0179833D01*
X0079036Y0179452D01*
X0078838Y0179110D01*
X0078559Y0178830D01*
X0078217Y0178633D01*
X0077835Y0178531D01*
X0075185Y0178531D01*
X0075185Y0182090D01*
X0075185Y0181286D02*
X0074185Y0181286D01*
X0074185Y0180287D02*
X0075185Y0180287D01*
X0075185Y0179289D02*
X0074185Y0179289D01*
X0078941Y0179289D02*
X0085613Y0179289D01*
X0085613Y0180287D02*
X0079138Y0180287D01*
X0079138Y0181286D02*
X0085613Y0181286D01*
X0085613Y0178290D02*
X0068200Y0178290D01*
X0069013Y0177292D02*
X0085613Y0177292D01*
X0085613Y0176293D02*
X0069426Y0176293D01*
X0069484Y0175295D02*
X0074742Y0175295D01*
X0073743Y0174296D02*
X0069256Y0174296D01*
X0068642Y0173298D02*
X0072745Y0173298D01*
X0071746Y0172299D02*
X0070621Y0172299D01*
X0068570Y0169768D02*
X0068302Y0169500D01*
X0070691Y0167306D02*
X0073468Y0167306D01*
X0073468Y0167118D02*
X0073468Y0165830D01*
X0073570Y0165449D01*
X0073767Y0165107D01*
X0074047Y0164827D01*
X0074389Y0164630D01*
X0074770Y0164528D01*
X0076157Y0164528D01*
X0076157Y0167118D01*
X0076338Y0167118D01*
X0076338Y0167299D01*
X0079027Y0167299D01*
X0079027Y0168587D01*
X0078925Y0168969D01*
X0078727Y0169311D01*
X0078448Y0169590D01*
X0078106Y0169788D01*
X0077724Y0169890D01*
X0076338Y0169890D01*
X0076338Y0167299D01*
X0076157Y0167299D01*
X0076157Y0167118D01*
X0073468Y0167118D01*
X0073468Y0166308D02*
X0071350Y0166308D01*
X0071350Y0165309D02*
X0073650Y0165309D01*
X0076157Y0165309D02*
X0076338Y0165309D01*
X0076338Y0164528D02*
X0077724Y0164528D01*
X0078106Y0164630D01*
X0078448Y0164827D01*
X0078727Y0165107D01*
X0078925Y0165449D01*
X0079027Y0165830D01*
X0079027Y0167118D01*
X0076338Y0167118D01*
X0076338Y0164528D01*
X0076338Y0166308D02*
X0076157Y0166308D01*
X0076157Y0167306D02*
X0076338Y0167306D01*
X0076338Y0168305D02*
X0076157Y0168305D01*
X0076157Y0169303D02*
X0076338Y0169303D01*
X0076255Y0170302D02*
X0082145Y0170302D01*
X0083144Y0169303D02*
X0078731Y0169303D01*
X0079027Y0168305D02*
X0084142Y0168305D01*
X0085141Y0167306D02*
X0079027Y0167306D01*
X0079027Y0166308D02*
X0086595Y0166308D01*
X0085597Y0165309D02*
X0078844Y0165309D01*
X0083409Y0163312D02*
X0071350Y0163312D01*
X0071350Y0164311D02*
X0084063Y0164311D01*
X0075783Y0160083D02*
X0075200Y0159500D01*
X0075617Y0159917D01*
X0073411Y0162314D02*
X0070816Y0162314D01*
X0072397Y0161315D02*
X0052604Y0161315D01*
X0053267Y0160317D02*
X0071984Y0160317D01*
X0071916Y0159318D02*
X0053267Y0159318D01*
X0053267Y0158320D02*
X0072134Y0158320D01*
X0072734Y0157321D02*
X0053267Y0157321D01*
X0053267Y0156323D02*
X0062117Y0156323D01*
X0061459Y0155324D02*
X0053267Y0155324D01*
X0053267Y0154326D02*
X0061459Y0154326D01*
X0061459Y0153327D02*
X0053267Y0153327D01*
X0053267Y0152329D02*
X0061459Y0152329D01*
X0061459Y0151330D02*
X0053267Y0151330D01*
X0052456Y0150332D02*
X0061459Y0150332D01*
X0061459Y0149333D02*
X0038700Y0149333D01*
X0038700Y0148335D02*
X0062059Y0148335D01*
X0064059Y0149043D02*
X0064059Y0152443D01*
X0067709Y0152329D02*
X0067809Y0152329D01*
X0067809Y0153327D02*
X0067709Y0153327D01*
X0067709Y0154326D02*
X0067809Y0154326D01*
X0067809Y0155324D02*
X0067709Y0155324D01*
X0067709Y0156323D02*
X0067809Y0156323D01*
X0063133Y0162314D02*
X0038700Y0162314D01*
X0038700Y0163312D02*
X0051876Y0163312D01*
X0051448Y0164311D02*
X0038700Y0164311D01*
X0038700Y0165309D02*
X0051448Y0165309D01*
X0051448Y0166308D02*
X0038700Y0166308D01*
X0038700Y0167306D02*
X0051448Y0167306D01*
X0051620Y0168305D02*
X0038700Y0168305D01*
X0038700Y0169303D02*
X0051448Y0169303D01*
X0051448Y0170302D02*
X0038700Y0170302D01*
X0038700Y0171301D02*
X0051448Y0171301D01*
X0051448Y0172299D02*
X0038700Y0172299D01*
X0038700Y0173298D02*
X0051691Y0173298D01*
X0052419Y0175295D02*
X0062916Y0175295D01*
X0062974Y0176293D02*
X0053267Y0176293D01*
X0053267Y0177292D02*
X0063387Y0177292D01*
X0064200Y0178290D02*
X0053267Y0178290D01*
X0053267Y0179289D02*
X0062668Y0179289D01*
X0062629Y0180287D02*
X0053267Y0180287D01*
X0053267Y0181286D02*
X0062629Y0181286D01*
X0062629Y0182284D02*
X0053267Y0182284D01*
X0053267Y0183283D02*
X0062629Y0183283D01*
X0062629Y0184281D02*
X0053267Y0184281D01*
X0053267Y0185280D02*
X0062629Y0185280D01*
X0062948Y0187277D02*
X0038700Y0187277D01*
X0038700Y0188275D02*
X0062629Y0188275D01*
X0062629Y0189274D02*
X0038700Y0189274D01*
X0038700Y0190272D02*
X0062629Y0190272D01*
X0062629Y0191271D02*
X0038700Y0191271D01*
X0038700Y0192269D02*
X0062629Y0192269D01*
X0062629Y0193268D02*
X0038700Y0193268D01*
X0038700Y0194266D02*
X0063333Y0194266D01*
X0066491Y0190579D02*
X0074176Y0190579D01*
X0074685Y0190070D01*
X0079138Y0190272D02*
X0082661Y0190272D01*
X0082661Y0189794D02*
X0083159Y0188592D01*
X0084079Y0187671D01*
X0085281Y0187173D01*
X0086583Y0187173D01*
X0087786Y0187671D01*
X0088706Y0188592D01*
X0089204Y0189794D01*
X0089204Y0191096D01*
X0088706Y0192298D01*
X0087786Y0193218D01*
X0086583Y0193717D01*
X0085281Y0193717D01*
X0084079Y0193218D01*
X0083159Y0192298D01*
X0082661Y0191096D01*
X0082661Y0189794D01*
X0082876Y0189274D02*
X0079138Y0189274D01*
X0079138Y0188275D02*
X0083475Y0188275D01*
X0085032Y0187277D02*
X0079138Y0187277D01*
X0079138Y0191271D02*
X0082733Y0191271D01*
X0083147Y0192269D02*
X0079138Y0192269D01*
X0079120Y0193268D02*
X0084198Y0193268D01*
X0087666Y0193268D02*
X0110970Y0193268D01*
X0110851Y0193218D02*
X0109930Y0192298D01*
X0109432Y0191096D01*
X0109432Y0189794D01*
X0109930Y0188592D01*
X0110851Y0187671D01*
X0112053Y0187173D01*
X0113355Y0187173D01*
X0114557Y0187671D01*
X0115477Y0188592D01*
X0115976Y0189794D01*
X0115976Y0191096D01*
X0115477Y0192298D01*
X0114557Y0193218D01*
X0113355Y0193717D01*
X0112053Y0193717D01*
X0110851Y0193218D01*
X0109918Y0192269D02*
X0088718Y0192269D01*
X0089131Y0191271D02*
X0109505Y0191271D01*
X0109432Y0190272D02*
X0089204Y0190272D01*
X0088988Y0189274D02*
X0109648Y0189274D01*
X0110247Y0188275D02*
X0088389Y0188275D01*
X0086833Y0187277D02*
X0111803Y0187277D01*
X0113605Y0187277D02*
X0122554Y0187277D01*
X0122554Y0188275D02*
X0115161Y0188275D01*
X0115760Y0189274D02*
X0122554Y0189274D01*
X0122554Y0190272D02*
X0115976Y0190272D01*
X0115903Y0191271D02*
X0122554Y0191271D01*
X0122554Y0192269D02*
X0115489Y0192269D01*
X0114438Y0193268D02*
X0122554Y0193268D01*
X0122605Y0194266D02*
X0069650Y0194266D01*
X0070035Y0187277D02*
X0070232Y0187277D01*
X0070740Y0186278D02*
X0052642Y0186278D01*
X0039081Y0186278D02*
X0038700Y0186278D01*
X0038700Y0175295D02*
X0039304Y0175295D01*
X0038700Y0174296D02*
X0063144Y0174296D01*
X0063758Y0173298D02*
X0060504Y0173298D01*
X0064654Y0172299D02*
X0065346Y0172299D01*
X0066200Y0175500D02*
X0066200Y0180020D01*
X0066491Y0182311D01*
X0070315Y0179289D02*
X0070429Y0179289D01*
X0083658Y0175295D02*
X0085613Y0175295D01*
X0085613Y0174296D02*
X0084657Y0174296D01*
X0093338Y0174296D02*
X0095456Y0174296D01*
X0095456Y0173298D02*
X0093338Y0173298D01*
X0093338Y0172299D02*
X0095456Y0172299D01*
X0095456Y0175295D02*
X0093338Y0175295D01*
X0093338Y0176293D02*
X0095456Y0176293D01*
X0095456Y0177292D02*
X0093338Y0177292D01*
X0093338Y0178290D02*
X0095456Y0178290D01*
X0095456Y0179289D02*
X0093338Y0179289D01*
X0093338Y0180287D02*
X0095456Y0180287D01*
X0095456Y0181286D02*
X0093338Y0181286D01*
X0093338Y0182284D02*
X0095456Y0182284D01*
X0095456Y0183283D02*
X0093338Y0183283D01*
X0093338Y0184281D02*
X0095456Y0184281D01*
X0095575Y0185280D02*
X0093219Y0185280D01*
X0099318Y0178634D02*
X0099200Y0178516D01*
X0103180Y0178290D02*
X0105298Y0178290D01*
X0105298Y0177292D02*
X0103180Y0177292D01*
X0103180Y0176293D02*
X0105298Y0176293D01*
X0105298Y0175295D02*
X0103180Y0175295D01*
X0103180Y0174296D02*
X0105298Y0174296D01*
X0105298Y0173298D02*
X0103180Y0173298D01*
X0103180Y0172299D02*
X0105298Y0172299D01*
X0106105Y0171301D02*
X0102374Y0171301D01*
X0101255Y0170302D02*
X0105729Y0170302D01*
X0104731Y0169303D02*
X0100256Y0169303D01*
X0103180Y0179289D02*
X0105298Y0179289D01*
X0105298Y0180287D02*
X0103180Y0180287D01*
X0103180Y0181286D02*
X0105298Y0181286D01*
X0105298Y0182284D02*
X0103180Y0182284D01*
X0103180Y0183283D02*
X0105298Y0183283D01*
X0105298Y0184281D02*
X0103180Y0184281D01*
X0103061Y0185280D02*
X0105417Y0185280D01*
X0133822Y0185280D02*
X0147554Y0185280D01*
X0147554Y0186278D02*
X0133822Y0186278D01*
X0133822Y0187277D02*
X0147554Y0187277D01*
X0147554Y0188275D02*
X0133822Y0188275D01*
X0133822Y0189274D02*
X0147554Y0189274D01*
X0147554Y0190272D02*
X0133822Y0190272D01*
X0133822Y0191271D02*
X0147554Y0191271D01*
X0147554Y0192269D02*
X0133822Y0192269D01*
X0133822Y0193268D02*
X0147554Y0193268D01*
X0147605Y0194266D02*
X0133772Y0194266D01*
X0133822Y0184281D02*
X0147554Y0184281D01*
X0147554Y0183283D02*
X0133822Y0183283D01*
X0133822Y0182284D02*
X0147554Y0182284D01*
X0147554Y0181286D02*
X0146061Y0181286D01*
X0146121Y0181181D02*
X0145924Y0181523D01*
X0145645Y0181803D01*
X0145303Y0182000D01*
X0144921Y0182102D01*
X0143436Y0182102D01*
X0143436Y0177740D01*
X0146224Y0177740D01*
X0146224Y0180800D01*
X0146121Y0181181D01*
X0146224Y0180287D02*
X0148429Y0180287D01*
X0146224Y0179289D02*
X0171523Y0179289D01*
X0171523Y0180287D02*
X0169317Y0180287D01*
X0170192Y0181286D02*
X0171585Y0181286D01*
X0170192Y0182284D02*
X0183924Y0182284D01*
X0183924Y0181286D02*
X0182532Y0181286D01*
X0182594Y0180287D02*
X0184799Y0180287D01*
X0182594Y0179289D02*
X0272401Y0179289D01*
X0272401Y0180287D02*
X0194317Y0180287D01*
X0195192Y0181286D02*
X0272401Y0181286D01*
X0272401Y0182284D02*
X0195192Y0182284D01*
X0195192Y0183283D02*
X0272401Y0183283D01*
X0272401Y0184281D02*
X0195192Y0184281D01*
X0195192Y0185280D02*
X0272401Y0185280D01*
X0272401Y0186278D02*
X0195192Y0186278D01*
X0195192Y0187277D02*
X0272401Y0187277D01*
X0272401Y0188275D02*
X0195192Y0188275D01*
X0195192Y0189274D02*
X0272401Y0189274D01*
X0272401Y0190272D02*
X0195192Y0190272D01*
X0195192Y0191271D02*
X0272401Y0191271D01*
X0272401Y0192269D02*
X0195192Y0192269D01*
X0195192Y0193268D02*
X0272401Y0193268D01*
X0272401Y0194266D02*
X0195142Y0194266D01*
X0183975Y0194266D02*
X0170142Y0194266D01*
X0170192Y0193268D02*
X0183924Y0193268D01*
X0183924Y0192269D02*
X0170192Y0192269D01*
X0170192Y0191271D02*
X0183924Y0191271D01*
X0183924Y0190272D02*
X0170192Y0190272D01*
X0170192Y0189274D02*
X0183924Y0189274D01*
X0183924Y0188275D02*
X0170192Y0188275D01*
X0170192Y0187277D02*
X0183924Y0187277D01*
X0183924Y0186278D02*
X0170192Y0186278D01*
X0170192Y0185280D02*
X0183924Y0185280D01*
X0183924Y0184281D02*
X0170192Y0184281D01*
X0170192Y0183283D02*
X0183924Y0183283D01*
X0182594Y0178290D02*
X0272401Y0178290D01*
X0272401Y0177292D02*
X0182594Y0177292D01*
X0182594Y0176293D02*
X0272401Y0176293D01*
X0272401Y0175295D02*
X0182594Y0175295D01*
X0182594Y0174296D02*
X0272401Y0174296D01*
X0272401Y0173298D02*
X0182209Y0173298D01*
X0181200Y0172299D02*
X0272401Y0172299D01*
X0272401Y0171301D02*
X0181200Y0171301D01*
X0182008Y0170302D02*
X0272401Y0170302D01*
X0272401Y0169303D02*
X0182422Y0169303D01*
X0182484Y0168305D02*
X0272401Y0168305D01*
X0272401Y0167306D02*
X0182260Y0167306D01*
X0181653Y0166308D02*
X0272401Y0166308D01*
X0179200Y0168500D02*
X0179200Y0177134D01*
X0179519Y0177453D01*
X0174598Y0177453D02*
X0174200Y0177055D01*
X0174200Y0170500D01*
X0171907Y0173298D02*
X0145839Y0173298D01*
X0146224Y0174296D02*
X0171523Y0174296D01*
X0171523Y0175295D02*
X0146224Y0175295D01*
X0146224Y0176293D02*
X0171523Y0176293D01*
X0171523Y0177292D02*
X0143436Y0177292D01*
X0143436Y0178290D02*
X0142861Y0178290D01*
X0142861Y0179289D02*
X0143436Y0179289D01*
X0143436Y0180287D02*
X0142861Y0180287D01*
X0142861Y0181286D02*
X0143436Y0181286D01*
X0146224Y0178290D02*
X0171523Y0178290D01*
X0159799Y0180287D02*
X0157947Y0180287D01*
X0158822Y0181286D02*
X0158924Y0181286D01*
X0158924Y0182284D02*
X0158822Y0182284D01*
X0158822Y0183283D02*
X0158924Y0183283D01*
X0158924Y0184281D02*
X0158822Y0184281D01*
X0158822Y0185280D02*
X0158924Y0185280D01*
X0158924Y0186278D02*
X0158822Y0186278D01*
X0158822Y0187277D02*
X0158924Y0187277D01*
X0158924Y0188275D02*
X0158822Y0188275D01*
X0158822Y0189274D02*
X0158924Y0189274D01*
X0158924Y0190272D02*
X0158822Y0190272D01*
X0158822Y0191271D02*
X0158924Y0191271D01*
X0158924Y0192269D02*
X0158822Y0192269D01*
X0158822Y0193268D02*
X0158924Y0193268D01*
X0158975Y0194266D02*
X0158772Y0194266D01*
X0138228Y0177453D02*
X0137046Y0178634D01*
X0135215Y0181286D02*
X0133822Y0181286D01*
X0142861Y0176293D02*
X0143436Y0176293D01*
X0143436Y0175295D02*
X0142861Y0175295D01*
X0142861Y0174296D02*
X0143436Y0174296D01*
X0143436Y0173298D02*
X0142861Y0173298D01*
X0131628Y0162314D02*
X0130628Y0162314D01*
X0140381Y0154287D02*
X0140420Y0154248D01*
X0140420Y0140429D01*
X0143200Y0140429D02*
X0143570Y0140429D01*
X0143570Y0149870D01*
X0144200Y0150500D01*
X0094775Y0153327D02*
X0076337Y0153327D01*
X0074993Y0152329D02*
X0093776Y0152329D01*
X0092778Y0151330D02*
X0074059Y0151330D01*
X0074059Y0150332D02*
X0091779Y0150332D01*
X0090781Y0149333D02*
X0074059Y0149333D01*
X0069593Y0146338D02*
X0087785Y0146338D01*
X0088784Y0147336D02*
X0068595Y0147336D01*
X0067596Y0148335D02*
X0089782Y0148335D01*
X0081251Y0144341D02*
X0080251Y0144341D01*
X0080251Y0143342D02*
X0081251Y0143342D01*
X0081251Y0142344D02*
X0080251Y0142344D01*
X0067809Y0149333D02*
X0067709Y0149333D01*
X0067709Y0150332D02*
X0067809Y0150332D01*
X0067809Y0151330D02*
X0067709Y0151330D01*
X0062135Y0163312D02*
X0060319Y0163312D01*
X0039119Y0161315D02*
X0038700Y0161315D01*
X0038700Y0150332D02*
X0039267Y0150332D01*
X0064019Y0133051D02*
X0064059Y0133091D01*
X0060731Y0121375D02*
X0050404Y0121375D01*
X0051488Y0120376D02*
X0060731Y0120376D01*
X0060731Y0119378D02*
X0059410Y0119378D01*
X0060409Y0118379D02*
X0060731Y0118379D01*
X0056473Y0105399D02*
X0052000Y0105399D01*
X0051264Y0104400D02*
X0057471Y0104400D01*
X0058470Y0103402D02*
X0049865Y0103402D01*
X0051451Y0100406D02*
X0061465Y0100406D01*
X0062464Y0099408D02*
X0052078Y0099408D01*
X0052412Y0098409D02*
X0063462Y0098409D01*
X0045500Y0096412D02*
X0044500Y0096412D01*
X0044500Y0095414D02*
X0045500Y0095414D01*
X0045500Y0094415D02*
X0044500Y0094415D01*
X0044500Y0093417D02*
X0045500Y0093417D01*
X0040102Y0093417D02*
X0038700Y0093417D01*
X0038700Y0094415D02*
X0038721Y0094415D01*
X0052439Y0066457D02*
X0069756Y0066457D01*
X0068514Y0065458D02*
X0052025Y0065458D01*
X0051324Y0064460D02*
X0068043Y0064460D01*
X0067916Y0063461D02*
X0050009Y0063461D01*
X0039991Y0063461D02*
X0038700Y0063461D01*
X0038700Y0062463D02*
X0068075Y0062463D01*
X0068591Y0061464D02*
X0038700Y0061464D01*
X0038700Y0060466D02*
X0069200Y0060466D01*
X0067665Y0059467D02*
X0038700Y0059467D01*
X0038700Y0058469D02*
X0067665Y0058469D01*
X0067665Y0057470D02*
X0038700Y0057470D01*
X0038700Y0056472D02*
X0067665Y0056472D01*
X0067665Y0055473D02*
X0038700Y0055473D01*
X0038700Y0054475D02*
X0067665Y0054475D01*
X0067665Y0053476D02*
X0038700Y0053476D01*
X0038700Y0052478D02*
X0055467Y0052478D01*
X0055066Y0051479D02*
X0038700Y0051479D01*
X0038700Y0050481D02*
X0055066Y0050481D01*
X0055066Y0049482D02*
X0038700Y0049482D01*
X0038700Y0048484D02*
X0055066Y0048484D01*
X0055066Y0047485D02*
X0038700Y0047485D01*
X0038700Y0046487D02*
X0055066Y0046487D01*
X0055066Y0045488D02*
X0038700Y0045488D01*
X0038700Y0044490D02*
X0055066Y0044490D01*
X0055066Y0043491D02*
X0038700Y0043491D01*
X0038700Y0042493D02*
X0055066Y0042493D01*
X0055066Y0041494D02*
X0038700Y0041494D01*
X0038700Y0040496D02*
X0055066Y0040496D01*
X0055066Y0039497D02*
X0038700Y0039497D01*
X0066334Y0039497D02*
X0080066Y0039497D01*
X0080066Y0040496D02*
X0066334Y0040496D01*
X0066334Y0041494D02*
X0080066Y0041494D01*
X0080066Y0042493D02*
X0066334Y0042493D01*
X0066334Y0043491D02*
X0080066Y0043491D01*
X0080066Y0044490D02*
X0066334Y0044490D01*
X0066334Y0045488D02*
X0080066Y0045488D01*
X0080066Y0046487D02*
X0066334Y0046487D01*
X0066334Y0047485D02*
X0080066Y0047485D01*
X0080066Y0048484D02*
X0066334Y0048484D01*
X0066334Y0049482D02*
X0080066Y0049482D01*
X0080066Y0050481D02*
X0066334Y0050481D01*
X0066334Y0051479D02*
X0068201Y0051479D01*
X0067665Y0052478D02*
X0065933Y0052478D01*
X0070739Y0055787D02*
X0071200Y0056247D01*
X0071200Y0063500D01*
X0078735Y0052478D02*
X0080467Y0052478D01*
X0080066Y0051479D02*
X0078199Y0051479D01*
X0179168Y0047485D02*
X0180136Y0047485D01*
X0180136Y0046487D02*
X0179168Y0046487D01*
X0179168Y0045488D02*
X0180136Y0045488D01*
X0180136Y0044490D02*
X0179168Y0044490D01*
X0179168Y0042493D02*
X0180136Y0042493D01*
X0180136Y0041494D02*
X0179168Y0041494D01*
X0179168Y0040496D02*
X0180136Y0040496D01*
X0180136Y0039497D02*
X0179168Y0039497D01*
X0180702Y0039497D02*
X0198180Y0039497D01*
X0196376Y0040496D02*
X0182613Y0040496D01*
X0183460Y0041494D02*
X0195478Y0041494D01*
X0195064Y0042493D02*
X0183908Y0042493D01*
X0206870Y0049482D02*
X0206978Y0049482D01*
D35*
X0200200Y0059500D03*
X0202200Y0063500D03*
X0222200Y0054500D03*
X0231200Y0080500D03*
X0224200Y0098500D03*
X0209200Y0099500D03*
X0206200Y0092500D03*
X0189500Y0083100D03*
X0167200Y0100500D03*
X0165200Y0095500D03*
X0157200Y0098500D03*
X0156200Y0090500D03*
X0136500Y0087200D03*
X0132200Y0105500D03*
X0107200Y0095500D03*
X0104200Y0100500D03*
X0103200Y0105500D03*
X0104200Y0112500D03*
X0089200Y0112500D03*
X0087200Y0119500D03*
X0099400Y0135500D03*
X0120200Y0149500D03*
X0125200Y0152500D03*
X0138200Y0158500D03*
X0140381Y0154287D03*
X0144200Y0150500D03*
X0147200Y0146500D03*
X0163200Y0136500D03*
X0163200Y0132106D03*
X0163200Y0127500D03*
X0165200Y0123287D03*
X0180200Y0113500D03*
X0204924Y0110106D03*
X0208200Y0113500D03*
X0208200Y0118713D03*
X0208200Y0123500D03*
X0226200Y0143500D03*
X0231200Y0145500D03*
X0235200Y0148500D03*
X0240200Y0150500D03*
X0179200Y0168500D03*
X0174200Y0170500D03*
X0075200Y0159500D03*
X0066200Y0175500D03*
X0107200Y0088500D03*
X0076200Y0062500D03*
X0071200Y0063500D03*
X0070940Y0077740D03*
X0070780Y0087680D03*
X0128200Y0052500D03*
X0139200Y0052500D03*
D36*
X0197200Y0080500D02*
X0220200Y0080500D01*
X0226200Y0074500D01*
X0252717Y0074500D01*
X0111192Y0117500D02*
X0108200Y0117500D01*
X0103964Y0121736D01*
X0099405Y0121736D01*
X0099169Y0121500D02*
X0094200Y0121500D01*
X0082751Y0132949D01*
M02*
