%
M48
M72
T01C0.01969
T02C0.03543
T03C0.03937
T04C0.04000
%
T01
X71200Y63500
X76200Y62500
X70940Y77740
X70780Y87680
X103200Y105500
X104200Y100500
X107200Y95500
X107200Y88500
X132200Y105500
X156200Y90500
X165200Y95500
X167200Y100500
X157200Y98500
X136500Y87200
X104200Y112500
X89200Y112500
X87200Y119500
X99400Y135500
X120200Y149500
X125200Y152500
X138200Y158500
X140381Y154287
X144200Y150500
X147200Y146500
X163200Y136500
X163200Y132106
X163200Y127500
X165200Y123287
X180200Y113500
X204924Y110106
X208200Y113500
X208200Y118713
X208200Y123500
X226200Y143500
X231200Y145500
X235200Y148500
X240200Y150500
X179200Y168500
X174200Y170500
X209200Y99500
X206200Y92500
X189500Y83100
X202200Y63500
X200200Y59500
X222200Y54500
X231200Y80500
X224200Y98500
X139200Y52500
X128200Y52500
X75200Y159500
X66200Y175500
T02
X85932Y190445
X112704Y190445
T03
X179652Y43854
X199337Y43854
T04
X143500Y45000
X133500Y45000
X123500Y45000
X113500Y45000
X45000Y67500
X45000Y77500
X45000Y87500
X45000Y97500
X45000Y107500
X45000Y117500
M30
