G75*
%MOIN*%
%OFA0B0*%
%FSLAX25Y25*%
%IPPOS*%
%LPD*%
%AMOC8*
5,1,8,0,0,1.08239X$1,22.5*
%
%ADD10C,0.04343*%
%ADD11C,0.06737*%
%ADD12C,0.06800*%
%ADD13C,0.04369*%
D10*
X0085932Y0190445D03*
X0112704Y0190445D03*
D11*
X0179652Y0043854D03*
X0199337Y0043854D03*
D12*
X0143500Y0042000D02*
X0143500Y0048000D01*
X0133500Y0048000D02*
X0133500Y0042000D01*
X0123500Y0042000D02*
X0123500Y0048000D01*
X0113500Y0048000D02*
X0113500Y0042000D01*
X0048000Y0067500D02*
X0042000Y0067500D01*
X0042000Y0077500D02*
X0048000Y0077500D01*
X0048000Y0087500D02*
X0042000Y0087500D01*
X0042000Y0097500D02*
X0048000Y0097500D01*
X0048000Y0107500D02*
X0042000Y0107500D01*
X0042000Y0117500D02*
X0048000Y0117500D01*
D13*
X0071200Y0063500D03*
X0076200Y0062500D03*
X0070940Y0077740D03*
X0070780Y0087680D03*
X0103200Y0105500D03*
X0104200Y0100500D03*
X0107200Y0095500D03*
X0107200Y0088500D03*
X0132200Y0105500D03*
X0156200Y0090500D03*
X0165200Y0095500D03*
X0167200Y0100500D03*
X0157200Y0098500D03*
X0136500Y0087200D03*
X0104200Y0112500D03*
X0089200Y0112500D03*
X0087200Y0119500D03*
X0099400Y0135500D03*
X0120200Y0149500D03*
X0125200Y0152500D03*
X0138200Y0158500D03*
X0140381Y0154287D03*
X0144200Y0150500D03*
X0147200Y0146500D03*
X0163200Y0136500D03*
X0163200Y0132106D03*
X0163200Y0127500D03*
X0165200Y0123287D03*
X0180200Y0113500D03*
X0204924Y0110106D03*
X0208200Y0113500D03*
X0208200Y0118713D03*
X0208200Y0123500D03*
X0226200Y0143500D03*
X0231200Y0145500D03*
X0235200Y0148500D03*
X0240200Y0150500D03*
X0179200Y0168500D03*
X0174200Y0170500D03*
X0209200Y0099500D03*
X0206200Y0092500D03*
X0189500Y0083100D03*
X0202200Y0063500D03*
X0200200Y0059500D03*
X0222200Y0054500D03*
X0231200Y0080500D03*
X0224200Y0098500D03*
X0139200Y0052500D03*
X0128200Y0052500D03*
X0075200Y0159500D03*
X0066200Y0175500D03*
M02*
