G75*
%MOIN*%
%OFA0B0*%
%FSLAX25Y25*%
%IPPOS*%
%LPD*%
%AMOC8*
5,1,8,0,0,1.08239X$1,22.5*
%
%ADD10R,0.07874X0.03150*%
%ADD11R,0.03150X0.07874*%
%ADD12C,0.03937*%
%ADD13C,0.03937*%
%ADD14C,0.04724*%
%ADD15R,0.04724X0.04724*%
%ADD16R,0.05906X0.05118*%
%ADD17R,0.05118X0.05906*%
%ADD18R,0.02200X0.05200*%
%ADD19R,0.04600X0.01400*%
%ADD20R,0.03150X0.02756*%
%ADD21R,0.02165X0.05906*%
%ADD22R,0.05906X0.02165*%
%ADD23R,0.13780X0.04724*%
%ADD24R,0.08268X0.11811*%
%ADD25R,0.03150X0.06299*%
%ADD26R,0.11811X0.08268*%
%ADD27R,0.06299X0.03150*%
%ADD28R,0.02559X0.02362*%
%ADD29R,0.04724X0.11811*%
D10*
X0216216Y0099522D03*
X0216216Y0104246D03*
X0216216Y0108971D03*
X0216216Y0113695D03*
X0216216Y0118420D03*
X0216216Y0123144D03*
D11*
X0226058Y0133971D03*
X0230783Y0133971D03*
X0235507Y0133971D03*
X0240231Y0133971D03*
X0244956Y0133971D03*
X0249680Y0133971D03*
X0254405Y0133971D03*
X0259129Y0133971D03*
X0259129Y0088695D03*
X0254405Y0088695D03*
X0249680Y0088695D03*
X0244956Y0088695D03*
X0240231Y0088695D03*
X0235507Y0088695D03*
X0230783Y0088695D03*
X0226058Y0088695D03*
D12*
X0220940Y0093026D03*
X0220940Y0129443D03*
D13*
X0265035Y0130821D02*
X0265035Y0130821D01*
X0267397Y0130821D01*
X0267397Y0130821D01*
X0265035Y0130821D01*
X0265035Y0091845D02*
X0265035Y0091845D01*
X0267397Y0091845D01*
X0267397Y0091845D01*
X0265035Y0091845D01*
D14*
X0216216Y0088695D03*
X0216216Y0133971D03*
D15*
X0199830Y0134791D03*
X0191562Y0134791D03*
X0169050Y0146673D03*
X0169050Y0154941D03*
X0191680Y0111209D03*
X0199948Y0111209D03*
X0200326Y0095209D03*
X0192058Y0095209D03*
X0228381Y0045657D03*
X0236649Y0045657D03*
X0066491Y0182311D03*
X0066491Y0190579D03*
D16*
X0074685Y0190070D03*
X0074685Y0182590D03*
X0131128Y0158459D03*
X0131128Y0150979D03*
X0161444Y0147280D03*
X0161444Y0154760D03*
X0173121Y0119264D03*
X0173121Y0111783D03*
X0118869Y0080264D03*
X0118869Y0072783D03*
X0065184Y0112579D03*
X0065184Y0120059D03*
X0080751Y0132949D03*
X0080751Y0140429D03*
X0099405Y0129217D03*
X0099405Y0121736D03*
X0225610Y0153159D03*
X0225610Y0160639D03*
D17*
X0199649Y0127776D03*
X0192169Y0127776D03*
X0192011Y0118335D03*
X0199491Y0118335D03*
X0199869Y0103335D03*
X0192389Y0103335D03*
X0154452Y0063098D03*
X0146972Y0063098D03*
X0138365Y0063122D03*
X0130885Y0063122D03*
X0187436Y0061697D03*
X0194917Y0061697D03*
X0194917Y0053429D03*
X0187436Y0053429D03*
X0203184Y0053429D03*
X0210665Y0053429D03*
X0228775Y0054531D03*
X0236255Y0054531D03*
X0253690Y0075472D03*
X0261170Y0075472D03*
X0106302Y0141610D03*
X0098822Y0141610D03*
X0094948Y0160083D03*
X0087468Y0160083D03*
X0071499Y0133051D03*
X0064019Y0133051D03*
X0074074Y0120862D03*
X0081554Y0120862D03*
X0081554Y0112382D03*
X0074074Y0112382D03*
D18*
X0071459Y0141643D03*
X0064059Y0141643D03*
X0064059Y0152443D03*
X0067759Y0152443D03*
X0071459Y0152443D03*
D19*
X0191313Y0074533D03*
X0191313Y0071933D03*
X0191313Y0069333D03*
X0198913Y0069333D03*
X0198913Y0074533D03*
D20*
X0206924Y0071539D03*
X0206924Y0064453D03*
D21*
X0149869Y0095547D03*
X0146720Y0095547D03*
X0143570Y0095547D03*
X0140420Y0095547D03*
X0137271Y0095547D03*
X0134121Y0095547D03*
X0130972Y0095547D03*
X0127822Y0095547D03*
X0124672Y0095547D03*
X0121523Y0095547D03*
X0118373Y0095547D03*
X0118373Y0140429D03*
X0121523Y0140429D03*
X0124672Y0140429D03*
X0127822Y0140429D03*
X0130972Y0140429D03*
X0134121Y0140429D03*
X0137271Y0140429D03*
X0140420Y0140429D03*
X0143570Y0140429D03*
X0146720Y0140429D03*
X0149869Y0140429D03*
D22*
X0156562Y0133736D03*
X0156562Y0130587D03*
X0156562Y0127437D03*
X0156562Y0124287D03*
X0156562Y0121138D03*
X0156562Y0117988D03*
X0156562Y0114839D03*
X0156562Y0111689D03*
X0156562Y0108539D03*
X0156562Y0105390D03*
X0156562Y0102240D03*
X0111680Y0102240D03*
X0111680Y0105390D03*
X0111680Y0108539D03*
X0111680Y0111689D03*
X0111680Y0114839D03*
X0111680Y0117988D03*
X0111680Y0121138D03*
X0111680Y0124287D03*
X0111680Y0127437D03*
X0111680Y0130587D03*
X0111680Y0133736D03*
D23*
X0131680Y0076144D03*
X0153334Y0076144D03*
D24*
X0060700Y0045550D03*
X0085700Y0045550D03*
X0128188Y0187689D03*
X0153188Y0187689D03*
X0164558Y0187689D03*
X0189558Y0187689D03*
D25*
X0179519Y0177453D03*
X0174598Y0177453D03*
X0143149Y0177453D03*
X0138228Y0177453D03*
X0075661Y0055787D03*
X0070739Y0055787D03*
D26*
X0045861Y0155898D03*
X0045861Y0180898D03*
D27*
X0056098Y0170858D03*
X0056098Y0165937D03*
D28*
X0068570Y0164650D03*
X0076247Y0167209D03*
X0068570Y0169768D03*
D29*
X0089476Y0178634D03*
X0099318Y0178634D03*
X0109161Y0178634D03*
M02*
